<svg width="32" height="32" fill="none" xmlns="http://www.w3.org/2000/svg"><path fill-rule="evenodd" clip-rule="evenodd" d="M8.2 0h10.699l9.067 9.451v18.383A4.162 4.162 0 0123.808 32H8.2a4.163 4.163 0 01-4.166-4.166V4.166A4.163 4.163 0 018.2 0z" fill="#E5252A"/><path opacity=".302" fill-rule="evenodd" clip-rule="evenodd" d="M18.89 0v9.38h9.076L18.89 0z" fill="#fff"/><path d="M8.664 23.876v-5.845h2.486c.616 0 1.104.168 1.472.512.367.336.552.792.552 1.36 0 .567-.184 1.023-.552 1.359-.368.343-.856.511-1.472.511h-.991v2.103H8.664zm1.495-3.374h.823c.224 0 .4-.048.52-.16a.55.55 0 00.184-.44.55.55 0 00-.184-.44c-.12-.111-.296-.16-.52-.16h-.823v1.2zm3.63 3.374v-5.845h2.071c.408 0 .792.056 1.152.176.36.12.687.288.975.52.288.224.52.528.688.912.16.383.248.823.248 1.319 0 .488-.088.927-.248 1.311-.168.384-.4.688-.688.912-.288.232-.616.4-.975.52-.36.12-.744.175-1.152.175h-2.07zm1.463-1.271h.432c.232 0 .448-.024.648-.08a1.94 1.94 0 00.552-.264c.168-.12.303-.288.4-.512a2 2 0 00.143-.791c0-.312-.048-.576-.144-.8a1.185 1.185 0 00-.4-.512 1.94 1.94 0 00-.551-.263c-.2-.056-.416-.08-.648-.08h-.432v3.302zm4.422 1.271v-5.845h4.158v1.272H21.17v.935h2.127v1.264H21.17v2.374h-1.495z" fill="#fff"/></svg>