<svg width="30" height="30" fill="none" xmlns="http://www.w3.org/2000/svg"><path d="M7.684 0h10.038l8.497 8.865v17.232A3.902 3.902 0 0122.316 30H7.684a3.902 3.902 0 01-3.903-3.903V3.903A3.902 3.902 0 017.684 0z" fill="#0263D1"/><path opacity=".302" fill-rule="evenodd" clip-rule="evenodd" d="M17.71 0v8.792h8.509L17.71 0z" fill="#fff"/><path d="M7.405 21.406v-4.967h1.76c.351 0 .679.053.982.15.304.101.579.247.825.44.247.195.441.454.583.777.141.324.214.696.214 1.117 0 .42-.073.792-.214 1.116a1.97 1.97 0 01-.583.776c-.246.194-.521.34-.825.441-.303.097-.63.15-.982.15h-1.76zm1.242-1.08h.368c.198 0 .384-.024.55-.069.17-.048.323-.125.469-.226a.984.984 0 00.34-.437c.085-.186.125-.413.125-.671 0-.26-.04-.486-.125-.676a.994.994 0 00-.34-.433 1.482 1.482 0 00-.47-.226 2.132 2.132 0 00-.55-.069h-.367v2.807zm6.135 1.136c-.748 0-1.367-.242-1.856-.724-.49-.48-.732-1.087-.732-1.815s.242-1.335.732-1.816c.489-.482 1.108-.724 1.856-.724.736 0 1.347.243 1.836.724.485.481.728 1.088.728 1.816s-.243 1.334-.728 1.816c-.49.48-1.1.723-1.836.723zm-.954-1.492c.246.275.562.413.946.413.384 0 .695-.138.942-.413.247-.279.368-.627.368-1.047 0-.421-.121-.769-.368-1.048a1.206 1.206 0 00-.942-.412c-.384 0-.7.137-.946.412-.247.28-.373.627-.373 1.048 0 .42.126.768.373 1.047zm6.47 1.492c-.724 0-1.326-.226-1.803-.671-.482-.449-.72-1.072-.72-1.868 0-.793.242-1.416.728-1.865.489-.449 1.084-.675 1.795-.675.643 0 1.169.158 1.586.477.412.316.65.736.711 1.262l-1.253.255a1.123 1.123 0 00-.372-.664 1.015 1.015 0 00-.68-.25c-.356 0-.651.125-.89.38-.238.259-.36.614-.36 1.08 0 .465.122.82.356 1.075.239.26.534.384.894.384.259 0 .481-.072.663-.218a.959.959 0 00.344-.582l1.282.291c-.117.502-.376.89-.78 1.169-.4.279-.902.42-1.5.42z" fill="#fff"/></svg>