<svg width="271" height="130" fill="none" xmlns="http://www.w3.org/2000/svg"><path d="M0 0h40c27.614 0 50 22.386 50 50v30c0 27.614-22.386 50-50 50H0V0z" fill="#FBEA59"/><path d="M10 15c22.091 0 40 17.909 40 40v20c0 22.091-17.909 40-40 40V15z" fill="#fff"/><path d="M116.304 43.224c-1.675 0-3.067-.555-4.176-1.664-1.099-1.12-1.648-2.507-1.648-4.16s.549-3.035 1.648-4.144c1.109-1.12 2.501-1.68 4.176-1.68 1.003 0 1.931.235 2.784.704a5.214 5.214 0 012.016 1.888l-2.208 1.28a2.469 2.469 0 00-1.056-1.008 3.207 3.207 0 00-1.536-.368c-.992 0-1.787.304-2.384.912-.587.608-.88 1.413-.88 2.416s.293 1.808.88 2.416c.597.608 1.392.912 2.384.912a3.21 3.21 0 001.536-.368 2.48 2.48 0 001.056-1.008l2.208 1.28a5.21 5.21 0 01-2 1.904 5.82 5.82 0 01-2.8.688zm13.44-.224l-.56-1.76h-4.16l-.56 1.76h-2.8l3.808-11.2h3.264l3.808 11.2h-2.8zm-3.952-4.16h2.624l-1.312-4.112-1.312 4.112zm10.027-7.984v-2.08h4.8v2.08h-4.8zM140.059 43v-6.08l-4.32 6.08h-1.92V31.8h2.56v6.08l4.32-6.08h1.92V43h-2.56zm12.318-11.2v2.464h-2.88V43h-2.56v-8.736h-2.88V31.8h8.32zM117.2 69v-6.08L112.88 69h-1.92V57.8h2.56v6.08l4.32-6.08h1.92V69h-2.56zm10.879-11.2h2.56V69h-2.56v-4.448h-3.52V69h-2.56V57.8h2.56v4.288h3.52V57.8zM139.121 69v-6.08l-4.32 6.08h-1.92V57.8h2.56v6.08l4.32-6.08h1.92V69h-2.56zm13.279-2.464h1.2v4.608h-2.56V69h-7.12V57.8h2.56v8.736h3.36V57.8h2.56v8.736zM161.527 69v-6.08l-4.32 6.08h-1.92V57.8h2.56v6.08l4.32-6.08h1.92V69h-2.56zm11.919 0l-.56-1.76h-4.16l-.56 1.76h-2.8l3.808-11.2h3.264l3.808 11.2h-2.8zm-3.952-4.16h2.624l-1.312-4.112-1.312 4.112zm14.75-7.04v2.464h-2.88V69h-2.56v-8.736h-2.88V57.8h8.32zm7.68 11.2v-6.08l-4.32 6.08h-1.92V57.8h2.56v6.08l4.32-6.08h1.92V69h-2.56zm11.743-5.808c.917.587 1.376 1.43 1.376 2.528 0 .97-.347 1.76-1.04 2.368-.693.608-1.552.912-2.576.912h-4.704V57.8h4.384c1.003 0 1.84.299 2.512.896.683.587 1.024 1.355 1.024 2.304 0 .896-.325 1.627-.976 2.192zm-2.56-2.992h-1.824v1.984h1.824c.288 0 .523-.09.704-.272a1.01 1.01 0 00.272-.72.954.954 0 00-.272-.704.924.924 0 00-.704-.288zm.32 6.4c.32 0 .576-.096.768-.288.192-.203.288-.464.288-.784s-.096-.576-.288-.768c-.192-.203-.448-.304-.768-.304h-2.144V66.6h2.144zm11.29-8.8h2.56V69h-2.56v-4.448h-3.52V69h-2.56V57.8h2.56v4.288h3.52V57.8zm14.274 9.744c-1.13 1.12-2.506 1.68-4.128 1.68-1.621 0-2.997-.56-4.128-1.68-1.13-1.12-1.696-2.501-1.696-4.144 0-1.643.566-3.024 1.696-4.144 1.131-1.12 2.507-1.68 4.128-1.68 1.622 0 2.998.56 4.128 1.68 1.131 1.12 1.696 2.501 1.696 4.144 0 1.643-.565 3.024-1.696 4.144zm-6.464-1.744c.63.619 1.408.928 2.336.928.928 0 1.702-.31 2.32-.928.63-.619.944-1.419.944-2.4 0-.981-.314-1.781-.944-2.4-.618-.619-1.392-.928-2.32-.928-.928 0-1.706.31-2.336.928-.618.619-.928 1.419-.928 2.4 0 .981.31 1.781.928 2.4zm11.922-8.944v-2.08h4.8v2.08h-4.8zM236.689 69v-6.08l-4.32 6.08h-1.92V57.8h2.56v6.08l4.32-6.08h1.92V69h-2.56zM117.36 83.8v2.464h-3.84V95h-2.56V83.8h6.4zm5.676 0c1.098 0 2.026.373 2.784 1.12.757.747 1.136 1.653 1.136 2.72 0 1.067-.379 1.973-1.136 2.72-.758.747-1.686 1.12-2.784 1.12h-1.68V95h-2.56V83.8h4.24zm0 5.28c.394 0 .72-.139.976-.416.256-.277.384-.619.384-1.024s-.128-.747-.384-1.024a1.271 1.271 0 00-.976-.416h-1.68v2.88h1.68zm11.113-5.28h2.56l-3.232 7.904c-.95 2.315-2.518 3.413-4.704 3.296v-2.4c1.034.096 1.781-.272 2.24-1.104l-3.584-7.696h2.56l2.192 4.896 1.968-4.896zm12.485 0V95h-2.56v-8.736h-3.36V95h-2.56V83.8h8.48zm10.727 0V95h-2.56v-8.736h-3.36V95h-2.56V83.8h8.48zm2.246 11.2V83.8h2.56v3.52h1.68c1.099 0 2.027.373 2.784 1.12.757.747 1.136 1.653 1.136 2.72 0 1.067-.379 1.973-1.136 2.72-.757.747-1.685 1.12-2.784 1.12h-4.24zm9.12 0V83.8h2.56V95h-2.56zm-6.56-2.4h1.68c.395 0 .72-.139.976-.416.256-.277.384-.619.384-1.024s-.128-.747-.384-1.024a1.27 1.27 0 00-.976-.416h-1.68v2.88zm29.306 2.4h-2.832l-3.104-4.96V95h-2.56v-4.96L179.873 95h-2.832l3.616-5.696-3.456-5.504h2.832l2.944 4.928V83.8h2.56v4.928l2.944-4.928h2.832l-3.456 5.504L191.473 95zm10.494 0h-2.912l-3.584-5.184V95h-2.56V83.8h2.56v4.864l3.424-4.864h2.912l-3.776 5.456L201.967 95zm9.519.224c-1.141 0-2.096-.245-2.864-.736a4.11 4.11 0 01-1.616-2.032l2.208-1.28c.448 1.035 1.232 1.552 2.352 1.552 1.014 0 1.52-.304 1.52-.912 0-.33-.165-.587-.496-.768-.32-.192-.928-.41-1.824-.656a8.23 8.23 0 01-1.232-.432 5.619 5.619 0 01-1.04-.624 2.722 2.722 0 01-.768-.992 3.41 3.41 0 01-.256-1.36c0-1.035.368-1.861 1.104-2.48.747-.619 1.632-.928 2.656-.928.918 0 1.728.219 2.432.656.704.427 1.259 1.05 1.664 1.872l-2.16 1.264c-.202-.427-.453-.747-.752-.96-.298-.224-.693-.336-1.184-.336-.384 0-.682.085-.896.256-.202.16-.304.357-.304.592 0 .277.128.517.384.72.267.203.811.427 1.632.672.448.139.795.25 1.04.336.246.085.555.23.928.432.384.192.672.4.864.624.203.213.379.501.528.864.16.352.24.757.24 1.216 0 1.067-.384 1.91-1.152 2.528-.768.608-1.77.912-3.008.912zM223.247 83.8h2.56V95h-2.56v-4.448h-3.52V95h-2.56V83.8h2.56v4.288h3.52V83.8zm14.275 9.744c-1.131 1.12-2.507 1.68-4.128 1.68s-2.997-.56-4.128-1.68c-1.131-1.12-1.696-2.501-1.696-4.144 0-1.643.565-3.024 1.696-4.144s2.507-1.68 4.128-1.68 2.997.56 4.128 1.68c1.131 1.12 1.696 2.501 1.696 4.144 0 1.643-.565 3.024-1.696 4.144zm-6.464-1.744c.629.619 1.408.928 2.336.928.928 0 1.701-.31 2.32-.928.629-.619.944-1.419.944-2.4 0-.981-.315-1.781-.944-2.4-.619-.619-1.392-.928-2.32-.928-.928 0-1.707.31-2.336.928-.619.619-.928 1.419-.928 2.4 0 .981.309 1.781.928 2.4zm21.121-8V95h-2.56v-6.512l-2.896 4.752h-.288l-2.896-4.752V95h-2.56V83.8h2.56l3.04 4.976 3.04-4.976h2.56zm4.805 8.736h4.48V95h-7.04V83.8h6.96v2.464h-4.4v1.856h4v2.432h-4v1.984z" fill="#000"/></svg>