<svg width="214" height="203" fill="none" xmlns="http://www.w3.org/2000/svg"><path d="M0 3.98h3.84V0h2.34v3.98h3.86v2.24H6.18v4.02H3.84V6.22H0V3.98zm16.992 0h3.84V0h2.34v3.98h3.86v2.24h-3.86v4.02h-2.34V6.22h-3.84V3.98zm16.992 0h3.84V0h2.34v3.98h3.86v2.24h-3.86v4.02h-2.34V6.22h-3.84V3.98zm16.993 0h3.84V0h2.34v3.98h3.86v2.24h-3.86v4.02h-2.34V6.22h-3.84V3.98zm16.992 0h3.84V0h2.34v3.98h3.86v2.24h-3.86v4.02h-2.34V6.22h-3.84V3.98zm16.991 0h3.84V0h2.34v3.98H95v2.24h-3.86v4.02H88.8V6.22h-3.84V3.98zm16.993 0h3.84V0h2.34v3.98h3.86v2.24h-3.86v4.02h-2.34V6.22h-3.84V3.98zm16.992 0h3.84V0h2.34v3.98h3.86v2.24h-3.86v4.02h-2.34V6.22h-3.84V3.98zm16.993 0h3.839V0h2.34v3.98h3.86v2.24h-3.86v4.02h-2.34V6.22h-3.839V3.98zm16.992 0h3.84V0h2.34v3.98h3.86v2.24h-3.86v4.02h-2.34V6.22h-3.84V3.98zm16.992 0h3.84V0h2.34v3.98h3.86v2.24h-3.86v4.02h-2.34V6.22h-3.84V3.98zm16.992 0h3.84V0h2.34v3.98h3.86v2.24h-3.86v4.02h-2.34V6.22h-3.84V3.98zm16.992 0h3.84V0h2.34v3.98h3.86v2.24h-3.86v4.02h-2.34V6.22h-3.84V3.98zM0 27.98h3.84V24h2.34v3.98h3.86v2.24H6.18v4.02H3.84v-4.02H0v-2.24zm16.992 0h3.84V24h2.34v3.98h3.86v2.24h-3.86v4.02h-2.34v-4.02h-3.84v-2.24zm16.992 0h3.84V24h2.34v3.98h3.86v2.24h-3.86v4.02h-2.34v-4.02h-3.84v-2.24zm16.993 0h3.84V24h2.34v3.98h3.86v2.24h-3.86v4.02h-2.34v-4.02h-3.84v-2.24zm16.992 0h3.84V24h2.34v3.98h3.86v2.24h-3.86v4.02h-2.34v-4.02h-3.84v-2.24zm16.991 0h3.84V24h2.34v3.98H95v2.24h-3.86v4.02H88.8v-4.02h-3.84v-2.24zm16.993 0h3.84V24h2.34v3.98h3.86v2.24h-3.86v4.02h-2.34v-4.02h-3.84v-2.24zm16.992 0h3.84V24h2.34v3.98h3.86v2.24h-3.86v4.02h-2.34v-4.02h-3.84v-2.24zm16.993 0h3.839V24h2.34v3.98h3.86v2.24h-3.86v4.02h-2.34v-4.02h-3.839v-2.24zm16.992 0h3.84V24h2.34v3.98h3.86v2.24h-3.86v4.02h-2.34v-4.02h-3.84v-2.24zm16.992 0h3.84V24h2.34v3.98h3.86v2.24h-3.86v4.02h-2.34v-4.02h-3.84v-2.24zm16.992 0h3.84V24h2.34v3.98h3.86v2.24h-3.86v4.02h-2.34v-4.02h-3.84v-2.24zm16.992 0h3.84V24h2.34v3.98h3.86v2.24h-3.86v4.02h-2.34v-4.02h-3.84v-2.24zM0 51.98h3.84V48h2.34v3.98h3.86v2.24H6.18v4.02H3.84v-4.02H0v-2.24zm16.992 0h3.84V48h2.34v3.98h3.86v2.24h-3.86v4.02h-2.34v-4.02h-3.84v-2.24zm16.992 0h3.84V48h2.34v3.98h3.86v2.24h-3.86v4.02h-2.34v-4.02h-3.84v-2.24zm16.993 0h3.84V48h2.34v3.98h3.86v2.24h-3.86v4.02h-2.34v-4.02h-3.84v-2.24zm16.992 0h3.84V48h2.34v3.98h3.86v2.24h-3.86v4.02h-2.34v-4.02h-3.84v-2.24zm16.991 0h3.84V48h2.34v3.98H95v2.24h-3.86v4.02H88.8v-4.02h-3.84v-2.24zm16.993 0h3.84V48h2.34v3.98h3.86v2.24h-3.86v4.02h-2.34v-4.02h-3.84v-2.24zm16.992 0h3.84V48h2.34v3.98h3.86v2.24h-3.86v4.02h-2.34v-4.02h-3.84v-2.24zm16.993 0h3.839V48h2.34v3.98h3.86v2.24h-3.86v4.02h-2.34v-4.02h-3.839v-2.24zm16.992 0h3.84V48h2.34v3.98h3.86v2.24h-3.86v4.02h-2.34v-4.02h-3.84v-2.24zm16.992 0h3.84V48h2.34v3.98h3.86v2.24h-3.86v4.02h-2.34v-4.02h-3.84v-2.24zm16.992 0h3.84V48h2.34v3.98h3.86v2.24h-3.86v4.02h-2.34v-4.02h-3.84v-2.24zm16.992 0h3.84V48h2.34v3.98h3.86v2.24h-3.86v4.02h-2.34v-4.02h-3.84v-2.24zM0 75.98h3.84V72h2.34v3.98h3.86v2.24H6.18v4.02H3.84v-4.02H0v-2.24zm16.992 0h3.84V72h2.34v3.98h3.86v2.24h-3.86v4.02h-2.34v-4.02h-3.84v-2.24zm16.992 0h3.84V72h2.34v3.98h3.86v2.24h-3.86v4.02h-2.34v-4.02h-3.84v-2.24zm16.993 0h3.84V72h2.34v3.98h3.86v2.24h-3.86v4.02h-2.34v-4.02h-3.84v-2.24zm16.992 0h3.84V72h2.34v3.98h3.86v2.24h-3.86v4.02h-2.34v-4.02h-3.84v-2.24zm16.991 0h3.84V72h2.34v3.98H95v2.24h-3.86v4.02H88.8v-4.02h-3.84v-2.24zm16.993 0h3.84V72h2.34v3.98h3.86v2.24h-3.86v4.02h-2.34v-4.02h-3.84v-2.24zm16.992 0h3.84V72h2.34v3.98h3.86v2.24h-3.86v4.02h-2.34v-4.02h-3.84v-2.24zm16.993 0h3.839V72h2.34v3.98h3.86v2.24h-3.86v4.02h-2.34v-4.02h-3.839v-2.24zm16.992 0h3.84V72h2.34v3.98h3.86v2.24h-3.86v4.02h-2.34v-4.02h-3.84v-2.24zm16.992 0h3.84V72h2.34v3.98h3.86v2.24h-3.86v4.02h-2.34v-4.02h-3.84v-2.24zm16.992 0h3.84V72h2.34v3.98h3.86v2.24h-3.86v4.02h-2.34v-4.02h-3.84v-2.24zm16.992 0h3.84V72h2.34v3.98h3.86v2.24h-3.86v4.02h-2.34v-4.02h-3.84v-2.24zM0 99.98h3.84V96h2.34v3.98h3.86v2.24H6.18v4.02H3.84v-4.02H0v-2.24zm16.992 0h3.84V96h2.34v3.98h3.86v2.24h-3.86v4.02h-2.34v-4.02h-3.84v-2.24zm16.992 0h3.84V96h2.34v3.98h3.86v2.24h-3.86v4.02h-2.34v-4.02h-3.84v-2.24zm16.993 0h3.84V96h2.34v3.98h3.86v2.24h-3.86v4.02h-2.34v-4.02h-3.84v-2.24zm16.992 0h3.84V96h2.34v3.98h3.86v2.24h-3.86v4.02h-2.34v-4.02h-3.84v-2.24zm16.991 0h3.84V96h2.34v3.98H95v2.24h-3.86v4.02H88.8v-4.02h-3.84v-2.24zm16.993 0h3.84V96h2.34v3.98h3.86v2.24h-3.86v4.02h-2.34v-4.02h-3.84v-2.24zm16.992 0h3.84V96h2.34v3.98h3.86v2.24h-3.86v4.02h-2.34v-4.02h-3.84v-2.24zm16.993 0h3.839V96h2.34v3.98h3.86v2.24h-3.86v4.02h-2.34v-4.02h-3.839v-2.24zm16.992 0h3.84V96h2.34v3.98h3.86v2.24h-3.86v4.02h-2.34v-4.02h-3.84v-2.24zm16.992 0h3.84V96h2.34v3.98h3.86v2.24h-3.86v4.02h-2.34v-4.02h-3.84v-2.24zm16.992 0h3.84V96h2.34v3.98h3.86v2.24h-3.86v4.02h-2.34v-4.02h-3.84v-2.24zm16.992 0h3.84V96h2.34v3.98h3.86v2.24h-3.86v4.02h-2.34v-4.02h-3.84v-2.24zM0 123.98h3.84V120h2.34v3.98h3.86v2.24H6.18v4.02H3.84v-4.02H0v-2.24zm16.992 0h3.84V120h2.34v3.98h3.86v2.24h-3.86v4.02h-2.34v-4.02h-3.84v-2.24zm16.992 0h3.84V120h2.34v3.98h3.86v2.24h-3.86v4.02h-2.34v-4.02h-3.84v-2.24zm16.993 0h3.84V120h2.34v3.98h3.86v2.24h-3.86v4.02h-2.34v-4.02h-3.84v-2.24zm16.992 0h3.84V120h2.34v3.98h3.86v2.24h-3.86v4.02h-2.34v-4.02h-3.84v-2.24zm16.991 0h3.84V120h2.34v3.98H95v2.24h-3.86v4.02H88.8v-4.02h-3.84v-2.24zm16.993 0h3.84V120h2.34v3.98h3.86v2.24h-3.86v4.02h-2.34v-4.02h-3.84v-2.24zm16.992 0h3.84V120h2.34v3.98h3.86v2.24h-3.86v4.02h-2.34v-4.02h-3.84v-2.24zm16.993 0h3.839V120h2.34v3.98h3.86v2.24h-3.86v4.02h-2.34v-4.02h-3.839v-2.24zm16.992 0h3.84V120h2.34v3.98h3.86v2.24h-3.86v4.02h-2.34v-4.02h-3.84v-2.24zm16.992 0h3.84V120h2.34v3.98h3.86v2.24h-3.86v4.02h-2.34v-4.02h-3.84v-2.24zm16.992 0h3.84V120h2.34v3.98h3.86v2.24h-3.86v4.02h-2.34v-4.02h-3.84v-2.24zm16.992 0h3.84V120h2.34v3.98h3.86v2.24h-3.86v4.02h-2.34v-4.02h-3.84v-2.24zM0 147.98h3.84V144h2.34v3.98h3.86v2.24H6.18v4.02H3.84v-4.02H0v-2.24zm16.992 0h3.84V144h2.34v3.98h3.86v2.24h-3.86v4.02h-2.34v-4.02h-3.84v-2.24zm16.992 0h3.84V144h2.34v3.98h3.86v2.24h-3.86v4.02h-2.34v-4.02h-3.84v-2.24zm16.993 0h3.84V144h2.34v3.98h3.86v2.24h-3.86v4.02h-2.34v-4.02h-3.84v-2.24zm16.992 0h3.84V144h2.34v3.98h3.86v2.24h-3.86v4.02h-2.34v-4.02h-3.84v-2.24zm16.991 0h3.84V144h2.34v3.98H95v2.24h-3.86v4.02H88.8v-4.02h-3.84v-2.24zm16.993 0h3.84V144h2.34v3.98h3.86v2.24h-3.86v4.02h-2.34v-4.02h-3.84v-2.24zm16.992 0h3.84V144h2.34v3.98h3.86v2.24h-3.86v4.02h-2.34v-4.02h-3.84v-2.24zm16.993 0h3.839V144h2.34v3.98h3.86v2.24h-3.86v4.02h-2.34v-4.02h-3.839v-2.24zm16.992 0h3.84V144h2.34v3.98h3.86v2.24h-3.86v4.02h-2.34v-4.02h-3.84v-2.24zm16.992 0h3.84V144h2.34v3.98h3.86v2.24h-3.86v4.02h-2.34v-4.02h-3.84v-2.24zm16.992 0h3.84V144h2.34v3.98h3.86v2.24h-3.86v4.02h-2.34v-4.02h-3.84v-2.24zm16.992 0h3.84V144h2.34v3.98h3.86v2.24h-3.86v4.02h-2.34v-4.02h-3.84v-2.24zM0 171.98h3.84V168h2.34v3.98h3.86v2.24H6.18v4.02H3.84v-4.02H0v-2.24zm16.992 0h3.84V168h2.34v3.98h3.86v2.24h-3.86v4.02h-2.34v-4.02h-3.84v-2.24zm16.992 0h3.84V168h2.34v3.98h3.86v2.24h-3.86v4.02h-2.34v-4.02h-3.84v-2.24zm16.993 0h3.84V168h2.34v3.98h3.86v2.24h-3.86v4.02h-2.34v-4.02h-3.84v-2.24zm16.992 0h3.84V168h2.34v3.98h3.86v2.24h-3.86v4.02h-2.34v-4.02h-3.84v-2.24zm16.991 0h3.84V168h2.34v3.98H95v2.24h-3.86v4.02H88.8v-4.02h-3.84v-2.24zm16.993 0h3.84V168h2.34v3.98h3.86v2.24h-3.86v4.02h-2.34v-4.02h-3.84v-2.24zm16.992 0h3.84V168h2.34v3.98h3.86v2.24h-3.86v4.02h-2.34v-4.02h-3.84v-2.24zm16.993 0h3.839V168h2.34v3.98h3.86v2.24h-3.86v4.02h-2.34v-4.02h-3.839v-2.24zm16.992 0h3.84V168h2.34v3.98h3.86v2.24h-3.86v4.02h-2.34v-4.02h-3.84v-2.24zm16.992 0h3.84V168h2.34v3.98h3.86v2.24h-3.86v4.02h-2.34v-4.02h-3.84v-2.24zm16.992 0h3.84V168h2.34v3.98h3.86v2.24h-3.86v4.02h-2.34v-4.02h-3.84v-2.24zm16.992 0h3.84V168h2.34v3.98h3.86v2.24h-3.86v4.02h-2.34v-4.02h-3.84v-2.24zM0 195.98h3.84V192h2.34v3.98h3.86v2.24H6.18v4.02H3.84v-4.02H0v-2.24zm16.992 0h3.84V192h2.34v3.98h3.86v2.24h-3.86v4.02h-2.34v-4.02h-3.84v-2.24zm16.992 0h3.84V192h2.34v3.98h3.86v2.24h-3.86v4.02h-2.34v-4.02h-3.84v-2.24zm16.993 0h3.84V192h2.34v3.98h3.86v2.24h-3.86v4.02h-2.34v-4.02h-3.84v-2.24zm16.992 0h3.84V192h2.34v3.98h3.86v2.24h-3.86v4.02h-2.34v-4.02h-3.84v-2.24zm16.991 0h3.84V192h2.34v3.98H95v2.24h-3.86v4.02H88.8v-4.02h-3.84v-2.24zm16.993 0h3.84V192h2.34v3.98h3.86v2.24h-3.86v4.02h-2.34v-4.02h-3.84v-2.24zm16.992 0h3.84V192h2.34v3.98h3.86v2.24h-3.86v4.02h-2.34v-4.02h-3.84v-2.24zm16.993 0h3.839V192h2.34v3.98h3.86v2.24h-3.86v4.02h-2.34v-4.02h-3.839v-2.24zm16.992 0h3.84V192h2.34v3.98h3.86v2.24h-3.86v4.02h-2.34v-4.02h-3.84v-2.24zm16.992 0h3.84V192h2.34v3.98h3.86v2.24h-3.86v4.02h-2.34v-4.02h-3.84v-2.24zm16.992 0h3.84V192h2.34v3.98h3.86v2.24h-3.86v4.02h-2.34v-4.02h-3.84v-2.24zm16.992 0h3.84V192h2.34v3.98h3.86v2.24h-3.86v4.02h-2.34v-4.02h-3.84v-2.24z" fill="#F7F7F7"/></svg>