<svg width="415" height="275" fill="none" xmlns="http://www.w3.org/2000/svg"><path d="M-3.02 4.12H.82V.14h2.34v3.98h3.86v2.24H3.16v4.02H.82V6.36h-3.84V4.12zm16.992 0h3.84V.14h2.34v3.98h3.86v2.24h-3.86v4.02h-2.34V6.36h-3.84V4.12zm16.992 0h3.84V.14h2.34v3.98h3.86v2.24h-3.86v4.02h-2.34V6.36h-3.84V4.12zm16.993 0h3.84V.14h2.34v3.98h3.86v2.24h-3.86v4.02h-2.34V6.36h-3.84V4.12zm16.992 0h3.84V.14h2.34v3.98h3.86v2.24h-3.86v4.02h-2.34V6.36h-3.84V4.12zm16.992 0h3.84V.14h2.34v3.98h3.86v2.24h-3.86v4.02h-2.34V6.36h-3.84V4.12zm16.992 0h3.84V.14h2.34v3.98h3.86v2.24h-3.86v4.02h-2.34V6.36h-3.84V4.12zm16.992 0h3.84V.14h2.34v3.98h3.86v2.24h-3.86v4.02h-2.34V6.36h-3.84V4.12zm16.993 0h3.84V.14h2.34v3.98h3.859v2.24h-3.859v4.02h-2.34V6.36h-3.84V4.12zm16.992 0h3.84V.14h2.34v3.98h3.86v2.24h-3.86v4.02h-2.34V6.36h-3.84V4.12zm16.992 0h3.84V.14h2.34v3.98h3.86v2.24h-3.86v4.02h-2.34V6.36h-3.84V4.12zm16.992 0h3.84V.14h2.34v3.98h3.86v2.24h-3.86v4.02h-2.34V6.36h-3.84V4.12zm16.992 0h3.84V.14h2.34v3.98h3.86v2.24h-3.86v4.02h-2.34V6.36h-3.84V4.12zm16.992 0h3.84V.14h2.34v3.98h3.86v2.24h-3.86v4.02h-2.34V6.36h-3.84V4.12zm16.993 0h3.84V.14h2.34v3.98h3.86v2.24h-3.86v4.02h-2.34V6.36h-3.84V4.12zm16.992 0h3.84V.14h2.34v3.98h3.86v2.24h-3.86v4.02h-2.34V6.36h-3.84V4.12zm16.992 0h3.84V.14h2.34v3.98h3.86v2.24h-3.86v4.02h-2.34V6.36h-3.84V4.12zm16.992 0h3.84V.14h2.34v3.98h3.86v2.24h-3.86v4.02h-2.34V6.36h-3.84V4.12zm16.992 0h3.84V.14h2.34v3.98h3.86v2.24h-3.86v4.02h-2.34V6.36h-3.84V4.12zm16.993 0h3.84V.14h2.34v3.98h3.86v2.24h-3.86v4.02h-2.34V6.36h-3.84V4.12zm16.992 0h3.84V.14h2.34v3.98h3.86v2.24h-3.86v4.02h-2.34V6.36h-3.84V4.12zm16.992 0h3.84V.14h2.34v3.98h3.86v2.24h-3.86v4.02h-2.34V6.36h-3.84V4.12zm16.992 0h3.84V.14h2.34v3.98h3.86v2.24h-3.86v4.02h-2.34V6.36h-3.84V4.12zm16.992 0h3.84V.14h2.34v3.98h3.86v2.24h-3.86v4.02h-2.34V6.36h-3.84V4.12zm16.993 0h3.84V.14h2.34v3.98h3.859v2.24h-3.859v4.02h-2.34V6.36h-3.84V4.12zm-407.813 24H.82v-3.98h2.34v3.98h3.86v2.24H3.16v4.02H.82v-4.02h-3.84v-2.24zm16.992 0h3.84v-3.98h2.34v3.98h3.86v2.24h-3.86v4.02h-2.34v-4.02h-3.84v-2.24zm16.992 0h3.84v-3.98h2.34v3.98h3.86v2.24h-3.86v4.02h-2.34v-4.02h-3.84v-2.24zm16.993 0h3.84v-3.98h2.34v3.98h3.86v2.24h-3.86v4.02h-2.34v-4.02h-3.84v-2.24zm16.992 0h3.84v-3.98h2.34v3.98h3.86v2.24h-3.86v4.02h-2.34v-4.02h-3.84v-2.24zm16.992 0h3.84v-3.98h2.34v3.98h3.86v2.24h-3.86v4.02h-2.34v-4.02h-3.84v-2.24zm16.992 0h3.84v-3.98h2.34v3.98h3.86v2.24h-3.86v4.02h-2.34v-4.02h-3.84v-2.24zm16.992 0h3.84v-3.98h2.34v3.98h3.86v2.24h-3.86v4.02h-2.34v-4.02h-3.84v-2.24zm16.993 0h3.84v-3.98h2.34v3.98h3.859v2.24h-3.859v4.02h-2.34v-4.02h-3.84v-2.24zm16.992 0h3.84v-3.98h2.34v3.98h3.86v2.24h-3.86v4.02h-2.34v-4.02h-3.84v-2.24zm16.992 0h3.84v-3.98h2.34v3.98h3.86v2.24h-3.86v4.02h-2.34v-4.02h-3.84v-2.24zm16.992 0h3.84v-3.98h2.34v3.98h3.86v2.24h-3.86v4.02h-2.34v-4.02h-3.84v-2.24zm16.992 0h3.84v-3.98h2.34v3.98h3.86v2.24h-3.86v4.02h-2.34v-4.02h-3.84v-2.24zm16.992 0h3.84v-3.98h2.34v3.98h3.86v2.24h-3.86v4.02h-2.34v-4.02h-3.84v-2.24zm16.993 0h3.84v-3.98h2.34v3.98h3.86v2.24h-3.86v4.02h-2.34v-4.02h-3.84v-2.24zm16.992 0h3.84v-3.98h2.34v3.98h3.86v2.24h-3.86v4.02h-2.34v-4.02h-3.84v-2.24zm16.992 0h3.84v-3.98h2.34v3.98h3.86v2.24h-3.86v4.02h-2.34v-4.02h-3.84v-2.24zm16.992 0h3.84v-3.98h2.34v3.98h3.86v2.24h-3.86v4.02h-2.34v-4.02h-3.84v-2.24zm16.992 0h3.84v-3.98h2.34v3.98h3.86v2.24h-3.86v4.02h-2.34v-4.02h-3.84v-2.24zm16.993 0h3.84v-3.98h2.34v3.98h3.86v2.24h-3.86v4.02h-2.34v-4.02h-3.84v-2.24zm16.992 0h3.84v-3.98h2.34v3.98h3.86v2.24h-3.86v4.02h-2.34v-4.02h-3.84v-2.24zm16.992 0h3.84v-3.98h2.34v3.98h3.86v2.24h-3.86v4.02h-2.34v-4.02h-3.84v-2.24zm16.992 0h3.84v-3.98h2.34v3.98h3.86v2.24h-3.86v4.02h-2.34v-4.02h-3.84v-2.24zm16.992 0h3.84v-3.98h2.34v3.98h3.86v2.24h-3.86v4.02h-2.34v-4.02h-3.84v-2.24zm16.993 0h3.84v-3.98h2.34v3.98h3.859v2.24h-3.859v4.02h-2.34v-4.02h-3.84v-2.24zm-407.813 24H.82v-3.98h2.34v3.98h3.86v2.24H3.16v4.02H.82v-4.02h-3.84v-2.24zm16.992 0h3.84v-3.98h2.34v3.98h3.86v2.24h-3.86v4.02h-2.34v-4.02h-3.84v-2.24zm16.992 0h3.84v-3.98h2.34v3.98h3.86v2.24h-3.86v4.02h-2.34v-4.02h-3.84v-2.24zm16.993 0h3.84v-3.98h2.34v3.98h3.86v2.24h-3.86v4.02h-2.34v-4.02h-3.84v-2.24zm16.992 0h3.84v-3.98h2.34v3.98h3.86v2.24h-3.86v4.02h-2.34v-4.02h-3.84v-2.24zm16.992 0h3.84v-3.98h2.34v3.98h3.86v2.24h-3.86v4.02h-2.34v-4.02h-3.84v-2.24zm16.992 0h3.84v-3.98h2.34v3.98h3.86v2.24h-3.86v4.02h-2.34v-4.02h-3.84v-2.24zm16.992 0h3.84v-3.98h2.34v3.98h3.86v2.24h-3.86v4.02h-2.34v-4.02h-3.84v-2.24zm16.993 0h3.84v-3.98h2.34v3.98h3.859v2.24h-3.859v4.02h-2.34v-4.02h-3.84v-2.24zm16.992 0h3.84v-3.98h2.34v3.98h3.86v2.24h-3.86v4.02h-2.34v-4.02h-3.84v-2.24zm16.992 0h3.84v-3.98h2.34v3.98h3.86v2.24h-3.86v4.02h-2.34v-4.02h-3.84v-2.24zm16.992 0h3.84v-3.98h2.34v3.98h3.86v2.24h-3.86v4.02h-2.34v-4.02h-3.84v-2.24zm16.992 0h3.84v-3.98h2.34v3.98h3.86v2.24h-3.86v4.02h-2.34v-4.02h-3.84v-2.24zm16.992 0h3.84v-3.98h2.34v3.98h3.86v2.24h-3.86v4.02h-2.34v-4.02h-3.84v-2.24zm16.993 0h3.84v-3.98h2.34v3.98h3.86v2.24h-3.86v4.02h-2.34v-4.02h-3.84v-2.24zm16.992 0h3.84v-3.98h2.34v3.98h3.86v2.24h-3.86v4.02h-2.34v-4.02h-3.84v-2.24zm16.992 0h3.84v-3.98h2.34v3.98h3.86v2.24h-3.86v4.02h-2.34v-4.02h-3.84v-2.24zm16.992 0h3.84v-3.98h2.34v3.98h3.86v2.24h-3.86v4.02h-2.34v-4.02h-3.84v-2.24zm16.992 0h3.84v-3.98h2.34v3.98h3.86v2.24h-3.86v4.02h-2.34v-4.02h-3.84v-2.24zm16.993 0h3.84v-3.98h2.34v3.98h3.86v2.24h-3.86v4.02h-2.34v-4.02h-3.84v-2.24zm16.992 0h3.84v-3.98h2.34v3.98h3.86v2.24h-3.86v4.02h-2.34v-4.02h-3.84v-2.24zm16.992 0h3.84v-3.98h2.34v3.98h3.86v2.24h-3.86v4.02h-2.34v-4.02h-3.84v-2.24zm16.992 0h3.84v-3.98h2.34v3.98h3.86v2.24h-3.86v4.02h-2.34v-4.02h-3.84v-2.24zm16.992 0h3.84v-3.98h2.34v3.98h3.86v2.24h-3.86v4.02h-2.34v-4.02h-3.84v-2.24zm16.993 0h3.84v-3.98h2.34v3.98h3.859v2.24h-3.859v4.02h-2.34v-4.02h-3.84v-2.24zm-407.813 24H.82v-3.98h2.34v3.98h3.86v2.24H3.16v4.02H.82v-4.02h-3.84v-2.24zm16.992 0h3.84v-3.98h2.34v3.98h3.86v2.24h-3.86v4.02h-2.34v-4.02h-3.84v-2.24zm16.992 0h3.84v-3.98h2.34v3.98h3.86v2.24h-3.86v4.02h-2.34v-4.02h-3.84v-2.24zm16.993 0h3.84v-3.98h2.34v3.98h3.86v2.24h-3.86v4.02h-2.34v-4.02h-3.84v-2.24zm16.992 0h3.84v-3.98h2.34v3.98h3.86v2.24h-3.86v4.02h-2.34v-4.02h-3.84v-2.24zm16.992 0h3.84v-3.98h2.34v3.98h3.86v2.24h-3.86v4.02h-2.34v-4.02h-3.84v-2.24zm16.992 0h3.84v-3.98h2.34v3.98h3.86v2.24h-3.86v4.02h-2.34v-4.02h-3.84v-2.24zm16.992 0h3.84v-3.98h2.34v3.98h3.86v2.24h-3.86v4.02h-2.34v-4.02h-3.84v-2.24zm16.993 0h3.84v-3.98h2.34v3.98h3.859v2.24h-3.859v4.02h-2.34v-4.02h-3.84v-2.24zm16.992 0h3.84v-3.98h2.34v3.98h3.86v2.24h-3.86v4.02h-2.34v-4.02h-3.84v-2.24zm16.992 0h3.84v-3.98h2.34v3.98h3.86v2.24h-3.86v4.02h-2.34v-4.02h-3.84v-2.24zm16.992 0h3.84v-3.98h2.34v3.98h3.86v2.24h-3.86v4.02h-2.34v-4.02h-3.84v-2.24zm16.992 0h3.84v-3.98h2.34v3.98h3.86v2.24h-3.86v4.02h-2.34v-4.02h-3.84v-2.24zm16.992 0h3.84v-3.98h2.34v3.98h3.86v2.24h-3.86v4.02h-2.34v-4.02h-3.84v-2.24zm16.993 0h3.84v-3.98h2.34v3.98h3.86v2.24h-3.86v4.02h-2.34v-4.02h-3.84v-2.24zm16.992 0h3.84v-3.98h2.34v3.98h3.86v2.24h-3.86v4.02h-2.34v-4.02h-3.84v-2.24zm16.992 0h3.84v-3.98h2.34v3.98h3.86v2.24h-3.86v4.02h-2.34v-4.02h-3.84v-2.24zm16.992 0h3.84v-3.98h2.34v3.98h3.86v2.24h-3.86v4.02h-2.34v-4.02h-3.84v-2.24zm16.992 0h3.84v-3.98h2.34v3.98h3.86v2.24h-3.86v4.02h-2.34v-4.02h-3.84v-2.24zm16.993 0h3.84v-3.98h2.34v3.98h3.86v2.24h-3.86v4.02h-2.34v-4.02h-3.84v-2.24zm16.992 0h3.84v-3.98h2.34v3.98h3.86v2.24h-3.86v4.02h-2.34v-4.02h-3.84v-2.24zm16.992 0h3.84v-3.98h2.34v3.98h3.86v2.24h-3.86v4.02h-2.34v-4.02h-3.84v-2.24zm16.992 0h3.84v-3.98h2.34v3.98h3.86v2.24h-3.86v4.02h-2.34v-4.02h-3.84v-2.24zm16.992 0h3.84v-3.98h2.34v3.98h3.86v2.24h-3.86v4.02h-2.34v-4.02h-3.84v-2.24zm16.993 0h3.84v-3.98h2.34v3.98h3.859v2.24h-3.859v4.02h-2.34v-4.02h-3.84v-2.24zm-407.813 24H.82v-3.98h2.34v3.98h3.86v2.24H3.16v4.02H.82v-4.02h-3.84v-2.24zm16.992 0h3.84v-3.98h2.34v3.98h3.86v2.24h-3.86v4.02h-2.34v-4.02h-3.84v-2.24zm16.992 0h3.84v-3.98h2.34v3.98h3.86v2.24h-3.86v4.02h-2.34v-4.02h-3.84v-2.24zm16.993 0h3.84v-3.98h2.34v3.98h3.86v2.24h-3.86v4.02h-2.34v-4.02h-3.84v-2.24zm16.992 0h3.84v-3.98h2.34v3.98h3.86v2.24h-3.86v4.02h-2.34v-4.02h-3.84v-2.24zm16.992 0h3.84v-3.98h2.34v3.98h3.86v2.24h-3.86v4.02h-2.34v-4.02h-3.84v-2.24zm16.992 0h3.84v-3.98h2.34v3.98h3.86v2.24h-3.86v4.02h-2.34v-4.02h-3.84v-2.24zm16.992 0h3.84v-3.98h2.34v3.98h3.86v2.24h-3.86v4.02h-2.34v-4.02h-3.84v-2.24zm16.993 0h3.84v-3.98h2.34v3.98h3.859v2.24h-3.859v4.02h-2.34v-4.02h-3.84v-2.24zm16.992 0h3.84v-3.98h2.34v3.98h3.86v2.24h-3.86v4.02h-2.34v-4.02h-3.84v-2.24zm16.992 0h3.84v-3.98h2.34v3.98h3.86v2.24h-3.86v4.02h-2.34v-4.02h-3.84v-2.24zm16.992 0h3.84v-3.98h2.34v3.98h3.86v2.24h-3.86v4.02h-2.34v-4.02h-3.84v-2.24zm16.992 0h3.84v-3.98h2.34v3.98h3.86v2.24h-3.86v4.02h-2.34v-4.02h-3.84v-2.24zm16.992 0h3.84v-3.98h2.34v3.98h3.86v2.24h-3.86v4.02h-2.34v-4.02h-3.84v-2.24zm16.993 0h3.84v-3.98h2.34v3.98h3.86v2.24h-3.86v4.02h-2.34v-4.02h-3.84v-2.24zm16.992 0h3.84v-3.98h2.34v3.98h3.86v2.24h-3.86v4.02h-2.34v-4.02h-3.84v-2.24zm16.992 0h3.84v-3.98h2.34v3.98h3.86v2.24h-3.86v4.02h-2.34v-4.02h-3.84v-2.24zm16.992 0h3.84v-3.98h2.34v3.98h3.86v2.24h-3.86v4.02h-2.34v-4.02h-3.84v-2.24zm16.992 0h3.84v-3.98h2.34v3.98h3.86v2.24h-3.86v4.02h-2.34v-4.02h-3.84v-2.24zm16.993 0h3.84v-3.98h2.34v3.98h3.86v2.24h-3.86v4.02h-2.34v-4.02h-3.84v-2.24zm16.992 0h3.84v-3.98h2.34v3.98h3.86v2.24h-3.86v4.02h-2.34v-4.02h-3.84v-2.24zm16.992 0h3.84v-3.98h2.34v3.98h3.86v2.24h-3.86v4.02h-2.34v-4.02h-3.84v-2.24zm16.992 0h3.84v-3.98h2.34v3.98h3.86v2.24h-3.86v4.02h-2.34v-4.02h-3.84v-2.24zm16.992 0h3.84v-3.98h2.34v3.98h3.86v2.24h-3.86v4.02h-2.34v-4.02h-3.84v-2.24zm16.993 0h3.84v-3.98h2.34v3.98h3.859v2.24h-3.859v4.02h-2.34v-4.02h-3.84v-2.24zm-407.813 24H.82v-3.98h2.34v3.98h3.86v2.24H3.16v4.02H.82v-4.02h-3.84v-2.24zm16.992 0h3.84v-3.98h2.34v3.98h3.86v2.24h-3.86v4.02h-2.34v-4.02h-3.84v-2.24zm16.992 0h3.84v-3.98h2.34v3.98h3.86v2.24h-3.86v4.02h-2.34v-4.02h-3.84v-2.24zm16.993 0h3.84v-3.98h2.34v3.98h3.86v2.24h-3.86v4.02h-2.34v-4.02h-3.84v-2.24zm16.992 0h3.84v-3.98h2.34v3.98h3.86v2.24h-3.86v4.02h-2.34v-4.02h-3.84v-2.24zm16.992 0h3.84v-3.98h2.34v3.98h3.86v2.24h-3.86v4.02h-2.34v-4.02h-3.84v-2.24zm16.992 0h3.84v-3.98h2.34v3.98h3.86v2.24h-3.86v4.02h-2.34v-4.02h-3.84v-2.24zm16.992 0h3.84v-3.98h2.34v3.98h3.86v2.24h-3.86v4.02h-2.34v-4.02h-3.84v-2.24zm16.993 0h3.84v-3.98h2.34v3.98h3.859v2.24h-3.859v4.02h-2.34v-4.02h-3.84v-2.24zm16.992 0h3.84v-3.98h2.34v3.98h3.86v2.24h-3.86v4.02h-2.34v-4.02h-3.84v-2.24zm16.992 0h3.84v-3.98h2.34v3.98h3.86v2.24h-3.86v4.02h-2.34v-4.02h-3.84v-2.24zm16.992 0h3.84v-3.98h2.34v3.98h3.86v2.24h-3.86v4.02h-2.34v-4.02h-3.84v-2.24zm16.992 0h3.84v-3.98h2.34v3.98h3.86v2.24h-3.86v4.02h-2.34v-4.02h-3.84v-2.24zm16.992 0h3.84v-3.98h2.34v3.98h3.86v2.24h-3.86v4.02h-2.34v-4.02h-3.84v-2.24zm16.993 0h3.84v-3.98h2.34v3.98h3.86v2.24h-3.86v4.02h-2.34v-4.02h-3.84v-2.24zm16.992 0h3.84v-3.98h2.34v3.98h3.86v2.24h-3.86v4.02h-2.34v-4.02h-3.84v-2.24zm16.992 0h3.84v-3.98h2.34v3.98h3.86v2.24h-3.86v4.02h-2.34v-4.02h-3.84v-2.24zm16.992 0h3.84v-3.98h2.34v3.98h3.86v2.24h-3.86v4.02h-2.34v-4.02h-3.84v-2.24zm16.992 0h3.84v-3.98h2.34v3.98h3.86v2.24h-3.86v4.02h-2.34v-4.02h-3.84v-2.24zm16.993 0h3.84v-3.98h2.34v3.98h3.86v2.24h-3.86v4.02h-2.34v-4.02h-3.84v-2.24zm16.992 0h3.84v-3.98h2.34v3.98h3.86v2.24h-3.86v4.02h-2.34v-4.02h-3.84v-2.24zm16.992 0h3.84v-3.98h2.34v3.98h3.86v2.24h-3.86v4.02h-2.34v-4.02h-3.84v-2.24zm16.992 0h3.84v-3.98h2.34v3.98h3.86v2.24h-3.86v4.02h-2.34v-4.02h-3.84v-2.24zm16.992 0h3.84v-3.98h2.34v3.98h3.86v2.24h-3.86v4.02h-2.34v-4.02h-3.84v-2.24zm16.993 0h3.84v-3.98h2.34v3.98h3.859v2.24h-3.859v4.02h-2.34v-4.02h-3.84v-2.24zm-407.813 24H.82v-3.98h2.34v3.98h3.86v2.24H3.16v4.02H.82v-4.02h-3.84v-2.24zm16.992 0h3.84v-3.98h2.34v3.98h3.86v2.24h-3.86v4.02h-2.34v-4.02h-3.84v-2.24zm16.992 0h3.84v-3.98h2.34v3.98h3.86v2.24h-3.86v4.02h-2.34v-4.02h-3.84v-2.24zm16.993 0h3.84v-3.98h2.34v3.98h3.86v2.24h-3.86v4.02h-2.34v-4.02h-3.84v-2.24zm16.992 0h3.84v-3.98h2.34v3.98h3.86v2.24h-3.86v4.02h-2.34v-4.02h-3.84v-2.24zm16.992 0h3.84v-3.98h2.34v3.98h3.86v2.24h-3.86v4.02h-2.34v-4.02h-3.84v-2.24zm16.992 0h3.84v-3.98h2.34v3.98h3.86v2.24h-3.86v4.02h-2.34v-4.02h-3.84v-2.24zm16.992 0h3.84v-3.98h2.34v3.98h3.86v2.24h-3.86v4.02h-2.34v-4.02h-3.84v-2.24zm16.993 0h3.84v-3.98h2.34v3.98h3.859v2.24h-3.859v4.02h-2.34v-4.02h-3.84v-2.24zm16.992 0h3.84v-3.98h2.34v3.98h3.86v2.24h-3.86v4.02h-2.34v-4.02h-3.84v-2.24zm16.992 0h3.84v-3.98h2.34v3.98h3.86v2.24h-3.86v4.02h-2.34v-4.02h-3.84v-2.24zm16.992 0h3.84v-3.98h2.34v3.98h3.86v2.24h-3.86v4.02h-2.34v-4.02h-3.84v-2.24zm16.992 0h3.84v-3.98h2.34v3.98h3.86v2.24h-3.86v4.02h-2.34v-4.02h-3.84v-2.24zm16.992 0h3.84v-3.98h2.34v3.98h3.86v2.24h-3.86v4.02h-2.34v-4.02h-3.84v-2.24zm16.993 0h3.84v-3.98h2.34v3.98h3.86v2.24h-3.86v4.02h-2.34v-4.02h-3.84v-2.24zm16.992 0h3.84v-3.98h2.34v3.98h3.86v2.24h-3.86v4.02h-2.34v-4.02h-3.84v-2.24zm16.992 0h3.84v-3.98h2.34v3.98h3.86v2.24h-3.86v4.02h-2.34v-4.02h-3.84v-2.24zm16.992 0h3.84v-3.98h2.34v3.98h3.86v2.24h-3.86v4.02h-2.34v-4.02h-3.84v-2.24zm16.992 0h3.84v-3.98h2.34v3.98h3.86v2.24h-3.86v4.02h-2.34v-4.02h-3.84v-2.24zm16.993 0h3.84v-3.98h2.34v3.98h3.86v2.24h-3.86v4.02h-2.34v-4.02h-3.84v-2.24zm16.992 0h3.84v-3.98h2.34v3.98h3.86v2.24h-3.86v4.02h-2.34v-4.02h-3.84v-2.24zm16.992 0h3.84v-3.98h2.34v3.98h3.86v2.24h-3.86v4.02h-2.34v-4.02h-3.84v-2.24zm16.992 0h3.84v-3.98h2.34v3.98h3.86v2.24h-3.86v4.02h-2.34v-4.02h-3.84v-2.24zm16.992 0h3.84v-3.98h2.34v3.98h3.86v2.24h-3.86v4.02h-2.34v-4.02h-3.84v-2.24zm16.993 0h3.84v-3.98h2.34v3.98h3.859v2.24h-3.859v4.02h-2.34v-4.02h-3.84v-2.24zm-407.813 24H.82v-3.98h2.34v3.98h3.86v2.24H3.16v4.02H.82v-4.02h-3.84v-2.24zm16.992 0h3.84v-3.98h2.34v3.98h3.86v2.24h-3.86v4.02h-2.34v-4.02h-3.84v-2.24zm16.992 0h3.84v-3.98h2.34v3.98h3.86v2.24h-3.86v4.02h-2.34v-4.02h-3.84v-2.24zm16.993 0h3.84v-3.98h2.34v3.98h3.86v2.24h-3.86v4.02h-2.34v-4.02h-3.84v-2.24zm16.992 0h3.84v-3.98h2.34v3.98h3.86v2.24h-3.86v4.02h-2.34v-4.02h-3.84v-2.24zm16.992 0h3.84v-3.98h2.34v3.98h3.86v2.24h-3.86v4.02h-2.34v-4.02h-3.84v-2.24zm16.992 0h3.84v-3.98h2.34v3.98h3.86v2.24h-3.86v4.02h-2.34v-4.02h-3.84v-2.24zm16.992 0h3.84v-3.98h2.34v3.98h3.86v2.24h-3.86v4.02h-2.34v-4.02h-3.84v-2.24zm16.993 0h3.84v-3.98h2.34v3.98h3.859v2.24h-3.859v4.02h-2.34v-4.02h-3.84v-2.24zm16.992 0h3.84v-3.98h2.34v3.98h3.86v2.24h-3.86v4.02h-2.34v-4.02h-3.84v-2.24zm16.992 0h3.84v-3.98h2.34v3.98h3.86v2.24h-3.86v4.02h-2.34v-4.02h-3.84v-2.24zm16.992 0h3.84v-3.98h2.34v3.98h3.86v2.24h-3.86v4.02h-2.34v-4.02h-3.84v-2.24zm16.992 0h3.84v-3.98h2.34v3.98h3.86v2.24h-3.86v4.02h-2.34v-4.02h-3.84v-2.24zm16.992 0h3.84v-3.98h2.34v3.98h3.86v2.24h-3.86v4.02h-2.34v-4.02h-3.84v-2.24zm16.993 0h3.84v-3.98h2.34v3.98h3.86v2.24h-3.86v4.02h-2.34v-4.02h-3.84v-2.24zm16.992 0h3.84v-3.98h2.34v3.98h3.86v2.24h-3.86v4.02h-2.34v-4.02h-3.84v-2.24zm16.992 0h3.84v-3.98h2.34v3.98h3.86v2.24h-3.86v4.02h-2.34v-4.02h-3.84v-2.24zm16.992 0h3.84v-3.98h2.34v3.98h3.86v2.24h-3.86v4.02h-2.34v-4.02h-3.84v-2.24zm16.992 0h3.84v-3.98h2.34v3.98h3.86v2.24h-3.86v4.02h-2.34v-4.02h-3.84v-2.24zm16.993 0h3.84v-3.98h2.34v3.98h3.86v2.24h-3.86v4.02h-2.34v-4.02h-3.84v-2.24zm16.992 0h3.84v-3.98h2.34v3.98h3.86v2.24h-3.86v4.02h-2.34v-4.02h-3.84v-2.24zm16.992 0h3.84v-3.98h2.34v3.98h3.86v2.24h-3.86v4.02h-2.34v-4.02h-3.84v-2.24zm16.992 0h3.84v-3.98h2.34v3.98h3.86v2.24h-3.86v4.02h-2.34v-4.02h-3.84v-2.24zm16.992 0h3.84v-3.98h2.34v3.98h3.86v2.24h-3.86v4.02h-2.34v-4.02h-3.84v-2.24zm16.993 0h3.84v-3.98h2.34v3.98h3.859v2.24h-3.859v4.02h-2.34v-4.02h-3.84v-2.24zm-407.813 24H.82v-3.98h2.34v3.98h3.86v2.24H3.16v4.02H.82v-4.02h-3.84v-2.24zm16.992 0h3.84v-3.98h2.34v3.98h3.86v2.24h-3.86v4.02h-2.34v-4.02h-3.84v-2.24zm16.992 0h3.84v-3.98h2.34v3.98h3.86v2.24h-3.86v4.02h-2.34v-4.02h-3.84v-2.24zm16.993 0h3.84v-3.98h2.34v3.98h3.86v2.24h-3.86v4.02h-2.34v-4.02h-3.84v-2.24zm16.992 0h3.84v-3.98h2.34v3.98h3.86v2.24h-3.86v4.02h-2.34v-4.02h-3.84v-2.24zm16.992 0h3.84v-3.98h2.34v3.98h3.86v2.24h-3.86v4.02h-2.34v-4.02h-3.84v-2.24zm16.992 0h3.84v-3.98h2.34v3.98h3.86v2.24h-3.86v4.02h-2.34v-4.02h-3.84v-2.24zm16.992 0h3.84v-3.98h2.34v3.98h3.86v2.24h-3.86v4.02h-2.34v-4.02h-3.84v-2.24zm16.993 0h3.84v-3.98h2.34v3.98h3.859v2.24h-3.859v4.02h-2.34v-4.02h-3.84v-2.24zm16.992 0h3.84v-3.98h2.34v3.98h3.86v2.24h-3.86v4.02h-2.34v-4.02h-3.84v-2.24zm16.992 0h3.84v-3.98h2.34v3.98h3.86v2.24h-3.86v4.02h-2.34v-4.02h-3.84v-2.24zm16.992 0h3.84v-3.98h2.34v3.98h3.86v2.24h-3.86v4.02h-2.34v-4.02h-3.84v-2.24zm16.992 0h3.84v-3.98h2.34v3.98h3.86v2.24h-3.86v4.02h-2.34v-4.02h-3.84v-2.24zm16.992 0h3.84v-3.98h2.34v3.98h3.86v2.24h-3.86v4.02h-2.34v-4.02h-3.84v-2.24zm16.993 0h3.84v-3.98h2.34v3.98h3.86v2.24h-3.86v4.02h-2.34v-4.02h-3.84v-2.24zm16.992 0h3.84v-3.98h2.34v3.98h3.86v2.24h-3.86v4.02h-2.34v-4.02h-3.84v-2.24zm16.992 0h3.84v-3.98h2.34v3.98h3.86v2.24h-3.86v4.02h-2.34v-4.02h-3.84v-2.24zm16.992 0h3.84v-3.98h2.34v3.98h3.86v2.24h-3.86v4.02h-2.34v-4.02h-3.84v-2.24zm16.992 0h3.84v-3.98h2.34v3.98h3.86v2.24h-3.86v4.02h-2.34v-4.02h-3.84v-2.24zm16.993 0h3.84v-3.98h2.34v3.98h3.86v2.24h-3.86v4.02h-2.34v-4.02h-3.84v-2.24zm16.992 0h3.84v-3.98h2.34v3.98h3.86v2.24h-3.86v4.02h-2.34v-4.02h-3.84v-2.24zm16.992 0h3.84v-3.98h2.34v3.98h3.86v2.24h-3.86v4.02h-2.34v-4.02h-3.84v-2.24zm16.992 0h3.84v-3.98h2.34v3.98h3.86v2.24h-3.86v4.02h-2.34v-4.02h-3.84v-2.24zm16.992 0h3.84v-3.98h2.34v3.98h3.86v2.24h-3.86v4.02h-2.34v-4.02h-3.84v-2.24zm16.993 0h3.84v-3.98h2.34v3.98h3.859v2.24h-3.859v4.02h-2.34v-4.02h-3.84v-2.24zm-407.813 24H.82v-3.98h2.34v3.98h3.86v2.24H3.16v4.02H.82v-4.02h-3.84v-2.24zm16.992 0h3.84v-3.98h2.34v3.98h3.86v2.24h-3.86v4.02h-2.34v-4.02h-3.84v-2.24zm16.992 0h3.84v-3.98h2.34v3.98h3.86v2.24h-3.86v4.02h-2.34v-4.02h-3.84v-2.24zm16.993 0h3.84v-3.98h2.34v3.98h3.86v2.24h-3.86v4.02h-2.34v-4.02h-3.84v-2.24zm16.992 0h3.84v-3.98h2.34v3.98h3.86v2.24h-3.86v4.02h-2.34v-4.02h-3.84v-2.24zm16.992 0h3.84v-3.98h2.34v3.98h3.86v2.24h-3.86v4.02h-2.34v-4.02h-3.84v-2.24zm16.992 0h3.84v-3.98h2.34v3.98h3.86v2.24h-3.86v4.02h-2.34v-4.02h-3.84v-2.24zm16.992 0h3.84v-3.98h2.34v3.98h3.86v2.24h-3.86v4.02h-2.34v-4.02h-3.84v-2.24zm16.993 0h3.84v-3.98h2.34v3.98h3.859v2.24h-3.859v4.02h-2.34v-4.02h-3.84v-2.24zm16.992 0h3.84v-3.98h2.34v3.98h3.86v2.24h-3.86v4.02h-2.34v-4.02h-3.84v-2.24zm16.992 0h3.84v-3.98h2.34v3.98h3.86v2.24h-3.86v4.02h-2.34v-4.02h-3.84v-2.24zm16.992 0h3.84v-3.98h2.34v3.98h3.86v2.24h-3.86v4.02h-2.34v-4.02h-3.84v-2.24zm16.992 0h3.84v-3.98h2.34v3.98h3.86v2.24h-3.86v4.02h-2.34v-4.02h-3.84v-2.24zm16.992 0h3.84v-3.98h2.34v3.98h3.86v2.24h-3.86v4.02h-2.34v-4.02h-3.84v-2.24zm16.993 0h3.84v-3.98h2.34v3.98h3.86v2.24h-3.86v4.02h-2.34v-4.02h-3.84v-2.24zm16.992 0h3.84v-3.98h2.34v3.98h3.86v2.24h-3.86v4.02h-2.34v-4.02h-3.84v-2.24zm16.992 0h3.84v-3.98h2.34v3.98h3.86v2.24h-3.86v4.02h-2.34v-4.02h-3.84v-2.24zm16.992 0h3.84v-3.98h2.34v3.98h3.86v2.24h-3.86v4.02h-2.34v-4.02h-3.84v-2.24zm16.992 0h3.84v-3.98h2.34v3.98h3.86v2.24h-3.86v4.02h-2.34v-4.02h-3.84v-2.24zm16.993 0h3.84v-3.98h2.34v3.98h3.86v2.24h-3.86v4.02h-2.34v-4.02h-3.84v-2.24zm16.992 0h3.84v-3.98h2.34v3.98h3.86v2.24h-3.86v4.02h-2.34v-4.02h-3.84v-2.24zm16.992 0h3.84v-3.98h2.34v3.98h3.86v2.24h-3.86v4.02h-2.34v-4.02h-3.84v-2.24zm16.992 0h3.84v-3.98h2.34v3.98h3.86v2.24h-3.86v4.02h-2.34v-4.02h-3.84v-2.24zm16.992 0h3.84v-3.98h2.34v3.98h3.86v2.24h-3.86v4.02h-2.34v-4.02h-3.84v-2.24zm16.993 0h3.84v-3.98h2.34v3.98h3.859v2.24h-3.859v4.02h-2.34v-4.02h-3.84v-2.24zm-407.813 24H.82v-3.98h2.34v3.98h3.86v2.24H3.16v4.02H.82v-4.02h-3.84v-2.24zm16.992 0h3.84v-3.98h2.34v3.98h3.86v2.24h-3.86v4.02h-2.34v-4.02h-3.84v-2.24zm16.992 0h3.84v-3.98h2.34v3.98h3.86v2.24h-3.86v4.02h-2.34v-4.02h-3.84v-2.24zm16.993 0h3.84v-3.98h2.34v3.98h3.86v2.24h-3.86v4.02h-2.34v-4.02h-3.84v-2.24zm16.992 0h3.84v-3.98h2.34v3.98h3.86v2.24h-3.86v4.02h-2.34v-4.02h-3.84v-2.24zm16.992 0h3.84v-3.98h2.34v3.98h3.86v2.24h-3.86v4.02h-2.34v-4.02h-3.84v-2.24zm16.992 0h3.84v-3.98h2.34v3.98h3.86v2.24h-3.86v4.02h-2.34v-4.02h-3.84v-2.24zm16.992 0h3.84v-3.98h2.34v3.98h3.86v2.24h-3.86v4.02h-2.34v-4.02h-3.84v-2.24zm16.993 0h3.84v-3.98h2.34v3.98h3.859v2.24h-3.859v4.02h-2.34v-4.02h-3.84v-2.24zm16.992 0h3.84v-3.98h2.34v3.98h3.86v2.24h-3.86v4.02h-2.34v-4.02h-3.84v-2.24zm16.992 0h3.84v-3.98h2.34v3.98h3.86v2.24h-3.86v4.02h-2.34v-4.02h-3.84v-2.24zm16.992 0h3.84v-3.98h2.34v3.98h3.86v2.24h-3.86v4.02h-2.34v-4.02h-3.84v-2.24zm16.992 0h3.84v-3.98h2.34v3.98h3.86v2.24h-3.86v4.02h-2.34v-4.02h-3.84v-2.24zm16.992 0h3.84v-3.98h2.34v3.98h3.86v2.24h-3.86v4.02h-2.34v-4.02h-3.84v-2.24zm16.993 0h3.84v-3.98h2.34v3.98h3.86v2.24h-3.86v4.02h-2.34v-4.02h-3.84v-2.24zm16.992 0h3.84v-3.98h2.34v3.98h3.86v2.24h-3.86v4.02h-2.34v-4.02h-3.84v-2.24zm16.992 0h3.84v-3.98h2.34v3.98h3.86v2.24h-3.86v4.02h-2.34v-4.02h-3.84v-2.24zm16.992 0h3.84v-3.98h2.34v3.98h3.86v2.24h-3.86v4.02h-2.34v-4.02h-3.84v-2.24zm16.992 0h3.84v-3.98h2.34v3.98h3.86v2.24h-3.86v4.02h-2.34v-4.02h-3.84v-2.24zm16.993 0h3.84v-3.98h2.34v3.98h3.86v2.24h-3.86v4.02h-2.34v-4.02h-3.84v-2.24zm16.992 0h3.84v-3.98h2.34v3.98h3.86v2.24h-3.86v4.02h-2.34v-4.02h-3.84v-2.24zm16.992 0h3.84v-3.98h2.34v3.98h3.86v2.24h-3.86v4.02h-2.34v-4.02h-3.84v-2.24zm16.992 0h3.84v-3.98h2.34v3.98h3.86v2.24h-3.86v4.02h-2.34v-4.02h-3.84v-2.24zm16.992 0h3.84v-3.98h2.34v3.98h3.86v2.24h-3.86v4.02h-2.34v-4.02h-3.84v-2.24zm16.993 0h3.84v-3.98h2.34v3.98h3.859v2.24h-3.859v4.02h-2.34v-4.02h-3.84v-2.24zm-407.813 24H.82v-3.98h2.34v3.98h3.86v2.24H3.16v4.02H.82v-4.02h-3.84v-2.24zm16.992 0h3.84v-3.98h2.34v3.98h3.86v2.24h-3.86v4.02h-2.34v-4.02h-3.84v-2.24zm16.992 0h3.84v-3.98h2.34v3.98h3.86v2.24h-3.86v4.02h-2.34v-4.02h-3.84v-2.24zm16.993 0h3.84v-3.98h2.34v3.98h3.86v2.24h-3.86v4.02h-2.34v-4.02h-3.84v-2.24zm16.992 0h3.84v-3.98h2.34v3.98h3.86v2.24h-3.86v4.02h-2.34v-4.02h-3.84v-2.24zm16.992 0h3.84v-3.98h2.34v3.98h3.86v2.24h-3.86v4.02h-2.34v-4.02h-3.84v-2.24zm16.992 0h3.84v-3.98h2.34v3.98h3.86v2.24h-3.86v4.02h-2.34v-4.02h-3.84v-2.24zm16.992 0h3.84v-3.98h2.34v3.98h3.86v2.24h-3.86v4.02h-2.34v-4.02h-3.84v-2.24zm16.993 0h3.84v-3.98h2.34v3.98h3.859v2.24h-3.859v4.02h-2.34v-4.02h-3.84v-2.24zm16.992 0h3.84v-3.98h2.34v3.98h3.86v2.24h-3.86v4.02h-2.34v-4.02h-3.84v-2.24zm16.992 0h3.84v-3.98h2.34v3.98h3.86v2.24h-3.86v4.02h-2.34v-4.02h-3.84v-2.24zm16.992 0h3.84v-3.98h2.34v3.98h3.86v2.24h-3.86v4.02h-2.34v-4.02h-3.84v-2.24zm16.992 0h3.84v-3.98h2.34v3.98h3.86v2.24h-3.86v4.02h-2.34v-4.02h-3.84v-2.24zm16.992 0h3.84v-3.98h2.34v3.98h3.86v2.24h-3.86v4.02h-2.34v-4.02h-3.84v-2.24zm16.993 0h3.84v-3.98h2.34v3.98h3.86v2.24h-3.86v4.02h-2.34v-4.02h-3.84v-2.24zm16.992 0h3.84v-3.98h2.34v3.98h3.86v2.24h-3.86v4.02h-2.34v-4.02h-3.84v-2.24zm16.992 0h3.84v-3.98h2.34v3.98h3.86v2.24h-3.86v4.02h-2.34v-4.02h-3.84v-2.24zm16.992 0h3.84v-3.98h2.34v3.98h3.86v2.24h-3.86v4.02h-2.34v-4.02h-3.84v-2.24zm16.992 0h3.84v-3.98h2.34v3.98h3.86v2.24h-3.86v4.02h-2.34v-4.02h-3.84v-2.24zm16.993 0h3.84v-3.98h2.34v3.98h3.86v2.24h-3.86v4.02h-2.34v-4.02h-3.84v-2.24zm16.992 0h3.84v-3.98h2.34v3.98h3.86v2.24h-3.86v4.02h-2.34v-4.02h-3.84v-2.24zm16.992 0h3.84v-3.98h2.34v3.98h3.86v2.24h-3.86v4.02h-2.34v-4.02h-3.84v-2.24zm16.992 0h3.84v-3.98h2.34v3.98h3.86v2.24h-3.86v4.02h-2.34v-4.02h-3.84v-2.24zm16.992 0h3.84v-3.98h2.34v3.98h3.86v2.24h-3.86v4.02h-2.34v-4.02h-3.84v-2.24zm16.993 0h3.84v-3.98h2.34v3.98h3.859v2.24h-3.859v4.02h-2.34v-4.02h-3.84v-2.24z" fill="#F7F7F7"/></svg>