<svg width="40" height="40" fill="none" xmlns="http://www.w3.org/2000/svg"><path d="M20 0C8.972 0 0 8.972 0 20s8.972 20 20 20 20-8.972 20-20S31.028 0 20 0zm0 37.656c-9.736 0-17.656-7.92-17.656-17.656 0-9.736 7.92-17.656 17.656-17.656 9.736 0 17.656 7.92 17.656 17.656 0 9.736-7.92 17.656-17.656 17.656z" fill="#000"/><path d="M15.226 16.25a1.172 1.172 0 002.217-.76 5.117 5.117 0 00-9.684.004 1.172 1.172 0 002.218.758 2.773 2.773 0 015.249-.002zm12.18-4.219a5.117 5.117 0 00-4.843 3.463 1.172 1.172 0 002.218.758 2.773 2.773 0 015.249-.002 1.172 1.172 0 002.217-.759 5.117 5.117 0 00-4.841-3.46zm.241 12.861a1.172 1.172 0 00-1.607.407A7.064 7.064 0 0120 28.73a7.066 7.066 0 01-6.031-3.418 1.172 1.172 0 00-2.011 1.205A9.422 9.422 0 0020 31.075a9.418 9.418 0 008.054-4.577 1.172 1.172 0 00-.407-1.606z" fill="#000"/></svg>