<svg width="40" height="40" fill="none" xmlns="http://www.w3.org/2000/svg"><path d="M20 0C8.972 0 0 8.972 0 20s8.972 20 20 20 20-8.972 20-20S31.028 0 20 0zm0 37.656c-9.736 0-17.656-7.92-17.656-17.656 0-9.736 7.92-17.656 17.656-17.656 9.736 0 17.656 7.92 17.656 17.656 0 9.736-7.92 17.656-17.656 17.656z" fill="#000"/><path d="M16.008 16.096l.472.127a1.17 1.17 0 001.436-.828 1.172 1.172 0 00-.828-1.436l-8.98-2.411a1.172 1.172 0 00-.607 2.264l.735.197a4.028 4.028 0 003.885 5.067 4.031 4.031 0 003.887-2.98zm-4.322.578a1.682 1.682 0 01-1.186-2.057l3.244.87a1.682 1.682 0 01-2.058 1.187zm21.641-4.298a1.172 1.172 0 00-1.436-.828l-8.979 2.41a1.172 1.172 0 00.608 2.264l.472-.126a4.03 4.03 0 004.93 2.842 4.028 4.028 0 002.842-4.93l.735-.197c.625-.168.995-.81.828-1.435zm-5.013 4.299a1.682 1.682 0 01-2.058-1.187l3.244-.871a1.682 1.682 0 01-1.186 2.058zM20 24.531a9.422 9.422 0 00-8.042 4.557 1.172 1.172 0 002.01 1.204A7.066 7.066 0 0120 26.876a7.064 7.064 0 016.04 3.432 1.171 1.171 0 102.014-1.2A9.419 9.419 0 0020 24.532z" fill="#000"/></svg>