<svg width="70" height="70" fill="none" xmlns="http://www.w3.org/2000/svg"><path d="M60.694 23.93v-4.96a4.93 4.93 0 004.197-4.87 4.932 4.932 0 00-4.923-4.93 4.924 4.924 0 00-4.003 2.063H43.646v-.212c0-1.696-1.17-3.132-2.781-3.416-.91-.16-1.837.06-2.567.593a3.37 3.37 0 00-3.293-2.682 3.363 3.363 0 00-3.211 2.345 3.35 3.35 0 00-2.069-.712 3.354 3.354 0 00-3.248 2.508 3.352 3.352 0 00-2.024-.677 3.32 3.32 0 00-3.166 2.253h-7.252a4.913 4.913 0 00-3.996-2.062 4.935 4.935 0 00-4.93 4.93 4.933 4.933 0 004.198 4.87v4.974L.065 43.841c-.024.103-.04.023-.065.36.03 5.512 4.518 9.988 10.032 9.988 5.519 0 10.01-4.476 10.04-9.988-.012-.074.04-.001-.066-.36l-9.24-19.909V18.97a4.919 4.919 0 003.265-1.998h7.053v11.354c0 2.58.973 5.005 2.732 6.877v2.378a1.76 1.76 0 00-1.054 1.608v24.566c0 .403.326.73.729.73h18.254a.729.729 0 00.73-.73V39.19a1.76 1.76 0 00-1.053-1.609v-2.355l6.29-6.29a4.084 4.084 0 001.206-2.906v-9.06h7.05a4.928 4.928 0 003.266 1.997v4.977l-9.246 19.91c-.065.146-.051.272-.06.345.03 5.513 4.518 9.988 10.033 9.988 5.518 0 10.008-4.475 10.038-9.987-.012-.145.025-.06-.065-.361l-9.24-19.91zm-50.662 28.8c-4.484 0-8.175-3.46-8.546-7.854h17.099c-.37 4.393-4.065 7.854-8.553 7.854zm8.17-9.312H1.87l8.17-17.587 8.163 17.587zm-8.16-25.847l-.006-.002-.004.001a3.475 3.475 0 01-3.464-3.47 3.475 3.475 0 013.471-3.471 3.472 3.472 0 01.003 6.942zm11.042-2.058h-6.332a4.886 4.886 0 00.002-2.822h6.33v2.822zm17.283-4.594c0-1.201 1.097-2.08 2.243-1.878.915.16 1.578.994 1.578 1.98v4.491h-3.82c-.002-1.702.006-4.285-.007-4.566 0-.01.006-.017.006-.027zm-5.273-2.034c0-.995.794-1.911 1.91-1.911a1.91 1.91 0 011.905 1.91l.001 6.628h-.31a.729.729 0 00-.728.73 5.8 5.8 0 00.362 2.005c-.35.293-.777.46-1.229.46a1.913 1.913 0 01-1.91-1.91V8.884zm-5.272 1.633c0-1.09.881-1.91 1.903-1.91 1.053 0 1.91.856 1.91 1.91v7.912c0 1-.798 1.91-1.91 1.91a1.909 1.909 0 01-1.903-1.91v-7.912zm-5.28 1.83c0-1.015.81-1.91 1.911-1.91 1.054 0 1.911.856 1.911 1.91v4.047a1.913 1.913 0 01-2.244 1.878c-.913-.161-1.577-.994-1.577-1.98v-3.945zm18.475 50.678H24.22V39.19c0-.166.137-.301.306-.301h16.189c.166 0 .301.135.301.301v23.837zM25.275 37.427v-1.773h14.69l-.001 1.773h-14.69zM47.46 26.03c0 .707-.276 1.374-.778 1.876l-6.29 6.289H24.856a8.543 8.543 0 01-2.312-5.869v-9.182c.389.276.832.48 1.324.566a3.354 3.354 0 002.567-.593 3.37 3.37 0 003.291 2.683c1.54 0 2.778-1 3.21-2.347a3.35 3.35 0 003.98.11 5.83 5.83 0 004.79 2.513h.48v3.147a.729.729 0 101.458 0v-3.876a.729.729 0 00-.729-.73h-1.21a4.383 4.383 0 01-4.314-3.645h10.07v9.058zm7.626-10.516h-11.44V12.69h11.6a4.88 4.88 0 000 2.822h-.16zm1.41-1.413a3.475 3.475 0 013.472-3.471 3.472 3.472 0 01.002 6.942l-.006-.002-.003.001a3.475 3.475 0 01-3.464-3.47zm3.472 11.731l8.163 17.587H51.798l8.17-17.587zm-.006 26.9c-4.485 0-8.176-3.462-8.547-7.855h17.098c-.37 4.393-4.064 7.854-8.551 7.854z" fill="#000"/></svg>