<svg width="60" height="60" fill="none" xmlns="http://www.w3.org/2000/svg"><path d="M56.245 22.395l.343-.343c4.542-4.543 4.542-11.934 0-16.477-4.544-4.543-11.935-4.543-16.478 0l-3.09 3.091c-1.075-.816-2.376-1.275-3.68-1.278-.992-.002-2.494 0-4.234.003l-2.94.003a6.695 6.695 0 00-4.76 1.974L2.101 28.674A7.126 7.126 0 000 33.746c0 1.916.746 3.718 2.1 5.072l6.015 6.015a7.15 7.15 0 005.072 2.097 7.15 7.15 0 005.072-2.097l12.024-12.024a14.72 14.72 0 001.721 6.374l-4.19 4.19c-.532.533-.529.97-.518 2.267v.07l-.143-.003c-1.422-.021-1.717.003-2.566.885-.093.097-.2.209-.33.338-.532.533-.529.97-.519 2.268v.072l-.073-.001c-1.296-.01-1.733-.014-2.266.52l-.24.238c-1.521 1.515-1.61 1.752-1.593 4.235.002.275.004.584.004.933 0 .705.274 1.367.772 1.865s1.16.772 1.865.772h2.243a3.2 3.2 0 002.279-.944l3.634-3.634 7.856-7.856c4.51 2.393 9.806 2.308 14.3-.26C57.202 42.46 60 37.644 60 32.256c0-3.78-1.42-7.236-3.755-9.86zm-25.82 7.787L17.015 43.59a5.422 5.422 0 01-7.658 0l-6.014-6.015a5.38 5.38 0 01-1.586-3.829 5.38 5.38 0 011.586-3.829L22.65 10.611a4.948 4.948 0 013.518-1.459c.99 0 1.992-.002 2.942-.004 1.738-.002 3.239-.004 4.227-.002.88.002 1.72.291 2.43.776l-1.292 1.292a2.64 2.64 0 00-3.772 2.38 2.64 2.64 0 002.637 2.637 2.64 2.64 0 002.378-3.774l1.292-1.293a4.34 4.34 0 01.778 2.432c.003 1.354-.005 2.5-.006 2.51a.88.88 0 00.873.886h.006a.88.88 0 00.88-.873c0-.011.007-1.164.004-2.527-.003-1.302-.463-2.605-1.281-3.682l3.09-3.092c3.857-3.857 10.133-3.857 13.99 0a9.828 9.828 0 012.898 6.996 9.829 9.829 0 01-2.898 6.996l-.343.343a14.793 14.793 0 00-9.854-3.75c-5.389 0-10.204 2.796-12.883 7.481a15.03 15.03 0 00-1.84 5.297zm3.794-16.588a.88.88 0 01-1.758 0 .88.88 0 011.497-.624l.002.003.004.003a.876.876 0 01.255.618zm17.427 30.018c-4.139 2.366-9.048 2.343-13.132-.063a.88.88 0 00-.974.055c-.05.038-.05.038-8.42 8.407l-3.632 3.632-.002.002c-.277.277-.645.43-1.036.43h-1.879l13.315-13.316a.879.879 0 10-1.243-1.243L21.327 54.832c0-.209-.002-.404-.003-.583-.007-.99-.011-1.535.1-1.835.096-.259.353-.52.976-1.141l.234-.233c.156-.02.559-.017 1.017-.013.268.002.588.004.97.004a.879.879 0 00.88-.879c0-.382-.003-.7-.005-.968-.003-.46-.007-.864.014-1.02.134-.135.247-.252.345-.354.134-.14.287-.299.332-.325.095-.033.505-.027.94-.02.28.004.627.009 1.052.009a.879.879 0 00.879-.879c0-.383-.003-.702-.005-.97-.003-.459-.007-.862.014-1.018l4.65-4.651a.878.878 0 00.136-1.067c-2.405-4.086-2.429-8.995-.063-13.133 2.361-4.13 6.607-6.596 11.356-6.596a13.04 13.04 0 018.611 3.238l-4.048 4.05a2.64 2.64 0 00-3.772 2.38 2.64 2.64 0 002.637 2.637 2.64 2.64 0 002.379-3.774L55 23.641a13.04 13.04 0 013.242 8.615c0 4.75-2.466 8.995-6.596 11.356zm-2.193-14.784a.88.88 0 01-1.758 0 .88.88 0 011.497-.624l.003.003.003.003a.876.876 0 01.255.618z" fill="#000"/><path d="M45.147 22.676c-5.283 0-9.58 4.297-9.58 9.58 0 1.917.566 3.768 1.638 5.354a.878.878 0 101.456-.985 7.772 7.772 0 01-1.337-4.37c0-4.312 3.51-7.821 7.823-7.821a.879.879 0 100-1.758zm8.7 8.701a.879.879 0 00-.879.879c0 4.313-3.509 7.822-7.822 7.822a7.777 7.777 0 01-4.296-1.289.88.88 0 00-.969 1.467 9.53 9.53 0 005.265 1.58c5.283 0 9.58-4.298 9.58-9.58a.879.879 0 00-.879-.879z" fill="#000"/></svg>