<svg width="70" height="70" fill="none" xmlns="http://www.w3.org/2000/svg"><path d="M34.424 70c9.11 0 18.288-5.717 19.41-17.408.9-9.347-7.055-13.952-5.551-21.478.136-.68-.667-1.146-1.192-.698-1.477 1.263-2.425 2.991-2.836 5.16-1.115-5.716 3.275-12.739-2.091-18.007-.474-.47-1.286-.1-1.242.57.23 3.48.223 6.027-1.69 7.571 1.153-9.29-10.648-15.898-4.577-24.553.475-.677-.369-1.496-1.031-1.01-11.02 8.108-2.782 21.137-3.33 31.838-1.3-3.433-2.726-6.914-5.706-9.37-.643-.53-1.59.33-1.276 1.014 4.463 9.771-6.867 17.534-7.14 27.639C15.181 62.824 24.021 70 34.423 70zm4.245-1.924c-1.04.228-2.1.369-3.163.427-2.929-.034-5.825-1.187-7.673-3.2-1.23-1.342-2.42-3.515-1.905-6.685.837 1.526 2.216 2.894 3.555 3.072.727.096 2.05-.068 2.756-2.26.134-2.868-.924-5.149-1.888-6.993-1.078-2.063-2.043-3.908-1.332-6.634.701 2.464 2.456 4.463 4.11 6.411a.73.73 0 001 .11c.06-.073.62-.323.428-.933-1.79-5.675-.965-11.233 2.371-16.271-.685 4.694 1.791 8.75 4.203 12.701 2.608 4.273 5.072 8.307 3.875 13.166-.716 3.599-2.967 6.108-6.337 7.09zM17.629 51.35c.244-8.862 9.929-16.291 7.912-25.643 2.059 2.687 3.082 6.146 4.415 9.49.265.661 1.232.592 1.393-.11 2.356-10.385-5.909-22.76.355-31.056-2.07 8.302 8.152 14.77 5.781 22.928a.731.731 0 00.989.876c3.483-1.482 4.048-4.512 4.017-7.451 2.861 5.252-2.064 12.374 1.415 18.41.366.634 1.583.396 1.576-.409-.018-2.074.367-3.8 1.15-5.156.135 6.883 6.51 11.273 5.747 19.224-.602 6.26-3.71 10.66-7.855 13.259.918-1.25 1.576-2.732 1.908-4.405 1.335-5.419-1.404-9.906-4.053-14.246-3.002-4.916-5.837-9.56-2.784-15.33.398-.752-.604-1.463-1.183-.839-5.09 5.5-7.106 11.767-5.915 18.27-1.47-1.891-2.561-3.843-2.284-6.3a.73.73 0 00-1.367-.434c-2.756 5.013-1.249 7.898.209 10.687.95 1.819 1.849 3.538 1.762 5.96-.286.836-.674 1.227-1.142 1.166-1.22-.161-3.006-2.588-3.082-4.187-.038-.793-1.138-.959-1.415-.223-1.5 4-.941 7.715 1.578 10.46.409.445.876.839 1.366 1.208-6.13-2.11-11.235-7.46-10.492-16.15z" fill="#000"/></svg>