<svg width="65" height="65" fill="none" xmlns="http://www.w3.org/2000/svg"><path d="M28.26 15.673l-.736 4.229a.762.762 0 001.103.805l3.804-1.988 3.795 2.007a.761.761 0 001.107-.8l-.715-4.233 3.08-2.988a.76.76 0 00-.419-1.3l-4.245-.628-1.89-3.854a.762.762 0 00-.683-.426h-.002a.762.762 0 00-.682.423l-1.909 3.844-4.25.607a.761.761 0 00-.424 1.298l3.066 3.004zm2.22-3.457a.762.762 0 00.575-.416l1.4-2.82 1.387 2.826a.76.76 0 00.573.419l3.116.46-2.261 2.194a.763.763 0 00-.22.674l.524 3.105-2.784-1.473a.76.76 0 00-.709-.001l-2.791 1.458.54-3.102a.762.762 0 00-.218-.675l-2.25-2.204 3.118-.445zm17.57 6.249l-.646 3.715a.76.76 0 001.103.806l3.342-1.747 3.334 1.763a.762.762 0 001.107-.8l-.629-3.718 2.707-2.626a.761.761 0 00-.419-1.3l-3.73-.551-1.66-3.386a.761.761 0 00-.683-.426h-.002a.762.762 0 00-.682.423l-1.677 3.377-3.733.533a.762.762 0 00-.425 1.298l2.693 2.64zm2.077-3.018a.762.762 0 00.574-.416l1.169-2.354 1.157 2.36a.762.762 0 00.573.418l2.6.384-1.887 1.83a.763.763 0 00-.22.674l.438 2.59-2.324-1.228a.76.76 0 00-.709-.001L49.17 20.92l.451-2.59a.762.762 0 00-.217-.675l-1.878-1.838 2.602-.371zM9.218 18.465l-.646 3.715a.761.761 0 001.103.806l3.342-1.747 3.334 1.763a.762.762 0 001.108-.8l-.629-3.718 2.707-2.626a.761.761 0 00-.42-1.3l-3.73-.552-1.661-3.385a.762.762 0 00-.682-.426h-.002a.762.762 0 00-.682.423l-1.677 3.377-3.733.533a.762.762 0 00-.426 1.298l2.694 2.64zm2.077-3.018a.763.763 0 00.575-.416l1.169-2.354 1.157 2.36a.763.763 0 00.573.418l2.6.384-1.887 1.83a.762.762 0 00-.22.674l.437 2.591-2.323-1.229a.762.762 0 00-.709-.001l-2.33 1.217.451-2.59a.762.762 0 00-.217-.675l-1.878-1.838 2.602-.371zM32.5 23.759a6.115 6.115 0 00-6.108 6.107v3.565a6.108 6.108 0 1012.216 0v-3.564a6.115 6.115 0 00-6.108-6.108zm4.584 9.672a4.584 4.584 0 01-9.168 0v-3.564a4.584 4.584 0 019.168 0v3.564zm14.37-6.651a5.628 5.628 0 00-5.622 5.62v3.24a5.622 5.622 0 0011.243 0V32.4a5.628 5.628 0 00-5.621-5.62zm4.098 8.86a4.098 4.098 0 01-8.197 0V32.4a4.098 4.098 0 118.197 0v3.24z" fill="#000"/><path d="M57.934 42.4h-2.048a.693.693 0 01-.693-.692.762.762 0 00-1.478-.257l-.815 2.27a1.525 1.525 0 01-2.877-.02l-.78-2.26a.762.762 0 00-1.258-.29l-.018.019a.762.762 0 00-.224.538.692.692 0 01-.692.692h-2.077a6.5 6.5 0 00-.982.075 6.964 6.964 0 00-4.364-1.533h-2.253a.838.838 0 01-.838-.837.762.762 0 00-1.478-.258l-.896 2.497a1.755 1.755 0 01-3.31-.021l-.856-2.487a.761.761 0 00-1.26-.29l-.02.02a.761.761 0 00-.222.539.838.838 0 01-.838.838h-2.285a6.963 6.963 0 00-4.364 1.533 6.49 6.49 0 00-.982-.076h-2.048a.693.693 0 01-.692-.692.761.761 0 00-1.479-.257l-.814 2.27a1.526 1.526 0 01-2.878-.02l-.779-2.26a.762.762 0 00-1.258-.29l-.019.019a.762.762 0 00-.223.538.693.693 0 01-.692.692H7.066a6.439 6.439 0 00-6.431 6.432v8.91a.762.762 0 00.761.761h62.208a.762.762 0 00.761-.761v-8.91a6.439 6.439 0 00-6.431-6.432zm-39.56 5.54v9.04H2.157v-8.148a4.914 4.914 0 014.908-4.909h2.078c.464.001.916-.145 1.293-.416l.238.692a3.05 3.05 0 005.752.036l.26-.727c.357.257.78.401 1.22.415h1.739a6.959 6.959 0 00-1.273 4.018zm26.729 9.04H19.897v-9.04a5.481 5.481 0 015.475-5.474h2.285a2.35 2.35 0 001.46-.507l.296.86a3.277 3.277 0 006.184.04l.322-.897a2.348 2.348 0 001.424.504h2.285a5.481 5.481 0 015.475 5.475v9.039zm17.739 0H46.627v-9.04a6.958 6.958 0 00-1.274-4.017h1.698c.464.001.917-.145 1.293-.416l.238.692a3.05 3.05 0 005.752.036l.26-.727c.357.257.781.401 1.22.415h2.118a4.914 4.914 0 014.909 4.909v8.148z" fill="#000"/><path d="M7.925 32.4v3.24a5.622 5.622 0 0011.243 0V32.4a5.622 5.622 0 00-11.243 0zm9.72 0v3.24a4.098 4.098 0 11-8.197 0V32.4a4.098 4.098 0 018.197 0z" fill="#000"/></svg>