<svg width="30" height="30" viewBox="0 0 30 30" fill="none" xmlns="http://www.w3.org/2000/svg">
<path d="M7.6839 0H17.7217L26.2186 8.86494V26.0973C26.2186 28.2529 24.4715 30 22.3159 30H7.6839C5.52833 30 3.78125 28.2529 3.78125 26.0973V3.90265C3.78125 1.74711 5.52833 0 7.6839 0V0Z" fill="#0263D1"/>
<path opacity="0.302" fill-rule="evenodd" clip-rule="evenodd" d="M17.71 0V8.79212H26.219L17.71 0Z" fill="white"/>
<path d="M7.40527 21.4057V16.4394H9.16452C9.51635 16.4394 9.84396 16.492 10.1473 16.5891C10.4506 16.6902 10.7256 16.8358 10.9723 17.0299C11.219 17.224 11.4132 17.4829 11.5547 17.8064C11.6962 18.1299 11.769 18.502 11.769 18.9226C11.769 19.3432 11.6962 19.7153 11.5547 20.0388C11.4132 20.3623 11.219 20.6212 10.9723 20.8153C10.7256 21.0094 10.4506 21.155 10.1473 21.2561C9.84396 21.3532 9.51639 21.4057 9.16452 21.4057H7.40527ZM8.64685 20.3259H9.01487C9.21303 20.3259 9.39907 20.3017 9.56487 20.2572C9.73472 20.2087 9.88839 20.1318 10.034 20.0307C10.1796 19.9296 10.2928 19.784 10.3737 19.5939C10.4586 19.4079 10.499 19.1814 10.499 18.9226C10.499 18.6638 10.4586 18.4373 10.3737 18.2472C10.2928 18.0612 10.1796 17.9156 10.034 17.8145C9.88839 17.7093 9.73472 17.6366 9.56487 17.588C9.39907 17.5435 9.21303 17.5192 9.01487 17.5192H8.64685V20.3259ZM14.7819 21.4624C14.0338 21.4624 13.415 21.2197 12.9257 20.7385C12.4363 20.2572 12.1937 19.6506 12.1937 18.9226C12.1937 18.1947 12.4363 17.588 12.9257 17.1068C13.415 16.6255 14.0338 16.3829 14.7819 16.3829C15.518 16.3829 16.1287 16.6256 16.618 17.1068C17.1033 17.5881 17.346 18.1947 17.346 18.9226C17.346 19.6506 17.1033 20.2572 16.618 20.7385C16.1287 21.2197 15.518 21.4624 14.7819 21.4624ZM13.8275 19.9701C14.0742 20.2451 14.3896 20.3826 14.7738 20.3826C15.158 20.3826 15.4694 20.2451 15.7162 19.9701C15.9628 19.691 16.0842 19.3432 16.0842 18.9226C16.0842 18.502 15.9628 18.1542 15.7162 17.8751C15.4695 17.6001 15.158 17.4626 14.7738 17.4626C14.3896 17.4626 14.0742 17.6001 13.8275 17.8751C13.5808 18.1542 13.4554 18.502 13.4554 18.9226C13.4554 19.3432 13.5808 19.691 13.8275 19.9701ZM20.2983 21.4624C19.5743 21.4624 18.9717 21.2359 18.4945 20.791C18.0133 20.3421 17.7747 19.7193 17.7747 18.9226C17.7747 18.1299 18.0174 17.5071 18.5027 17.0582C18.992 16.6093 19.5865 16.3828 20.2983 16.3828C20.9413 16.3828 21.467 16.5405 21.8836 16.86C22.2961 17.1755 22.5348 17.5961 22.5954 18.1218L21.3417 18.3766C21.2891 18.1016 21.1637 17.8792 20.9696 17.7134C20.7755 17.5475 20.549 17.4626 20.2902 17.4626C19.9343 17.4626 19.639 17.588 19.4004 17.8428C19.1618 18.1016 19.0405 18.4575 19.0405 18.9226C19.0405 19.3876 19.1618 19.7435 19.3964 19.9983C19.635 20.2571 19.9302 20.3825 20.2901 20.3825C20.549 20.3825 20.7714 20.3098 20.9534 20.1642C21.1354 20.0186 21.2486 19.8245 21.2972 19.5818L22.5792 19.873C22.4619 20.3745 22.203 20.7627 21.7986 21.0417C21.3983 21.3208 20.8968 21.4624 20.2983 21.4624Z" fill="white"/>
</svg>
