<svg width="271" height="130" viewBox="0 0 271 130" fill="none" xmlns="http://www.w3.org/2000/svg">
<path d="M0 0H40C67.6142 0 90 22.3858 90 50V80C90 107.614 67.6142 130 40 130H0V0Z" fill="#FBEA59"/>
<path d="M10 15C32.0914 15 50 32.9086 50 55V75C50 97.0914 32.0914 115 10 115V15Z" fill="white"/>
<path d="M116.304 43.224C114.629 43.224 113.237 42.6693 112.128 41.56C111.029 40.44 110.48 39.0533 110.48 37.4C110.48 35.7467 111.029 34.3653 112.128 33.256C113.237 32.136 114.629 31.576 116.304 31.576C117.307 31.576 118.235 31.8107 119.088 32.28C119.941 32.7387 120.613 33.368 121.104 34.168L118.896 35.448C118.651 35.0107 118.299 34.6747 117.84 34.44C117.381 34.1947 116.869 34.072 116.304 34.072C115.312 34.072 114.517 34.376 113.92 34.984C113.333 35.592 113.04 36.3973 113.04 37.4C113.04 38.4027 113.333 39.208 113.92 39.816C114.517 40.424 115.312 40.728 116.304 40.728C116.869 40.728 117.381 40.6053 117.84 40.36C118.309 40.1147 118.661 39.7787 118.896 39.352L121.104 40.632C120.624 41.432 119.957 42.0667 119.104 42.536C118.251 42.9947 117.317 43.224 116.304 43.224ZM129.744 43L129.184 41.24H125.024L124.464 43H121.664L125.472 31.8H128.736L132.544 43H129.744ZM125.792 38.84H128.416L127.104 34.728L125.792 38.84ZM135.819 30.856V28.776H140.619V30.856H135.819ZM140.059 43V36.92L135.739 43H133.819V31.8H136.379V37.88L140.699 31.8H142.619V43H140.059ZM152.377 31.8V34.264H149.497V43H146.937V34.264H144.057V31.8H152.377ZM117.2 69V62.92L112.88 69H110.96V57.8H113.52V63.88L117.84 57.8H119.76V69H117.2ZM128.079 57.8H130.639V69H128.079V64.552H124.559V69H121.999V57.8H124.559V62.088H128.079V57.8ZM139.121 69V62.92L134.801 69H132.881V57.8H135.441V63.88L139.761 57.8H141.681V69H139.121ZM152.4 66.536H153.6V71.144H151.04V69H143.92V57.8H146.48V66.536H149.84V57.8H152.4V66.536ZM161.527 69V62.92L157.207 69H155.287V57.8H157.847V63.88L162.167 57.8H164.087V69H161.527ZM173.446 69L172.886 67.24H168.726L168.166 69H165.366L169.174 57.8H172.438L176.246 69H173.446ZM169.494 64.84H172.118L170.806 60.728L169.494 64.84ZM184.244 57.8V60.264H181.364V69H178.804V60.264H175.924V57.8H184.244ZM191.924 69V62.92L187.604 69H185.684V57.8H188.244V63.88L192.564 57.8H194.484V69H191.924ZM203.667 63.192C204.584 63.7787 205.043 64.6213 205.043 65.72C205.043 66.6907 204.696 67.48 204.003 68.088C203.31 68.696 202.451 69 201.427 69H196.723V57.8H201.107C202.11 57.8 202.947 58.0987 203.619 58.696C204.302 59.2827 204.643 60.0507 204.643 61C204.643 61.896 204.318 62.6267 203.667 63.192ZM201.107 60.2H199.283V62.184H201.107C201.395 62.184 201.63 62.0933 201.811 61.912C201.992 61.72 202.083 61.48 202.083 61.192C202.083 60.904 201.992 60.6693 201.811 60.488C201.63 60.296 201.395 60.2 201.107 60.2ZM201.427 66.6C201.747 66.6 202.003 66.504 202.195 66.312C202.387 66.1093 202.483 65.848 202.483 65.528C202.483 65.208 202.387 64.952 202.195 64.76C202.003 64.5573 201.747 64.456 201.427 64.456H199.283V66.6H201.427ZM212.717 57.8H215.277V69H212.717V64.552H209.197V69H206.637V57.8H209.197V62.088H212.717V57.8ZM226.991 67.544C225.861 68.664 224.485 69.224 222.863 69.224C221.242 69.224 219.866 68.664 218.735 67.544C217.605 66.424 217.039 65.0427 217.039 63.4C217.039 61.7573 217.605 60.376 218.735 59.256C219.866 58.136 221.242 57.576 222.863 57.576C224.485 57.576 225.861 58.136 226.991 59.256C228.122 60.376 228.687 61.7573 228.687 63.4C228.687 65.0427 228.122 66.424 226.991 67.544ZM220.527 65.8C221.157 66.4187 221.935 66.728 222.863 66.728C223.791 66.728 224.565 66.4187 225.183 65.8C225.813 65.1813 226.127 64.3813 226.127 63.4C226.127 62.4187 225.813 61.6187 225.183 61C224.565 60.3813 223.791 60.072 222.863 60.072C221.935 60.072 221.157 60.3813 220.527 61C219.909 61.6187 219.599 62.4187 219.599 63.4C219.599 64.3813 219.909 65.1813 220.527 65.8ZM232.449 56.856V54.776H237.249V56.856H232.449ZM236.689 69V62.92L232.369 69H230.449V57.8H233.009V63.88L237.329 57.8H239.249V69H236.689ZM117.36 83.8V86.264H113.52V95H110.96V83.8H117.36ZM123.036 83.8C124.134 83.8 125.062 84.1733 125.82 84.92C126.577 85.6667 126.956 86.5733 126.956 87.64C126.956 88.7067 126.577 89.6133 125.82 90.36C125.062 91.1067 124.134 91.48 123.036 91.48H121.356V95H118.796V83.8H123.036ZM123.036 89.08C123.43 89.08 123.756 88.9413 124.012 88.664C124.268 88.3867 124.396 88.0453 124.396 87.64C124.396 87.2347 124.268 86.8933 124.012 86.616C123.756 86.3387 123.43 86.2 123.036 86.2H121.356V89.08H123.036ZM134.149 83.8H136.709L133.477 91.704C132.527 94.0187 130.959 95.1173 128.773 95V92.6C129.807 92.696 130.554 92.328 131.013 91.496L127.429 83.8H129.989L132.181 88.696L134.149 83.8ZM146.634 83.8V95H144.074V86.264H140.714V95H138.154V83.8H146.634ZM157.361 83.8V95H154.801V86.264H151.441V95H148.881V83.8H157.361ZM159.607 95V83.8H162.167V87.32H163.847C164.946 87.32 165.874 87.6933 166.631 88.44C167.388 89.1867 167.767 90.0933 167.767 91.16C167.767 92.2267 167.388 93.1333 166.631 93.88C165.874 94.6267 164.946 95 163.847 95H159.607ZM168.727 95V83.8H171.287V95H168.727ZM162.167 92.6H163.847C164.242 92.6 164.567 92.4613 164.823 92.184C165.079 91.9067 165.207 91.5653 165.207 91.16C165.207 90.7547 165.079 90.4133 164.823 90.136C164.567 89.8587 164.242 89.72 163.847 89.72H162.167V92.6ZM191.473 95H188.641L185.537 90.04V95H182.977V90.04L179.873 95H177.041L180.657 89.304L177.201 83.8H180.033L182.977 88.728V83.8H185.537V88.728L188.481 83.8H191.313L187.857 89.304L191.473 95ZM201.967 95H199.055L195.471 89.816V95H192.911V83.8H195.471V88.664L198.895 83.8H201.807L198.031 89.256L201.967 95ZM211.486 95.224C210.345 95.224 209.39 94.9787 208.622 94.488C207.865 93.9867 207.326 93.3093 207.006 92.456L209.214 91.176C209.662 92.2107 210.446 92.728 211.566 92.728C212.58 92.728 213.086 92.424 213.086 91.816C213.086 91.4853 212.921 91.2293 212.59 91.048C212.27 90.856 211.662 90.6373 210.766 90.392C210.297 90.264 209.886 90.12 209.534 89.96C209.182 89.8 208.836 89.592 208.494 89.336C208.164 89.0693 207.908 88.7387 207.726 88.344C207.556 87.9493 207.47 87.496 207.47 86.984C207.47 85.9493 207.838 85.1227 208.574 84.504C209.321 83.8853 210.206 83.576 211.23 83.576C212.148 83.576 212.958 83.7947 213.662 84.232C214.366 84.6587 214.921 85.2827 215.326 86.104L213.166 87.368C212.964 86.9413 212.713 86.6213 212.414 86.408C212.116 86.184 211.721 86.072 211.23 86.072C210.846 86.072 210.548 86.1573 210.334 86.328C210.132 86.488 210.03 86.6853 210.03 86.92C210.03 87.1973 210.158 87.4373 210.414 87.64C210.681 87.8427 211.225 88.0667 212.046 88.312C212.494 88.4507 212.841 88.5627 213.086 88.648C213.332 88.7333 213.641 88.8773 214.014 89.08C214.398 89.272 214.686 89.48 214.878 89.704C215.081 89.9173 215.257 90.2053 215.406 90.568C215.566 90.92 215.646 91.3253 215.646 91.784C215.646 92.8507 215.262 93.6933 214.494 94.312C213.726 94.92 212.724 95.224 211.486 95.224ZM223.247 83.8H225.807V95H223.247V90.552H219.727V95H217.167V83.8H219.727V88.088H223.247V83.8ZM237.522 93.544C236.391 94.664 235.015 95.224 233.394 95.224C231.773 95.224 230.397 94.664 229.266 93.544C228.135 92.424 227.57 91.0427 227.57 89.4C227.57 87.7573 228.135 86.376 229.266 85.256C230.397 84.136 231.773 83.576 233.394 83.576C235.015 83.576 236.391 84.136 237.522 85.256C238.653 86.376 239.218 87.7573 239.218 89.4C239.218 91.0427 238.653 92.424 237.522 93.544ZM231.058 91.8C231.687 92.4187 232.466 92.728 233.394 92.728C234.322 92.728 235.095 92.4187 235.714 91.8C236.343 91.1813 236.658 90.3813 236.658 89.4C236.658 88.4187 236.343 87.6187 235.714 87C235.095 86.3813 234.322 86.072 233.394 86.072C232.466 86.072 231.687 86.3813 231.058 87C230.439 87.6187 230.13 88.4187 230.13 89.4C230.13 90.3813 230.439 91.1813 231.058 91.8ZM252.179 83.8V95H249.619V88.488L246.723 93.24H246.435L243.539 88.488V95H240.979V83.8H243.539L246.579 88.776L249.619 83.8H252.179ZM256.984 92.536H261.464V95H254.424V83.8H261.384V86.264H256.984V88.12H260.984V90.552H256.984V92.536Z" fill="black"/>
</svg>
