<svg width="214" height="203" viewBox="0 0 214 203" fill="none" xmlns="http://www.w3.org/2000/svg">
<path d="M0 3.98H3.84V0H6.18V3.98H10.04V6.22H6.18V10.24H3.84V6.22H0V3.98Z" fill="#F7F7F7"/>
<path d="M16.9922 3.98H20.8322V0H23.1722V3.98H27.0322V6.22H23.1722V10.24H20.8322V6.22H16.9922V3.98Z" fill="#F7F7F7"/>
<path d="M33.9844 3.98H37.8244V0H40.1644V3.98H44.0244V6.22H40.1644V10.24H37.8244V6.22H33.9844V3.98Z" fill="#F7F7F7"/>
<path d="M50.9766 3.98H54.8166V0H57.1566V3.98H61.0166V6.22H57.1566V10.24H54.8166V6.22H50.9766V3.98Z" fill="#F7F7F7"/>
<path d="M67.9688 3.98H71.8088V0H74.1488V3.98H78.0088V6.22H74.1488V10.24H71.8088V6.22H67.9688V3.98Z" fill="#F7F7F7"/>
<path d="M84.9609 3.98H88.8009V0H91.1409V3.98H95.0009V6.22H91.1409V10.24H88.8009V6.22H84.9609V3.98Z" fill="#F7F7F7"/>
<path d="M101.953 3.98H105.793V0H108.133V3.98H111.993V6.22H108.133V10.24H105.793V6.22H101.953V3.98Z" fill="#F7F7F7"/>
<path d="M118.945 3.98H122.785V0H125.125V3.98H128.985V6.22H125.125V10.24H122.785V6.22H118.945V3.98Z" fill="#F7F7F7"/>
<path d="M135.938 3.98H139.777V0H142.117V3.98H145.977V6.22H142.117V10.24H139.777V6.22H135.938V3.98Z" fill="#F7F7F7"/>
<path d="M152.93 3.98H156.77V0H159.11V3.98H162.97V6.22H159.11V10.24H156.77V6.22H152.93V3.98Z" fill="#F7F7F7"/>
<path d="M169.922 3.98H173.762V0H176.102V3.98H179.962V6.22H176.102V10.24H173.762V6.22H169.922V3.98Z" fill="#F7F7F7"/>
<path d="M186.914 3.98H190.754V0H193.094V3.98H196.954V6.22H193.094V10.24H190.754V6.22H186.914V3.98Z" fill="#F7F7F7"/>
<path d="M203.906 3.98H207.746V0H210.086V3.98H213.946V6.22H210.086V10.24H207.746V6.22H203.906V3.98Z" fill="#F7F7F7"/>
<path d="M0 27.98H3.84V24H6.18V27.98H10.04V30.22H6.18V34.24H3.84V30.22H0V27.98Z" fill="#F7F7F7"/>
<path d="M16.9922 27.98H20.8322V24H23.1722V27.98H27.0322V30.22H23.1722V34.24H20.8322V30.22H16.9922V27.98Z" fill="#F7F7F7"/>
<path d="M33.9844 27.98H37.8244V24H40.1644V27.98H44.0244V30.22H40.1644V34.24H37.8244V30.22H33.9844V27.98Z" fill="#F7F7F7"/>
<path d="M50.9766 27.98H54.8166V24H57.1566V27.98H61.0166V30.22H57.1566V34.24H54.8166V30.22H50.9766V27.98Z" fill="#F7F7F7"/>
<path d="M67.9688 27.98H71.8088V24H74.1488V27.98H78.0088V30.22H74.1488V34.24H71.8088V30.22H67.9688V27.98Z" fill="#F7F7F7"/>
<path d="M84.9609 27.98H88.8009V24H91.1409V27.98H95.0009V30.22H91.1409V34.24H88.8009V30.22H84.9609V27.98Z" fill="#F7F7F7"/>
<path d="M101.953 27.98H105.793V24H108.133V27.98H111.993V30.22H108.133V34.24H105.793V30.22H101.953V27.98Z" fill="#F7F7F7"/>
<path d="M118.945 27.98H122.785V24H125.125V27.98H128.985V30.22H125.125V34.24H122.785V30.22H118.945V27.98Z" fill="#F7F7F7"/>
<path d="M135.938 27.98H139.777V24H142.117V27.98H145.977V30.22H142.117V34.24H139.777V30.22H135.938V27.98Z" fill="#F7F7F7"/>
<path d="M152.93 27.98H156.77V24H159.11V27.98H162.97V30.22H159.11V34.24H156.77V30.22H152.93V27.98Z" fill="#F7F7F7"/>
<path d="M169.922 27.98H173.762V24H176.102V27.98H179.962V30.22H176.102V34.24H173.762V30.22H169.922V27.98Z" fill="#F7F7F7"/>
<path d="M186.914 27.98H190.754V24H193.094V27.98H196.954V30.22H193.094V34.24H190.754V30.22H186.914V27.98Z" fill="#F7F7F7"/>
<path d="M203.906 27.98H207.746V24H210.086V27.98H213.946V30.22H210.086V34.24H207.746V30.22H203.906V27.98Z" fill="#F7F7F7"/>
<path d="M0 51.98H3.84V48H6.18V51.98H10.04V54.22H6.18V58.24H3.84V54.22H0V51.98Z" fill="#F7F7F7"/>
<path d="M16.9922 51.98H20.8322V48H23.1722V51.98H27.0322V54.22H23.1722V58.24H20.8322V54.22H16.9922V51.98Z" fill="#F7F7F7"/>
<path d="M33.9844 51.98H37.8244V48H40.1644V51.98H44.0244V54.22H40.1644V58.24H37.8244V54.22H33.9844V51.98Z" fill="#F7F7F7"/>
<path d="M50.9766 51.98H54.8166V48H57.1566V51.98H61.0166V54.22H57.1566V58.24H54.8166V54.22H50.9766V51.98Z" fill="#F7F7F7"/>
<path d="M67.9688 51.98H71.8088V48H74.1488V51.98H78.0088V54.22H74.1488V58.24H71.8088V54.22H67.9688V51.98Z" fill="#F7F7F7"/>
<path d="M84.9609 51.98H88.8009V48H91.1409V51.98H95.0009V54.22H91.1409V58.24H88.8009V54.22H84.9609V51.98Z" fill="#F7F7F7"/>
<path d="M101.953 51.98H105.793V48H108.133V51.98H111.993V54.22H108.133V58.24H105.793V54.22H101.953V51.98Z" fill="#F7F7F7"/>
<path d="M118.945 51.98H122.785V48H125.125V51.98H128.985V54.22H125.125V58.24H122.785V54.22H118.945V51.98Z" fill="#F7F7F7"/>
<path d="M135.938 51.98H139.777V48H142.117V51.98H145.977V54.22H142.117V58.24H139.777V54.22H135.938V51.98Z" fill="#F7F7F7"/>
<path d="M152.93 51.98H156.77V48H159.11V51.98H162.97V54.22H159.11V58.24H156.77V54.22H152.93V51.98Z" fill="#F7F7F7"/>
<path d="M169.922 51.98H173.762V48H176.102V51.98H179.962V54.22H176.102V58.24H173.762V54.22H169.922V51.98Z" fill="#F7F7F7"/>
<path d="M186.914 51.98H190.754V48H193.094V51.98H196.954V54.22H193.094V58.24H190.754V54.22H186.914V51.98Z" fill="#F7F7F7"/>
<path d="M203.906 51.98H207.746V48H210.086V51.98H213.946V54.22H210.086V58.24H207.746V54.22H203.906V51.98Z" fill="#F7F7F7"/>
<path d="M0 75.98H3.84V72H6.18V75.98H10.04V78.22H6.18V82.24H3.84V78.22H0V75.98Z" fill="#F7F7F7"/>
<path d="M16.9922 75.98H20.8322V72H23.1722V75.98H27.0322V78.22H23.1722V82.24H20.8322V78.22H16.9922V75.98Z" fill="#F7F7F7"/>
<path d="M33.9844 75.98H37.8244V72H40.1644V75.98H44.0244V78.22H40.1644V82.24H37.8244V78.22H33.9844V75.98Z" fill="#F7F7F7"/>
<path d="M50.9766 75.98H54.8166V72H57.1566V75.98H61.0166V78.22H57.1566V82.24H54.8166V78.22H50.9766V75.98Z" fill="#F7F7F7"/>
<path d="M67.9688 75.98H71.8088V72H74.1488V75.98H78.0088V78.22H74.1488V82.24H71.8088V78.22H67.9688V75.98Z" fill="#F7F7F7"/>
<path d="M84.9609 75.98H88.8009V72H91.1409V75.98H95.0009V78.22H91.1409V82.24H88.8009V78.22H84.9609V75.98Z" fill="#F7F7F7"/>
<path d="M101.953 75.98H105.793V72H108.133V75.98H111.993V78.22H108.133V82.24H105.793V78.22H101.953V75.98Z" fill="#F7F7F7"/>
<path d="M118.945 75.98H122.785V72H125.125V75.98H128.985V78.22H125.125V82.24H122.785V78.22H118.945V75.98Z" fill="#F7F7F7"/>
<path d="M135.938 75.98H139.777V72H142.117V75.98H145.977V78.22H142.117V82.24H139.777V78.22H135.938V75.98Z" fill="#F7F7F7"/>
<path d="M152.93 75.98H156.77V72H159.11V75.98H162.97V78.22H159.11V82.24H156.77V78.22H152.93V75.98Z" fill="#F7F7F7"/>
<path d="M169.922 75.98H173.762V72H176.102V75.98H179.962V78.22H176.102V82.24H173.762V78.22H169.922V75.98Z" fill="#F7F7F7"/>
<path d="M186.914 75.98H190.754V72H193.094V75.98H196.954V78.22H193.094V82.24H190.754V78.22H186.914V75.98Z" fill="#F7F7F7"/>
<path d="M203.906 75.98H207.746V72H210.086V75.98H213.946V78.22H210.086V82.24H207.746V78.22H203.906V75.98Z" fill="#F7F7F7"/>
<path d="M0 99.98H3.84V96H6.18V99.98H10.04V102.22H6.18V106.24H3.84V102.22H0V99.98Z" fill="#F7F7F7"/>
<path d="M16.9922 99.98H20.8322V96H23.1722V99.98H27.0322V102.22H23.1722V106.24H20.8322V102.22H16.9922V99.98Z" fill="#F7F7F7"/>
<path d="M33.9844 99.98H37.8244V96H40.1644V99.98H44.0244V102.22H40.1644V106.24H37.8244V102.22H33.9844V99.98Z" fill="#F7F7F7"/>
<path d="M50.9766 99.98H54.8166V96H57.1566V99.98H61.0166V102.22H57.1566V106.24H54.8166V102.22H50.9766V99.98Z" fill="#F7F7F7"/>
<path d="M67.9688 99.98H71.8088V96H74.1488V99.98H78.0088V102.22H74.1488V106.24H71.8088V102.22H67.9688V99.98Z" fill="#F7F7F7"/>
<path d="M84.9609 99.98H88.8009V96H91.1409V99.98H95.0009V102.22H91.1409V106.24H88.8009V102.22H84.9609V99.98Z" fill="#F7F7F7"/>
<path d="M101.953 99.98H105.793V96H108.133V99.98H111.993V102.22H108.133V106.24H105.793V102.22H101.953V99.98Z" fill="#F7F7F7"/>
<path d="M118.945 99.98H122.785V96H125.125V99.98H128.985V102.22H125.125V106.24H122.785V102.22H118.945V99.98Z" fill="#F7F7F7"/>
<path d="M135.938 99.98H139.777V96H142.117V99.98H145.977V102.22H142.117V106.24H139.777V102.22H135.938V99.98Z" fill="#F7F7F7"/>
<path d="M152.93 99.98H156.77V96H159.11V99.98H162.97V102.22H159.11V106.24H156.77V102.22H152.93V99.98Z" fill="#F7F7F7"/>
<path d="M169.922 99.98H173.762V96H176.102V99.98H179.962V102.22H176.102V106.24H173.762V102.22H169.922V99.98Z" fill="#F7F7F7"/>
<path d="M186.914 99.98H190.754V96H193.094V99.98H196.954V102.22H193.094V106.24H190.754V102.22H186.914V99.98Z" fill="#F7F7F7"/>
<path d="M203.906 99.98H207.746V96H210.086V99.98H213.946V102.22H210.086V106.24H207.746V102.22H203.906V99.98Z" fill="#F7F7F7"/>
<path d="M0 123.98H3.84V120H6.18V123.98H10.04V126.22H6.18V130.24H3.84V126.22H0V123.98Z" fill="#F7F7F7"/>
<path d="M16.9922 123.98H20.8322V120H23.1722V123.98H27.0322V126.22H23.1722V130.24H20.8322V126.22H16.9922V123.98Z" fill="#F7F7F7"/>
<path d="M33.9844 123.98H37.8244V120H40.1644V123.98H44.0244V126.22H40.1644V130.24H37.8244V126.22H33.9844V123.98Z" fill="#F7F7F7"/>
<path d="M50.9766 123.98H54.8166V120H57.1566V123.98H61.0166V126.22H57.1566V130.24H54.8166V126.22H50.9766V123.98Z" fill="#F7F7F7"/>
<path d="M67.9688 123.98H71.8088V120H74.1488V123.98H78.0088V126.22H74.1488V130.24H71.8088V126.22H67.9688V123.98Z" fill="#F7F7F7"/>
<path d="M84.9609 123.98H88.8009V120H91.1409V123.98H95.0009V126.22H91.1409V130.24H88.8009V126.22H84.9609V123.98Z" fill="#F7F7F7"/>
<path d="M101.953 123.98H105.793V120H108.133V123.98H111.993V126.22H108.133V130.24H105.793V126.22H101.953V123.98Z" fill="#F7F7F7"/>
<path d="M118.945 123.98H122.785V120H125.125V123.98H128.985V126.22H125.125V130.24H122.785V126.22H118.945V123.98Z" fill="#F7F7F7"/>
<path d="M135.938 123.98H139.777V120H142.117V123.98H145.977V126.22H142.117V130.24H139.777V126.22H135.938V123.98Z" fill="#F7F7F7"/>
<path d="M152.93 123.98H156.77V120H159.11V123.98H162.97V126.22H159.11V130.24H156.77V126.22H152.93V123.98Z" fill="#F7F7F7"/>
<path d="M169.922 123.98H173.762V120H176.102V123.98H179.962V126.22H176.102V130.24H173.762V126.22H169.922V123.98Z" fill="#F7F7F7"/>
<path d="M186.914 123.98H190.754V120H193.094V123.98H196.954V126.22H193.094V130.24H190.754V126.22H186.914V123.98Z" fill="#F7F7F7"/>
<path d="M203.906 123.98H207.746V120H210.086V123.98H213.946V126.22H210.086V130.24H207.746V126.22H203.906V123.98Z" fill="#F7F7F7"/>
<path d="M0 147.98H3.84V144H6.18V147.98H10.04V150.22H6.18V154.24H3.84V150.22H0V147.98Z" fill="#F7F7F7"/>
<path d="M16.9922 147.98H20.8322V144H23.1722V147.98H27.0322V150.22H23.1722V154.24H20.8322V150.22H16.9922V147.98Z" fill="#F7F7F7"/>
<path d="M33.9844 147.98H37.8244V144H40.1644V147.98H44.0244V150.22H40.1644V154.24H37.8244V150.22H33.9844V147.98Z" fill="#F7F7F7"/>
<path d="M50.9766 147.98H54.8166V144H57.1566V147.98H61.0166V150.22H57.1566V154.24H54.8166V150.22H50.9766V147.98Z" fill="#F7F7F7"/>
<path d="M67.9688 147.98H71.8088V144H74.1488V147.98H78.0088V150.22H74.1488V154.24H71.8088V150.22H67.9688V147.98Z" fill="#F7F7F7"/>
<path d="M84.9609 147.98H88.8009V144H91.1409V147.98H95.0009V150.22H91.1409V154.24H88.8009V150.22H84.9609V147.98Z" fill="#F7F7F7"/>
<path d="M101.953 147.98H105.793V144H108.133V147.98H111.993V150.22H108.133V154.24H105.793V150.22H101.953V147.98Z" fill="#F7F7F7"/>
<path d="M118.945 147.98H122.785V144H125.125V147.98H128.985V150.22H125.125V154.24H122.785V150.22H118.945V147.98Z" fill="#F7F7F7"/>
<path d="M135.938 147.98H139.777V144H142.117V147.98H145.977V150.22H142.117V154.24H139.777V150.22H135.938V147.98Z" fill="#F7F7F7"/>
<path d="M152.93 147.98H156.77V144H159.11V147.98H162.97V150.22H159.11V154.24H156.77V150.22H152.93V147.98Z" fill="#F7F7F7"/>
<path d="M169.922 147.98H173.762V144H176.102V147.98H179.962V150.22H176.102V154.24H173.762V150.22H169.922V147.98Z" fill="#F7F7F7"/>
<path d="M186.914 147.98H190.754V144H193.094V147.98H196.954V150.22H193.094V154.24H190.754V150.22H186.914V147.98Z" fill="#F7F7F7"/>
<path d="M203.906 147.98H207.746V144H210.086V147.98H213.946V150.22H210.086V154.24H207.746V150.22H203.906V147.98Z" fill="#F7F7F7"/>
<path d="M0 171.98H3.84V168H6.18V171.98H10.04V174.22H6.18V178.24H3.84V174.22H0V171.98Z" fill="#F7F7F7"/>
<path d="M16.9922 171.98H20.8322V168H23.1722V171.98H27.0322V174.22H23.1722V178.24H20.8322V174.22H16.9922V171.98Z" fill="#F7F7F7"/>
<path d="M33.9844 171.98H37.8244V168H40.1644V171.98H44.0244V174.22H40.1644V178.24H37.8244V174.22H33.9844V171.98Z" fill="#F7F7F7"/>
<path d="M50.9766 171.98H54.8166V168H57.1566V171.98H61.0166V174.22H57.1566V178.24H54.8166V174.22H50.9766V171.98Z" fill="#F7F7F7"/>
<path d="M67.9688 171.98H71.8088V168H74.1488V171.98H78.0088V174.22H74.1488V178.24H71.8088V174.22H67.9688V171.98Z" fill="#F7F7F7"/>
<path d="M84.9609 171.98H88.8009V168H91.1409V171.98H95.0009V174.22H91.1409V178.24H88.8009V174.22H84.9609V171.98Z" fill="#F7F7F7"/>
<path d="M101.953 171.98H105.793V168H108.133V171.98H111.993V174.22H108.133V178.24H105.793V174.22H101.953V171.98Z" fill="#F7F7F7"/>
<path d="M118.945 171.98H122.785V168H125.125V171.98H128.985V174.22H125.125V178.24H122.785V174.22H118.945V171.98Z" fill="#F7F7F7"/>
<path d="M135.938 171.98H139.777V168H142.117V171.98H145.977V174.22H142.117V178.24H139.777V174.22H135.938V171.98Z" fill="#F7F7F7"/>
<path d="M152.93 171.98H156.77V168H159.11V171.98H162.97V174.22H159.11V178.24H156.77V174.22H152.93V171.98Z" fill="#F7F7F7"/>
<path d="M169.922 171.98H173.762V168H176.102V171.98H179.962V174.22H176.102V178.24H173.762V174.22H169.922V171.98Z" fill="#F7F7F7"/>
<path d="M186.914 171.98H190.754V168H193.094V171.98H196.954V174.22H193.094V178.24H190.754V174.22H186.914V171.98Z" fill="#F7F7F7"/>
<path d="M203.906 171.98H207.746V168H210.086V171.98H213.946V174.22H210.086V178.24H207.746V174.22H203.906V171.98Z" fill="#F7F7F7"/>
<path d="M0 195.98H3.84V192H6.18V195.98H10.04V198.22H6.18V202.24H3.84V198.22H0V195.98Z" fill="#F7F7F7"/>
<path d="M16.9922 195.98H20.8322V192H23.1722V195.98H27.0322V198.22H23.1722V202.24H20.8322V198.22H16.9922V195.98Z" fill="#F7F7F7"/>
<path d="M33.9844 195.98H37.8244V192H40.1644V195.98H44.0244V198.22H40.1644V202.24H37.8244V198.22H33.9844V195.98Z" fill="#F7F7F7"/>
<path d="M50.9766 195.98H54.8166V192H57.1566V195.98H61.0166V198.22H57.1566V202.24H54.8166V198.22H50.9766V195.98Z" fill="#F7F7F7"/>
<path d="M67.9688 195.98H71.8088V192H74.1488V195.98H78.0088V198.22H74.1488V202.24H71.8088V198.22H67.9688V195.98Z" fill="#F7F7F7"/>
<path d="M84.9609 195.98H88.8009V192H91.1409V195.98H95.0009V198.22H91.1409V202.24H88.8009V198.22H84.9609V195.98Z" fill="#F7F7F7"/>
<path d="M101.953 195.98H105.793V192H108.133V195.98H111.993V198.22H108.133V202.24H105.793V198.22H101.953V195.98Z" fill="#F7F7F7"/>
<path d="M118.945 195.98H122.785V192H125.125V195.98H128.985V198.22H125.125V202.24H122.785V198.22H118.945V195.98Z" fill="#F7F7F7"/>
<path d="M135.938 195.98H139.777V192H142.117V195.98H145.977V198.22H142.117V202.24H139.777V198.22H135.938V195.98Z" fill="#F7F7F7"/>
<path d="M152.93 195.98H156.77V192H159.11V195.98H162.97V198.22H159.11V202.24H156.77V198.22H152.93V195.98Z" fill="#F7F7F7"/>
<path d="M169.922 195.98H173.762V192H176.102V195.98H179.962V198.22H176.102V202.24H173.762V198.22H169.922V195.98Z" fill="#F7F7F7"/>
<path d="M186.914 195.98H190.754V192H193.094V195.98H196.954V198.22H193.094V202.24H190.754V198.22H186.914V195.98Z" fill="#F7F7F7"/>
<path d="M203.906 195.98H207.746V192H210.086V195.98H213.946V198.22H210.086V202.24H207.746V198.22H203.906V195.98Z" fill="#F7F7F7"/>
</svg>
