<svg width="415" height="275" viewBox="0 0 415 275" fill="none" xmlns="http://www.w3.org/2000/svg">
<path d="M-3.02 4.12H0.82V0.139999H3.16V4.12H7.02V6.36H3.16V10.38H0.82V6.36H-3.02V4.12ZM13.9722 4.12H17.8122V0.139999H20.1522V4.12H24.0122V6.36H20.1522V10.38H17.8122V6.36H13.9722V4.12ZM30.9644 4.12H34.8044V0.139999H37.1444V4.12H41.0044V6.36H37.1444V10.38H34.8044V6.36H30.9644V4.12ZM47.9566 4.12H51.7966V0.139999H54.1366V4.12H57.9966V6.36H54.1366V10.38H51.7966V6.36H47.9566V4.12ZM64.9488 4.12H68.7888V0.139999H71.1288V4.12H74.9887V6.36H71.1288V10.38H68.7888V6.36H64.9488V4.12ZM81.9409 4.12H85.7809V0.139999H88.1209V4.12H91.9809V6.36H88.1209V10.38H85.7809V6.36H81.9409V4.12ZM98.9331 4.12H102.773V0.139999H105.113V4.12H108.973V6.36H105.113V10.38H102.773V6.36H98.9331V4.12ZM115.925 4.12H119.765V0.139999H122.105V4.12H125.965V6.36H122.105V10.38H119.765V6.36H115.925V4.12ZM132.918 4.12H136.758V0.139999H139.098V4.12H142.957V6.36H139.098V10.38H136.758V6.36H132.918V4.12ZM149.91 4.12H153.75V0.139999H156.09V4.12H159.95V6.36H156.09V10.38H153.75V6.36H149.91V4.12ZM166.902 4.12H170.742V0.139999H173.082V4.12H176.942V6.36H173.082V10.38H170.742V6.36H166.902V4.12ZM183.894 4.12H187.734V0.139999H190.074V4.12H193.934V6.36H190.074V10.38H187.734V6.36H183.894V4.12ZM200.886 4.12H204.726V0.139999H207.066V4.12H210.926V6.36H207.066V10.38H204.726V6.36H200.886V4.12ZM217.878 4.12H221.718V0.139999H224.058V4.12H227.918V6.36H224.058V10.38H221.718V6.36H217.878V4.12ZM234.871 4.12H238.711V0.139999H241.051V4.12H244.911V6.36H241.051V10.38H238.711V6.36H234.871V4.12ZM251.863 4.12H255.703V0.139999H258.043V4.12H261.903V6.36H258.043V10.38H255.703V6.36H251.863V4.12ZM268.855 4.12H272.695V0.139999H275.035V4.12H278.895V6.36H275.035V10.38H272.695V6.36H268.855V4.12ZM285.847 4.12H289.687V0.139999H292.027V4.12H295.887V6.36H292.027V10.38H289.687V6.36H285.847V4.12ZM302.839 4.12H306.679V0.139999H309.019V4.12H312.879V6.36H309.019V10.38H306.679V6.36H302.839V4.12ZM319.832 4.12H323.672V0.139999H326.012V4.12H329.872V6.36H326.012V10.38H323.672V6.36H319.832V4.12ZM336.824 4.12H340.664V0.139999H343.004V4.12H346.864V6.36H343.004V10.38H340.664V6.36H336.824V4.12ZM353.816 4.12H357.656V0.139999H359.996V4.12H363.856V6.36H359.996V10.38H357.656V6.36H353.816V4.12ZM370.808 4.12H374.648V0.139999H376.988V4.12H380.848V6.36H376.988V10.38H374.648V6.36H370.808V4.12ZM387.8 4.12H391.64V0.139999H393.98V4.12H397.84V6.36H393.98V10.38H391.64V6.36H387.8V4.12ZM404.793 4.12H408.633V0.139999H410.973V4.12H414.832V6.36H410.973V10.38H408.633V6.36H404.793V4.12ZM-3.02 28.12H0.82V24.14H3.16V28.12H7.02V30.36H3.16V34.38H0.82V30.36H-3.02V28.12ZM13.9722 28.12H17.8122V24.14H20.1522V28.12H24.0122V30.36H20.1522V34.38H17.8122V30.36H13.9722V28.12ZM30.9644 28.12H34.8044V24.14H37.1444V28.12H41.0044V30.36H37.1444V34.38H34.8044V30.36H30.9644V28.12ZM47.9566 28.12H51.7966V24.14H54.1366V28.12H57.9966V30.36H54.1366V34.38H51.7966V30.36H47.9566V28.12ZM64.9488 28.12H68.7888V24.14H71.1288V28.12H74.9887V30.36H71.1288V34.38H68.7888V30.36H64.9488V28.12ZM81.9409 28.12H85.7809V24.14H88.1209V28.12H91.9809V30.36H88.1209V34.38H85.7809V30.36H81.9409V28.12ZM98.9331 28.12H102.773V24.14H105.113V28.12H108.973V30.36H105.113V34.38H102.773V30.36H98.9331V28.12ZM115.925 28.12H119.765V24.14H122.105V28.12H125.965V30.36H122.105V34.38H119.765V30.36H115.925V28.12ZM132.918 28.12H136.758V24.14H139.098V28.12H142.957V30.36H139.098V34.38H136.758V30.36H132.918V28.12ZM149.91 28.12H153.75V24.14H156.09V28.12H159.95V30.36H156.09V34.38H153.75V30.36H149.91V28.12ZM166.902 28.12H170.742V24.14H173.082V28.12H176.942V30.36H173.082V34.38H170.742V30.36H166.902V28.12ZM183.894 28.12H187.734V24.14H190.074V28.12H193.934V30.36H190.074V34.38H187.734V30.36H183.894V28.12ZM200.886 28.12H204.726V24.14H207.066V28.12H210.926V30.36H207.066V34.38H204.726V30.36H200.886V28.12ZM217.878 28.12H221.718V24.14H224.058V28.12H227.918V30.36H224.058V34.38H221.718V30.36H217.878V28.12ZM234.871 28.12H238.711V24.14H241.051V28.12H244.911V30.36H241.051V34.38H238.711V30.36H234.871V28.12ZM251.863 28.12H255.703V24.14H258.043V28.12H261.903V30.36H258.043V34.38H255.703V30.36H251.863V28.12ZM268.855 28.12H272.695V24.14H275.035V28.12H278.895V30.36H275.035V34.38H272.695V30.36H268.855V28.12ZM285.847 28.12H289.687V24.14H292.027V28.12H295.887V30.36H292.027V34.38H289.687V30.36H285.847V28.12ZM302.839 28.12H306.679V24.14H309.019V28.12H312.879V30.36H309.019V34.38H306.679V30.36H302.839V28.12ZM319.832 28.12H323.672V24.14H326.012V28.12H329.872V30.36H326.012V34.38H323.672V30.36H319.832V28.12ZM336.824 28.12H340.664V24.14H343.004V28.12H346.864V30.36H343.004V34.38H340.664V30.36H336.824V28.12ZM353.816 28.12H357.656V24.14H359.996V28.12H363.856V30.36H359.996V34.38H357.656V30.36H353.816V28.12ZM370.808 28.12H374.648V24.14H376.988V28.12H380.848V30.36H376.988V34.38H374.648V30.36H370.808V28.12ZM387.8 28.12H391.64V24.14H393.98V28.12H397.84V30.36H393.98V34.38H391.64V30.36H387.8V28.12ZM404.793 28.12H408.633V24.14H410.973V28.12H414.832V30.36H410.973V34.38H408.633V30.36H404.793V28.12ZM-3.02 52.12H0.82V48.14H3.16V52.12H7.02V54.36H3.16V58.38H0.82V54.36H-3.02V52.12ZM13.9722 52.12H17.8122V48.14H20.1522V52.12H24.0122V54.36H20.1522V58.38H17.8122V54.36H13.9722V52.12ZM30.9644 52.12H34.8044V48.14H37.1444V52.12H41.0044V54.36H37.1444V58.38H34.8044V54.36H30.9644V52.12ZM47.9566 52.12H51.7966V48.14H54.1366V52.12H57.9966V54.36H54.1366V58.38H51.7966V54.36H47.9566V52.12ZM64.9488 52.12H68.7888V48.14H71.1288V52.12H74.9887V54.36H71.1288V58.38H68.7888V54.36H64.9488V52.12ZM81.9409 52.12H85.7809V48.14H88.1209V52.12H91.9809V54.36H88.1209V58.38H85.7809V54.36H81.9409V52.12ZM98.9331 52.12H102.773V48.14H105.113V52.12H108.973V54.36H105.113V58.38H102.773V54.36H98.9331V52.12ZM115.925 52.12H119.765V48.14H122.105V52.12H125.965V54.36H122.105V58.38H119.765V54.36H115.925V52.12ZM132.918 52.12H136.758V48.14H139.098V52.12H142.957V54.36H139.098V58.38H136.758V54.36H132.918V52.12ZM149.91 52.12H153.75V48.14H156.09V52.12H159.95V54.36H156.09V58.38H153.75V54.36H149.91V52.12ZM166.902 52.12H170.742V48.14H173.082V52.12H176.942V54.36H173.082V58.38H170.742V54.36H166.902V52.12ZM183.894 52.12H187.734V48.14H190.074V52.12H193.934V54.36H190.074V58.38H187.734V54.36H183.894V52.12ZM200.886 52.12H204.726V48.14H207.066V52.12H210.926V54.36H207.066V58.38H204.726V54.36H200.886V52.12ZM217.878 52.12H221.718V48.14H224.058V52.12H227.918V54.36H224.058V58.38H221.718V54.36H217.878V52.12ZM234.871 52.12H238.711V48.14H241.051V52.12H244.911V54.36H241.051V58.38H238.711V54.36H234.871V52.12ZM251.863 52.12H255.703V48.14H258.043V52.12H261.903V54.36H258.043V58.38H255.703V54.36H251.863V52.12ZM268.855 52.12H272.695V48.14H275.035V52.12H278.895V54.36H275.035V58.38H272.695V54.36H268.855V52.12ZM285.847 52.12H289.687V48.14H292.027V52.12H295.887V54.36H292.027V58.38H289.687V54.36H285.847V52.12ZM302.839 52.12H306.679V48.14H309.019V52.12H312.879V54.36H309.019V58.38H306.679V54.36H302.839V52.12ZM319.832 52.12H323.672V48.14H326.012V52.12H329.872V54.36H326.012V58.38H323.672V54.36H319.832V52.12ZM336.824 52.12H340.664V48.14H343.004V52.12H346.864V54.36H343.004V58.38H340.664V54.36H336.824V52.12ZM353.816 52.12H357.656V48.14H359.996V52.12H363.856V54.36H359.996V58.38H357.656V54.36H353.816V52.12ZM370.808 52.12H374.648V48.14H376.988V52.12H380.848V54.36H376.988V58.38H374.648V54.36H370.808V52.12ZM387.8 52.12H391.64V48.14H393.98V52.12H397.84V54.36H393.98V58.38H391.64V54.36H387.8V52.12ZM404.793 52.12H408.633V48.14H410.973V52.12H414.832V54.36H410.973V58.38H408.633V54.36H404.793V52.12ZM-3.02 76.12H0.82V72.14H3.16V76.12H7.02V78.36H3.16V82.38H0.82V78.36H-3.02V76.12ZM13.9722 76.12H17.8122V72.14H20.1522V76.12H24.0122V78.36H20.1522V82.38H17.8122V78.36H13.9722V76.12ZM30.9644 76.12H34.8044V72.14H37.1444V76.12H41.0044V78.36H37.1444V82.38H34.8044V78.36H30.9644V76.12ZM47.9566 76.12H51.7966V72.14H54.1366V76.12H57.9966V78.36H54.1366V82.38H51.7966V78.36H47.9566V76.12ZM64.9488 76.12H68.7888V72.14H71.1288V76.12H74.9887V78.36H71.1288V82.38H68.7888V78.36H64.9488V76.12ZM81.9409 76.12H85.7809V72.14H88.1209V76.12H91.9809V78.36H88.1209V82.38H85.7809V78.36H81.9409V76.12ZM98.9331 76.12H102.773V72.14H105.113V76.12H108.973V78.36H105.113V82.38H102.773V78.36H98.9331V76.12ZM115.925 76.12H119.765V72.14H122.105V76.12H125.965V78.36H122.105V82.38H119.765V78.36H115.925V76.12ZM132.918 76.12H136.758V72.14H139.098V76.12H142.957V78.36H139.098V82.38H136.758V78.36H132.918V76.12ZM149.91 76.12H153.75V72.14H156.09V76.12H159.95V78.36H156.09V82.38H153.75V78.36H149.91V76.12ZM166.902 76.12H170.742V72.14H173.082V76.12H176.942V78.36H173.082V82.38H170.742V78.36H166.902V76.12ZM183.894 76.12H187.734V72.14H190.074V76.12H193.934V78.36H190.074V82.38H187.734V78.36H183.894V76.12ZM200.886 76.12H204.726V72.14H207.066V76.12H210.926V78.36H207.066V82.38H204.726V78.36H200.886V76.12ZM217.878 76.12H221.718V72.14H224.058V76.12H227.918V78.36H224.058V82.38H221.718V78.36H217.878V76.12ZM234.871 76.12H238.711V72.14H241.051V76.12H244.911V78.36H241.051V82.38H238.711V78.36H234.871V76.12ZM251.863 76.12H255.703V72.14H258.043V76.12H261.903V78.36H258.043V82.38H255.703V78.36H251.863V76.12ZM268.855 76.12H272.695V72.14H275.035V76.12H278.895V78.36H275.035V82.38H272.695V78.36H268.855V76.12ZM285.847 76.12H289.687V72.14H292.027V76.12H295.887V78.36H292.027V82.38H289.687V78.36H285.847V76.12ZM302.839 76.12H306.679V72.14H309.019V76.12H312.879V78.36H309.019V82.38H306.679V78.36H302.839V76.12ZM319.832 76.12H323.672V72.14H326.012V76.12H329.872V78.36H326.012V82.38H323.672V78.36H319.832V76.12ZM336.824 76.12H340.664V72.14H343.004V76.12H346.864V78.36H343.004V82.38H340.664V78.36H336.824V76.12ZM353.816 76.12H357.656V72.14H359.996V76.12H363.856V78.36H359.996V82.38H357.656V78.36H353.816V76.12ZM370.808 76.12H374.648V72.14H376.988V76.12H380.848V78.36H376.988V82.38H374.648V78.36H370.808V76.12ZM387.8 76.12H391.64V72.14H393.98V76.12H397.84V78.36H393.98V82.38H391.64V78.36H387.8V76.12ZM404.793 76.12H408.633V72.14H410.973V76.12H414.832V78.36H410.973V82.38H408.633V78.36H404.793V76.12ZM-3.02 100.12H0.82V96.14H3.16V100.12H7.02V102.36H3.16V106.38H0.82V102.36H-3.02V100.12ZM13.9722 100.12H17.8122V96.14H20.1522V100.12H24.0122V102.36H20.1522V106.38H17.8122V102.36H13.9722V100.12ZM30.9644 100.12H34.8044V96.14H37.1444V100.12H41.0044V102.36H37.1444V106.38H34.8044V102.36H30.9644V100.12ZM47.9566 100.12H51.7966V96.14H54.1366V100.12H57.9966V102.36H54.1366V106.38H51.7966V102.36H47.9566V100.12ZM64.9488 100.12H68.7888V96.14H71.1288V100.12H74.9887V102.36H71.1288V106.38H68.7888V102.36H64.9488V100.12ZM81.9409 100.12H85.7809V96.14H88.1209V100.12H91.9809V102.36H88.1209V106.38H85.7809V102.36H81.9409V100.12ZM98.9331 100.12H102.773V96.14H105.113V100.12H108.973V102.36H105.113V106.38H102.773V102.36H98.9331V100.12ZM115.925 100.12H119.765V96.14H122.105V100.12H125.965V102.36H122.105V106.38H119.765V102.36H115.925V100.12ZM132.918 100.12H136.758V96.14H139.098V100.12H142.957V102.36H139.098V106.38H136.758V102.36H132.918V100.12ZM149.91 100.12H153.75V96.14H156.09V100.12H159.95V102.36H156.09V106.38H153.75V102.36H149.91V100.12ZM166.902 100.12H170.742V96.14H173.082V100.12H176.942V102.36H173.082V106.38H170.742V102.36H166.902V100.12ZM183.894 100.12H187.734V96.14H190.074V100.12H193.934V102.36H190.074V106.38H187.734V102.36H183.894V100.12ZM200.886 100.12H204.726V96.14H207.066V100.12H210.926V102.36H207.066V106.38H204.726V102.36H200.886V100.12ZM217.878 100.12H221.718V96.14H224.058V100.12H227.918V102.36H224.058V106.38H221.718V102.36H217.878V100.12ZM234.871 100.12H238.711V96.14H241.051V100.12H244.911V102.36H241.051V106.38H238.711V102.36H234.871V100.12ZM251.863 100.12H255.703V96.14H258.043V100.12H261.903V102.36H258.043V106.38H255.703V102.36H251.863V100.12ZM268.855 100.12H272.695V96.14H275.035V100.12H278.895V102.36H275.035V106.38H272.695V102.36H268.855V100.12ZM285.847 100.12H289.687V96.14H292.027V100.12H295.887V102.36H292.027V106.38H289.687V102.36H285.847V100.12ZM302.839 100.12H306.679V96.14H309.019V100.12H312.879V102.36H309.019V106.38H306.679V102.36H302.839V100.12ZM319.832 100.12H323.672V96.14H326.012V100.12H329.872V102.36H326.012V106.38H323.672V102.36H319.832V100.12ZM336.824 100.12H340.664V96.14H343.004V100.12H346.864V102.36H343.004V106.38H340.664V102.36H336.824V100.12ZM353.816 100.12H357.656V96.14H359.996V100.12H363.856V102.36H359.996V106.38H357.656V102.36H353.816V100.12ZM370.808 100.12H374.648V96.14H376.988V100.12H380.848V102.36H376.988V106.38H374.648V102.36H370.808V100.12ZM387.8 100.12H391.64V96.14H393.98V100.12H397.84V102.36H393.98V106.38H391.64V102.36H387.8V100.12ZM404.793 100.12H408.633V96.14H410.973V100.12H414.832V102.36H410.973V106.38H408.633V102.36H404.793V100.12ZM-3.02 124.12H0.82V120.14H3.16V124.12H7.02V126.36H3.16V130.38H0.82V126.36H-3.02V124.12ZM13.9722 124.12H17.8122V120.14H20.1522V124.12H24.0122V126.36H20.1522V130.38H17.8122V126.36H13.9722V124.12ZM30.9644 124.12H34.8044V120.14H37.1444V124.12H41.0044V126.36H37.1444V130.38H34.8044V126.36H30.9644V124.12ZM47.9566 124.12H51.7966V120.14H54.1366V124.12H57.9966V126.36H54.1366V130.38H51.7966V126.36H47.9566V124.12ZM64.9488 124.12H68.7888V120.14H71.1288V124.12H74.9887V126.36H71.1288V130.38H68.7888V126.36H64.9488V124.12ZM81.9409 124.12H85.7809V120.14H88.1209V124.12H91.9809V126.36H88.1209V130.38H85.7809V126.36H81.9409V124.12ZM98.9331 124.12H102.773V120.14H105.113V124.12H108.973V126.36H105.113V130.38H102.773V126.36H98.9331V124.12ZM115.925 124.12H119.765V120.14H122.105V124.12H125.965V126.36H122.105V130.38H119.765V126.36H115.925V124.12ZM132.918 124.12H136.758V120.14H139.098V124.12H142.957V126.36H139.098V130.38H136.758V126.36H132.918V124.12ZM149.91 124.12H153.75V120.14H156.09V124.12H159.95V126.36H156.09V130.38H153.75V126.36H149.91V124.12ZM166.902 124.12H170.742V120.14H173.082V124.12H176.942V126.36H173.082V130.38H170.742V126.36H166.902V124.12ZM183.894 124.12H187.734V120.14H190.074V124.12H193.934V126.36H190.074V130.38H187.734V126.36H183.894V124.12ZM200.886 124.12H204.726V120.14H207.066V124.12H210.926V126.36H207.066V130.38H204.726V126.36H200.886V124.12ZM217.878 124.12H221.718V120.14H224.058V124.12H227.918V126.36H224.058V130.38H221.718V126.36H217.878V124.12ZM234.871 124.12H238.711V120.14H241.051V124.12H244.911V126.36H241.051V130.38H238.711V126.36H234.871V124.12ZM251.863 124.12H255.703V120.14H258.043V124.12H261.903V126.36H258.043V130.38H255.703V126.36H251.863V124.12ZM268.855 124.12H272.695V120.14H275.035V124.12H278.895V126.36H275.035V130.38H272.695V126.36H268.855V124.12ZM285.847 124.12H289.687V120.14H292.027V124.12H295.887V126.36H292.027V130.38H289.687V126.36H285.847V124.12ZM302.839 124.12H306.679V120.14H309.019V124.12H312.879V126.36H309.019V130.38H306.679V126.36H302.839V124.12ZM319.832 124.12H323.672V120.14H326.012V124.12H329.872V126.36H326.012V130.38H323.672V126.36H319.832V124.12ZM336.824 124.12H340.664V120.14H343.004V124.12H346.864V126.36H343.004V130.38H340.664V126.36H336.824V124.12ZM353.816 124.12H357.656V120.14H359.996V124.12H363.856V126.36H359.996V130.38H357.656V126.36H353.816V124.12ZM370.808 124.12H374.648V120.14H376.988V124.12H380.848V126.36H376.988V130.38H374.648V126.36H370.808V124.12ZM387.8 124.12H391.64V120.14H393.98V124.12H397.84V126.36H393.98V130.38H391.64V126.36H387.8V124.12ZM404.793 124.12H408.633V120.14H410.973V124.12H414.832V126.36H410.973V130.38H408.633V126.36H404.793V124.12ZM-3.02 148.12H0.82V144.14H3.16V148.12H7.02V150.36H3.16V154.38H0.82V150.36H-3.02V148.12ZM13.9722 148.12H17.8122V144.14H20.1522V148.12H24.0122V150.36H20.1522V154.38H17.8122V150.36H13.9722V148.12ZM30.9644 148.12H34.8044V144.14H37.1444V148.12H41.0044V150.36H37.1444V154.38H34.8044V150.36H30.9644V148.12ZM47.9566 148.12H51.7966V144.14H54.1366V148.12H57.9966V150.36H54.1366V154.38H51.7966V150.36H47.9566V148.12ZM64.9488 148.12H68.7888V144.14H71.1288V148.12H74.9887V150.36H71.1288V154.38H68.7888V150.36H64.9488V148.12ZM81.9409 148.12H85.7809V144.14H88.1209V148.12H91.9809V150.36H88.1209V154.38H85.7809V150.36H81.9409V148.12ZM98.9331 148.12H102.773V144.14H105.113V148.12H108.973V150.36H105.113V154.38H102.773V150.36H98.9331V148.12ZM115.925 148.12H119.765V144.14H122.105V148.12H125.965V150.36H122.105V154.38H119.765V150.36H115.925V148.12ZM132.918 148.12H136.758V144.14H139.098V148.12H142.957V150.36H139.098V154.38H136.758V150.36H132.918V148.12ZM149.91 148.12H153.75V144.14H156.09V148.12H159.95V150.36H156.09V154.38H153.75V150.36H149.91V148.12ZM166.902 148.12H170.742V144.14H173.082V148.12H176.942V150.36H173.082V154.38H170.742V150.36H166.902V148.12ZM183.894 148.12H187.734V144.14H190.074V148.12H193.934V150.36H190.074V154.38H187.734V150.36H183.894V148.12ZM200.886 148.12H204.726V144.14H207.066V148.12H210.926V150.36H207.066V154.38H204.726V150.36H200.886V148.12ZM217.878 148.12H221.718V144.14H224.058V148.12H227.918V150.36H224.058V154.38H221.718V150.36H217.878V148.12ZM234.871 148.12H238.711V144.14H241.051V148.12H244.911V150.36H241.051V154.38H238.711V150.36H234.871V148.12ZM251.863 148.12H255.703V144.14H258.043V148.12H261.903V150.36H258.043V154.38H255.703V150.36H251.863V148.12ZM268.855 148.12H272.695V144.14H275.035V148.12H278.895V150.36H275.035V154.38H272.695V150.36H268.855V148.12ZM285.847 148.12H289.687V144.14H292.027V148.12H295.887V150.36H292.027V154.38H289.687V150.36H285.847V148.12ZM302.839 148.12H306.679V144.14H309.019V148.12H312.879V150.36H309.019V154.38H306.679V150.36H302.839V148.12ZM319.832 148.12H323.672V144.14H326.012V148.12H329.872V150.36H326.012V154.38H323.672V150.36H319.832V148.12ZM336.824 148.12H340.664V144.14H343.004V148.12H346.864V150.36H343.004V154.38H340.664V150.36H336.824V148.12ZM353.816 148.12H357.656V144.14H359.996V148.12H363.856V150.36H359.996V154.38H357.656V150.36H353.816V148.12ZM370.808 148.12H374.648V144.14H376.988V148.12H380.848V150.36H376.988V154.38H374.648V150.36H370.808V148.12ZM387.8 148.12H391.64V144.14H393.98V148.12H397.84V150.36H393.98V154.38H391.64V150.36H387.8V148.12ZM404.793 148.12H408.633V144.14H410.973V148.12H414.832V150.36H410.973V154.38H408.633V150.36H404.793V148.12ZM-3.02 172.12H0.82V168.14H3.16V172.12H7.02V174.36H3.16V178.38H0.82V174.36H-3.02V172.12ZM13.9722 172.12H17.8122V168.14H20.1522V172.12H24.0122V174.36H20.1522V178.38H17.8122V174.36H13.9722V172.12ZM30.9644 172.12H34.8044V168.14H37.1444V172.12H41.0044V174.36H37.1444V178.38H34.8044V174.36H30.9644V172.12ZM47.9566 172.12H51.7966V168.14H54.1366V172.12H57.9966V174.36H54.1366V178.38H51.7966V174.36H47.9566V172.12ZM64.9488 172.12H68.7888V168.14H71.1288V172.12H74.9887V174.36H71.1288V178.38H68.7888V174.36H64.9488V172.12ZM81.9409 172.12H85.7809V168.14H88.1209V172.12H91.9809V174.36H88.1209V178.38H85.7809V174.36H81.9409V172.12ZM98.9331 172.12H102.773V168.14H105.113V172.12H108.973V174.36H105.113V178.38H102.773V174.36H98.9331V172.12ZM115.925 172.12H119.765V168.14H122.105V172.12H125.965V174.36H122.105V178.38H119.765V174.36H115.925V172.12ZM132.918 172.12H136.758V168.14H139.098V172.12H142.957V174.36H139.098V178.38H136.758V174.36H132.918V172.12ZM149.91 172.12H153.75V168.14H156.09V172.12H159.95V174.36H156.09V178.38H153.75V174.36H149.91V172.12ZM166.902 172.12H170.742V168.14H173.082V172.12H176.942V174.36H173.082V178.38H170.742V174.36H166.902V172.12ZM183.894 172.12H187.734V168.14H190.074V172.12H193.934V174.36H190.074V178.38H187.734V174.36H183.894V172.12ZM200.886 172.12H204.726V168.14H207.066V172.12H210.926V174.36H207.066V178.38H204.726V174.36H200.886V172.12ZM217.878 172.12H221.718V168.14H224.058V172.12H227.918V174.36H224.058V178.38H221.718V174.36H217.878V172.12ZM234.871 172.12H238.711V168.14H241.051V172.12H244.911V174.36H241.051V178.38H238.711V174.36H234.871V172.12ZM251.863 172.12H255.703V168.14H258.043V172.12H261.903V174.36H258.043V178.38H255.703V174.36H251.863V172.12ZM268.855 172.12H272.695V168.14H275.035V172.12H278.895V174.36H275.035V178.38H272.695V174.36H268.855V172.12ZM285.847 172.12H289.687V168.14H292.027V172.12H295.887V174.36H292.027V178.38H289.687V174.36H285.847V172.12ZM302.839 172.12H306.679V168.14H309.019V172.12H312.879V174.36H309.019V178.38H306.679V174.36H302.839V172.12ZM319.832 172.12H323.672V168.14H326.012V172.12H329.872V174.36H326.012V178.38H323.672V174.36H319.832V172.12ZM336.824 172.12H340.664V168.14H343.004V172.12H346.864V174.36H343.004V178.38H340.664V174.36H336.824V172.12ZM353.816 172.12H357.656V168.14H359.996V172.12H363.856V174.36H359.996V178.38H357.656V174.36H353.816V172.12ZM370.808 172.12H374.648V168.14H376.988V172.12H380.848V174.36H376.988V178.38H374.648V174.36H370.808V172.12ZM387.8 172.12H391.64V168.14H393.98V172.12H397.84V174.36H393.98V178.38H391.64V174.36H387.8V172.12ZM404.793 172.12H408.633V168.14H410.973V172.12H414.832V174.36H410.973V178.38H408.633V174.36H404.793V172.12ZM-3.02 196.12H0.82V192.14H3.16V196.12H7.02V198.36H3.16V202.38H0.82V198.36H-3.02V196.12ZM13.9722 196.12H17.8122V192.14H20.1522V196.12H24.0122V198.36H20.1522V202.38H17.8122V198.36H13.9722V196.12ZM30.9644 196.12H34.8044V192.14H37.1444V196.12H41.0044V198.36H37.1444V202.38H34.8044V198.36H30.9644V196.12ZM47.9566 196.12H51.7966V192.14H54.1366V196.12H57.9966V198.36H54.1366V202.38H51.7966V198.36H47.9566V196.12ZM64.9488 196.12H68.7888V192.14H71.1288V196.12H74.9887V198.36H71.1288V202.38H68.7888V198.36H64.9488V196.12ZM81.9409 196.12H85.7809V192.14H88.1209V196.12H91.9809V198.36H88.1209V202.38H85.7809V198.36H81.9409V196.12ZM98.9331 196.12H102.773V192.14H105.113V196.12H108.973V198.36H105.113V202.38H102.773V198.36H98.9331V196.12ZM115.925 196.12H119.765V192.14H122.105V196.12H125.965V198.36H122.105V202.38H119.765V198.36H115.925V196.12ZM132.918 196.12H136.758V192.14H139.098V196.12H142.957V198.36H139.098V202.38H136.758V198.36H132.918V196.12ZM149.91 196.12H153.75V192.14H156.09V196.12H159.95V198.36H156.09V202.38H153.75V198.36H149.91V196.12ZM166.902 196.12H170.742V192.14H173.082V196.12H176.942V198.36H173.082V202.38H170.742V198.36H166.902V196.12ZM183.894 196.12H187.734V192.14H190.074V196.12H193.934V198.36H190.074V202.38H187.734V198.36H183.894V196.12ZM200.886 196.12H204.726V192.14H207.066V196.12H210.926V198.36H207.066V202.38H204.726V198.36H200.886V196.12ZM217.878 196.12H221.718V192.14H224.058V196.12H227.918V198.36H224.058V202.38H221.718V198.36H217.878V196.12ZM234.871 196.12H238.711V192.14H241.051V196.12H244.911V198.36H241.051V202.38H238.711V198.36H234.871V196.12ZM251.863 196.12H255.703V192.14H258.043V196.12H261.903V198.36H258.043V202.38H255.703V198.36H251.863V196.12ZM268.855 196.12H272.695V192.14H275.035V196.12H278.895V198.36H275.035V202.38H272.695V198.36H268.855V196.12ZM285.847 196.12H289.687V192.14H292.027V196.12H295.887V198.36H292.027V202.38H289.687V198.36H285.847V196.12ZM302.839 196.12H306.679V192.14H309.019V196.12H312.879V198.36H309.019V202.38H306.679V198.36H302.839V196.12ZM319.832 196.12H323.672V192.14H326.012V196.12H329.872V198.36H326.012V202.38H323.672V198.36H319.832V196.12ZM336.824 196.12H340.664V192.14H343.004V196.12H346.864V198.36H343.004V202.38H340.664V198.36H336.824V196.12ZM353.816 196.12H357.656V192.14H359.996V196.12H363.856V198.36H359.996V202.38H357.656V198.36H353.816V196.12ZM370.808 196.12H374.648V192.14H376.988V196.12H380.848V198.36H376.988V202.38H374.648V198.36H370.808V196.12ZM387.8 196.12H391.64V192.14H393.98V196.12H397.84V198.36H393.98V202.38H391.64V198.36H387.8V196.12ZM404.793 196.12H408.633V192.14H410.973V196.12H414.832V198.36H410.973V202.38H408.633V198.36H404.793V196.12ZM-3.02 220.12H0.82V216.14H3.16V220.12H7.02V222.36H3.16V226.38H0.82V222.36H-3.02V220.12ZM13.9722 220.12H17.8122V216.14H20.1522V220.12H24.0122V222.36H20.1522V226.38H17.8122V222.36H13.9722V220.12ZM30.9644 220.12H34.8044V216.14H37.1444V220.12H41.0044V222.36H37.1444V226.38H34.8044V222.36H30.9644V220.12ZM47.9566 220.12H51.7966V216.14H54.1366V220.12H57.9966V222.36H54.1366V226.38H51.7966V222.36H47.9566V220.12ZM64.9488 220.12H68.7888V216.14H71.1288V220.12H74.9887V222.36H71.1288V226.38H68.7888V222.36H64.9488V220.12ZM81.9409 220.12H85.7809V216.14H88.1209V220.12H91.9809V222.36H88.1209V226.38H85.7809V222.36H81.9409V220.12ZM98.9331 220.12H102.773V216.14H105.113V220.12H108.973V222.36H105.113V226.38H102.773V222.36H98.9331V220.12ZM115.925 220.12H119.765V216.14H122.105V220.12H125.965V222.36H122.105V226.38H119.765V222.36H115.925V220.12ZM132.918 220.12H136.758V216.14H139.098V220.12H142.957V222.36H139.098V226.38H136.758V222.36H132.918V220.12ZM149.91 220.12H153.75V216.14H156.09V220.12H159.95V222.36H156.09V226.38H153.75V222.36H149.91V220.12ZM166.902 220.12H170.742V216.14H173.082V220.12H176.942V222.36H173.082V226.38H170.742V222.36H166.902V220.12ZM183.894 220.12H187.734V216.14H190.074V220.12H193.934V222.36H190.074V226.38H187.734V222.36H183.894V220.12ZM200.886 220.12H204.726V216.14H207.066V220.12H210.926V222.36H207.066V226.38H204.726V222.36H200.886V220.12ZM217.878 220.12H221.718V216.14H224.058V220.12H227.918V222.36H224.058V226.38H221.718V222.36H217.878V220.12ZM234.871 220.12H238.711V216.14H241.051V220.12H244.911V222.36H241.051V226.38H238.711V222.36H234.871V220.12ZM251.863 220.12H255.703V216.14H258.043V220.12H261.903V222.36H258.043V226.38H255.703V222.36H251.863V220.12ZM268.855 220.12H272.695V216.14H275.035V220.12H278.895V222.36H275.035V226.38H272.695V222.36H268.855V220.12ZM285.847 220.12H289.687V216.14H292.027V220.12H295.887V222.36H292.027V226.38H289.687V222.36H285.847V220.12ZM302.839 220.12H306.679V216.14H309.019V220.12H312.879V222.36H309.019V226.38H306.679V222.36H302.839V220.12ZM319.832 220.12H323.672V216.14H326.012V220.12H329.872V222.36H326.012V226.38H323.672V222.36H319.832V220.12ZM336.824 220.12H340.664V216.14H343.004V220.12H346.864V222.36H343.004V226.38H340.664V222.36H336.824V220.12ZM353.816 220.12H357.656V216.14H359.996V220.12H363.856V222.36H359.996V226.38H357.656V222.36H353.816V220.12ZM370.808 220.12H374.648V216.14H376.988V220.12H380.848V222.36H376.988V226.38H374.648V222.36H370.808V220.12ZM387.8 220.12H391.64V216.14H393.98V220.12H397.84V222.36H393.98V226.38H391.64V222.36H387.8V220.12ZM404.793 220.12H408.633V216.14H410.973V220.12H414.832V222.36H410.973V226.38H408.633V222.36H404.793V220.12ZM-3.02 244.12H0.82V240.14H3.16V244.12H7.02V246.36H3.16V250.38H0.82V246.36H-3.02V244.12ZM13.9722 244.12H17.8122V240.14H20.1522V244.12H24.0122V246.36H20.1522V250.38H17.8122V246.36H13.9722V244.12ZM30.9644 244.12H34.8044V240.14H37.1444V244.12H41.0044V246.36H37.1444V250.38H34.8044V246.36H30.9644V244.12ZM47.9566 244.12H51.7966V240.14H54.1366V244.12H57.9966V246.36H54.1366V250.38H51.7966V246.36H47.9566V244.12ZM64.9488 244.12H68.7888V240.14H71.1288V244.12H74.9887V246.36H71.1288V250.38H68.7888V246.36H64.9488V244.12ZM81.9409 244.12H85.7809V240.14H88.1209V244.12H91.9809V246.36H88.1209V250.38H85.7809V246.36H81.9409V244.12ZM98.9331 244.12H102.773V240.14H105.113V244.12H108.973V246.36H105.113V250.38H102.773V246.36H98.9331V244.12ZM115.925 244.12H119.765V240.14H122.105V244.12H125.965V246.36H122.105V250.38H119.765V246.36H115.925V244.12ZM132.918 244.12H136.758V240.14H139.098V244.12H142.957V246.36H139.098V250.38H136.758V246.36H132.918V244.12ZM149.91 244.12H153.75V240.14H156.09V244.12H159.95V246.36H156.09V250.38H153.75V246.36H149.91V244.12ZM166.902 244.12H170.742V240.14H173.082V244.12H176.942V246.36H173.082V250.38H170.742V246.36H166.902V244.12ZM183.894 244.12H187.734V240.14H190.074V244.12H193.934V246.36H190.074V250.38H187.734V246.36H183.894V244.12ZM200.886 244.12H204.726V240.14H207.066V244.12H210.926V246.36H207.066V250.38H204.726V246.36H200.886V244.12ZM217.878 244.12H221.718V240.14H224.058V244.12H227.918V246.36H224.058V250.38H221.718V246.36H217.878V244.12ZM234.871 244.12H238.711V240.14H241.051V244.12H244.911V246.36H241.051V250.38H238.711V246.36H234.871V244.12ZM251.863 244.12H255.703V240.14H258.043V244.12H261.903V246.36H258.043V250.38H255.703V246.36H251.863V244.12ZM268.855 244.12H272.695V240.14H275.035V244.12H278.895V246.36H275.035V250.38H272.695V246.36H268.855V244.12ZM285.847 244.12H289.687V240.14H292.027V244.12H295.887V246.36H292.027V250.38H289.687V246.36H285.847V244.12ZM302.839 244.12H306.679V240.14H309.019V244.12H312.879V246.36H309.019V250.38H306.679V246.36H302.839V244.12ZM319.832 244.12H323.672V240.14H326.012V244.12H329.872V246.36H326.012V250.38H323.672V246.36H319.832V244.12ZM336.824 244.12H340.664V240.14H343.004V244.12H346.864V246.36H343.004V250.38H340.664V246.36H336.824V244.12ZM353.816 244.12H357.656V240.14H359.996V244.12H363.856V246.36H359.996V250.38H357.656V246.36H353.816V244.12ZM370.808 244.12H374.648V240.14H376.988V244.12H380.848V246.36H376.988V250.38H374.648V246.36H370.808V244.12ZM387.8 244.12H391.64V240.14H393.98V244.12H397.84V246.36H393.98V250.38H391.64V246.36H387.8V244.12ZM404.793 244.12H408.633V240.14H410.973V244.12H414.832V246.36H410.973V250.38H408.633V246.36H404.793V244.12ZM-3.02 268.12H0.82V264.14H3.16V268.12H7.02V270.36H3.16V274.38H0.82V270.36H-3.02V268.12ZM13.9722 268.12H17.8122V264.14H20.1522V268.12H24.0122V270.36H20.1522V274.38H17.8122V270.36H13.9722V268.12ZM30.9644 268.12H34.8044V264.14H37.1444V268.12H41.0044V270.36H37.1444V274.38H34.8044V270.36H30.9644V268.12ZM47.9566 268.12H51.7966V264.14H54.1366V268.12H57.9966V270.36H54.1366V274.38H51.7966V270.36H47.9566V268.12ZM64.9488 268.12H68.7888V264.14H71.1288V268.12H74.9887V270.36H71.1288V274.38H68.7888V270.36H64.9488V268.12ZM81.9409 268.12H85.7809V264.14H88.1209V268.12H91.9809V270.36H88.1209V274.38H85.7809V270.36H81.9409V268.12ZM98.9331 268.12H102.773V264.14H105.113V268.12H108.973V270.36H105.113V274.38H102.773V270.36H98.9331V268.12ZM115.925 268.12H119.765V264.14H122.105V268.12H125.965V270.36H122.105V274.38H119.765V270.36H115.925V268.12ZM132.918 268.12H136.758V264.14H139.098V268.12H142.957V270.36H139.098V274.38H136.758V270.36H132.918V268.12ZM149.91 268.12H153.75V264.14H156.09V268.12H159.95V270.36H156.09V274.38H153.75V270.36H149.91V268.12ZM166.902 268.12H170.742V264.14H173.082V268.12H176.942V270.36H173.082V274.38H170.742V270.36H166.902V268.12ZM183.894 268.12H187.734V264.14H190.074V268.12H193.934V270.36H190.074V274.38H187.734V270.36H183.894V268.12ZM200.886 268.12H204.726V264.14H207.066V268.12H210.926V270.36H207.066V274.38H204.726V270.36H200.886V268.12ZM217.878 268.12H221.718V264.14H224.058V268.12H227.918V270.36H224.058V274.38H221.718V270.36H217.878V268.12ZM234.871 268.12H238.711V264.14H241.051V268.12H244.911V270.36H241.051V274.38H238.711V270.36H234.871V268.12ZM251.863 268.12H255.703V264.14H258.043V268.12H261.903V270.36H258.043V274.38H255.703V270.36H251.863V268.12ZM268.855 268.12H272.695V264.14H275.035V268.12H278.895V270.36H275.035V274.38H272.695V270.36H268.855V268.12ZM285.847 268.12H289.687V264.14H292.027V268.12H295.887V270.36H292.027V274.38H289.687V270.36H285.847V268.12ZM302.839 268.12H306.679V264.14H309.019V268.12H312.879V270.36H309.019V274.38H306.679V270.36H302.839V268.12ZM319.832 268.12H323.672V264.14H326.012V268.12H329.872V270.36H326.012V274.38H323.672V270.36H319.832V268.12ZM336.824 268.12H340.664V264.14H343.004V268.12H346.864V270.36H343.004V274.38H340.664V270.36H336.824V268.12ZM353.816 268.12H357.656V264.14H359.996V268.12H363.856V270.36H359.996V274.38H357.656V270.36H353.816V268.12ZM370.808 268.12H374.648V264.14H376.988V268.12H380.848V270.36H376.988V274.38H374.648V270.36H370.808V268.12ZM387.8 268.12H391.64V264.14H393.98V268.12H397.84V270.36H393.98V274.38H391.64V270.36H387.8V268.12ZM404.793 268.12H408.633V264.14H410.973V268.12H414.832V270.36H410.973V274.38H408.633V270.36H404.793V268.12Z" fill="#F7F7F7"/>
</svg>
