<svg width="40" height="40" viewBox="0 0 40 40" fill="none" xmlns="http://www.w3.org/2000/svg">
<path d="M20 0C8.97195 0 0 8.97195 0 20C0 31.028 8.97195 40 20 40C31.028 40 40 31.028 40 20C40 8.97195 31.028 0 20 0ZM20 37.6562C10.2643 37.6562 2.34375 29.7357 2.34375 20C2.34375 10.2643 10.2643 2.34375 20 2.34375C29.7357 2.34375 37.6562 10.2643 37.6562 20C37.6562 29.7357 29.7357 37.6562 20 37.6562Z" fill="black"/>
<path d="M15.2257 16.2501C15.4353 16.8624 16.1016 17.1887 16.714 16.9792C17.3263 16.7695 17.6528 16.1033 17.4432 15.4909C16.7347 13.4216 14.7891 12.0312 12.6018 12.0312C10.4129 12.0312 8.46698 13.4229 7.75941 15.4943C7.55019 16.1067 7.87706 16.7728 8.48956 16.982C8.61503 17.0249 8.74284 17.0453 8.86847 17.0453C9.35581 17.0453 9.81097 16.7388 9.97738 16.252C10.3608 15.1293 11.4156 14.3751 12.6019 14.3751C13.7873 14.375 14.8418 15.1286 15.2257 16.2501Z" fill="black"/>
<path d="M27.4057 12.0312C25.2168 12.0312 23.2708 13.4229 22.5632 15.4943C22.354 16.1067 22.6809 16.7728 23.2934 16.982C23.4189 17.0249 23.5467 17.0453 23.6723 17.0453C24.1596 17.0453 24.6148 16.7388 24.7812 16.252C25.1646 15.1293 26.2194 14.3751 27.4057 14.3751C28.5912 14.3751 29.6457 15.1287 30.0296 16.2502C30.2393 16.8625 30.9054 17.1888 31.5179 16.9793C32.1302 16.7696 32.4567 16.1034 32.2471 15.491C31.5386 13.4216 29.593 12.0312 27.4057 12.0312Z" fill="black"/>
<path d="M27.6469 24.8917C27.0909 24.5602 26.3716 24.7425 26.0404 25.2986C24.779 27.4157 22.4645 28.7308 20 28.7308C17.5426 28.7308 15.2315 27.4213 13.9685 25.3133C13.6359 24.7583 12.9163 24.5778 12.3609 24.9104C11.8057 25.243 11.6253 25.9627 11.9579 26.5179C13.6419 29.3286 16.7235 31.0746 20 31.0746C23.2858 31.0746 26.3718 29.3211 28.0537 26.4983C28.3851 25.9423 28.2029 25.2229 27.6469 24.8917Z" fill="black"/>
</svg>
