<svg width="40" height="40" viewBox="0 0 40 40" fill="none" xmlns="http://www.w3.org/2000/svg">
<path d="M20 0C8.97195 0 0 8.97195 0 20C0 31.028 8.97195 40 20 40C31.028 40 40 31.028 40 20C40 8.97195 31.028 0 20 0ZM20 37.6562C10.2643 37.6562 2.34375 29.7357 2.34375 20C2.34375 10.2643 10.2643 2.34375 20 2.34375C29.7357 2.34375 37.6562 10.2643 37.6562 20C37.6562 29.7357 29.7357 37.6562 20 37.6562Z" fill="black"/>
<path d="M16.0076 16.0957V16.0956L16.4799 16.2225C16.5817 16.2499 16.6839 16.2629 16.7845 16.2629C17.3016 16.2629 17.7751 15.9179 17.9156 15.3947C18.0834 14.7697 17.7128 14.1268 17.0877 13.959L8.10889 11.5479C7.48404 11.3801 6.84108 11.7508 6.67319 12.3758C6.50537 13.0008 6.876 13.6436 7.50108 13.8115L8.23608 14.0088V14.0089C7.66076 16.1515 8.93584 18.3627 11.0784 18.9381C11.4265 19.0316 11.7765 19.0763 12.1208 19.0763C13.8963 19.0761 15.5257 17.8901 16.0076 16.0957ZM11.6862 16.6745C10.7918 16.4343 10.2594 15.5111 10.4997 14.6166L13.744 15.4879C13.5038 16.3822 12.5805 16.9143 11.6862 16.6745Z" fill="black"/>
<path d="M33.3267 12.3756C33.1588 11.7507 32.516 11.3798 31.891 11.5478L22.9122 13.9589C22.2871 14.1267 21.9165 14.7696 22.0843 15.3946C22.2249 15.9178 22.6981 16.2628 23.2154 16.2628C23.316 16.2628 23.4183 16.2498 23.52 16.2224L23.9923 16.0956V16.0956C24.4742 17.8903 26.1034 19.076 27.8791 19.076C28.2234 19.076 28.5735 19.0314 28.9216 18.9378C31.0641 18.3624 32.3392 16.1512 31.7638 14.0085L32.4988 13.8112C33.1239 13.6435 33.4945 13.0007 33.3267 12.3756ZM28.3138 16.6746C27.4192 16.9144 26.496 16.3824 26.2559 15.4879V15.488L29.5003 14.6167C29.7405 15.5111 29.2081 16.4342 28.3138 16.6746Z" fill="black"/>
<path d="M20 24.5312C16.7235 24.5312 13.6419 26.2773 11.9579 29.088C11.6253 29.6431 11.8057 30.3628 12.3609 30.6955C12.9161 31.028 13.6357 30.8478 13.9685 30.2925C15.2314 28.1845 17.5425 26.875 20 26.875C22.4643 26.875 24.7789 28.1902 26.0404 30.3073C26.2596 30.6753 26.6488 30.8795 27.0482 30.8795C27.2522 30.8795 27.4589 30.8261 27.6469 30.7141C28.2029 30.3829 28.3851 29.6636 28.0538 29.1077C26.3718 26.2848 23.2858 24.5312 20 24.5312Z" fill="black"/>
</svg>
