<svg width="70" height="70" viewBox="0 0 70 70" fill="none" xmlns="http://www.w3.org/2000/svg">
<path d="M60.6938 23.9308V18.9701C63.064 18.6168 64.8905 16.5709 64.8905 14.1002C64.8905 11.3822 62.6823 9.17063 59.9681 9.17063C58.3198 9.17063 56.8613 9.98657 55.9655 11.2329H43.6461V11.0213C43.6461 9.3254 42.4763 7.88876 40.8647 7.60493C39.9552 7.4447 39.0283 7.66454 38.2977 8.19829C37.9799 6.66868 36.6248 5.51587 35.0055 5.51587C33.4518 5.51587 32.2148 6.54017 31.7937 7.86087C31.2227 7.41517 30.5047 7.14938 29.7254 7.14938C28.2401 7.14938 26.8811 8.13157 26.4775 9.65681C25.9137 9.23188 25.2126 8.97978 24.4535 8.97978C23.0655 8.97978 21.7864 9.80938 21.2866 11.2334H14.035C13.1409 9.98712 11.6845 9.17118 10.039 9.17118C7.32102 9.17118 5.10945 11.3822 5.10945 14.1007C5.10945 16.5693 6.93547 18.6146 9.30672 18.9701V23.945L0.0645313 43.8409C0.0410156 43.9442 0.0240625 43.8644 0 44.2007C0.0295313 49.7132 4.51773 54.1888 10.0324 54.1888C15.5509 54.1888 20.0419 49.7132 20.0714 44.2013C20.0599 44.1269 20.1119 44.1996 20.0063 43.8403L10.7652 23.9324V18.9701C12.1067 18.7699 13.2716 18.0284 14.0312 16.9718H21.0837V28.326C21.0837 30.9056 22.0571 33.331 23.8159 35.203V37.5808C23.1962 37.8542 22.762 38.4711 22.762 39.1892V63.7553C22.762 64.1578 23.088 64.4843 23.491 64.4843H41.7452C42.1482 64.4843 42.4741 64.1578 42.4741 63.7553V39.1892C42.4741 38.4706 42.0405 37.8531 41.422 37.5802L41.4225 35.2254L47.7121 28.9358C48.4898 28.1587 48.918 27.1256 48.918 26.0286C48.918 25.922 48.918 17.2502 48.918 16.9713H55.9683C56.7284 18.0262 57.8927 18.7672 59.2342 18.9684V23.945C59.1992 24.0199 49.9548 43.9295 49.9882 43.8545C49.9226 44.0006 49.9368 44.1269 49.928 44.2002C49.9576 49.7127 54.4458 54.1883 59.9605 54.1883C65.479 54.1883 69.9694 49.7127 69.9989 44.2007C69.9874 44.0563 70.0241 44.1406 69.9338 43.8398L60.6938 23.9308ZM10.0324 52.7303C5.54805 52.7303 1.85719 49.2691 1.48586 44.8761H18.585C18.2142 49.2691 14.5201 52.7303 10.0324 52.7303ZM18.2027 43.4176H1.86977L10.0395 25.8306L18.2027 43.4176ZM10.0417 17.5706C10.0395 17.5706 10.0379 17.5695 10.0362 17.5695C10.0352 17.5695 10.0341 17.5701 10.0324 17.5701C8.12164 17.5663 6.56797 16.0115 6.56797 14.0996C6.56797 12.1856 8.12492 10.6286 10.039 10.6286C11.9487 10.6286 13.5029 12.1856 13.5029 14.0996C13.5029 16.0131 11.9503 17.569 10.0417 17.5706ZM21.0842 15.5133H14.7525C15.0276 14.5951 15.0336 13.6282 14.7536 12.6914H21.0837C21.0842 12.8478 21.0842 15.5899 21.0842 15.5133ZM38.3671 10.919C38.3671 9.71751 39.4636 8.83813 40.6104 9.04102C41.5248 9.20181 42.1876 10.0347 42.1876 11.0213V15.5122H38.3682C38.366 13.8098 38.3737 11.2274 38.3611 10.9463C38.3616 10.9365 38.3671 10.9288 38.3671 10.919ZM33.0941 8.88462C33.0941 7.88985 33.8882 6.97384 35.0049 6.97384C36.0544 6.97384 36.9086 7.83079 36.9086 8.88462C36.9086 9.74868 36.9102 15.9049 36.9102 15.5122H36.6007C36.1977 15.5122 35.8717 15.8387 35.8717 16.2412C35.8717 16.9467 36.0041 17.6199 36.2343 18.2466C35.8848 18.5397 35.4566 18.707 35.0055 18.707C33.9522 18.707 33.0947 17.8501 33.0947 16.7963C33.0941 14.1565 33.0941 11.8055 33.0941 8.88462ZM27.8223 10.5181C27.8223 9.42767 28.7033 8.60735 29.7248 8.60735C30.7781 8.60735 31.6356 9.46431 31.6356 10.5181V18.4298C31.6356 19.4306 30.8372 20.3406 29.7248 20.3406C28.6759 20.3406 27.8223 19.4836 27.8223 18.4298C27.8223 18.3592 27.8223 10.8342 27.8223 10.5181ZM22.5427 12.348C22.5427 11.333 23.3516 10.4372 24.4535 10.4372C25.5068 10.4372 26.3643 11.2942 26.3643 12.348V16.3954C26.3643 17.5766 25.2886 18.4784 24.1205 18.2728C23.2066 18.112 22.5433 17.2792 22.5433 16.2931C22.5427 16.2045 22.5427 12.1413 22.5427 12.348ZM41.0167 63.0263H24.2211V39.1892C24.2211 39.0229 24.3578 38.8878 24.5268 38.8878H40.7159C40.8816 38.8878 41.0173 39.0229 41.0173 39.1892L41.0167 63.0263ZM25.2749 37.4271V35.6542H39.9645L39.964 37.4271H25.2749ZM47.46 26.0286C47.46 26.7363 47.1838 27.4029 46.6818 27.9049L40.3927 34.194L24.8555 34.1934C23.362 32.5949 22.5427 30.5228 22.5427 28.3255V19.1429C22.9316 19.4185 23.3745 19.6225 23.8667 19.7089C24.7784 19.8708 25.7042 19.6493 26.4338 19.1156C26.7515 20.6452 28.1066 21.7985 29.7254 21.7985C31.2643 21.7985 32.503 20.7983 32.9345 19.4519C33.5054 19.8987 34.2251 20.1656 35.0055 20.1656C35.6945 20.1656 36.353 19.9523 36.9157 19.5629C37.9706 21.0788 39.7228 22.0752 41.7052 22.0752H42.1854V25.222C42.1854 25.6245 42.5113 25.9509 42.9144 25.9509C43.3174 25.9509 43.6434 25.6245 43.6434 25.222V21.3457C43.6434 20.9432 43.3174 20.6167 42.9144 20.6167H41.7047C39.5407 20.6167 37.7382 19.0374 37.3898 16.9707H42.7645V16.9718H47.46V26.0286ZM55.0862 15.5133C54.5048 15.5133 52.0953 15.5133 43.6455 15.5122V12.6909H55.2453C54.968 13.6178 54.968 14.5852 55.2464 15.5127C55.1616 15.5133 55.1135 15.5133 55.0862 15.5133ZM56.4966 14.0996C56.4966 12.1856 58.0541 10.6286 59.9681 10.6286C61.8778 10.6286 63.432 12.1856 63.432 14.0996C63.432 16.0131 61.8795 17.5695 59.9703 17.5706C59.9681 17.5706 59.9665 17.5695 59.9643 17.5695C59.9632 17.5695 59.9621 17.5701 59.9605 17.5701C58.0502 17.5663 56.4966 16.0115 56.4966 14.0996ZM59.9681 25.8312L68.1313 43.4181H51.7984L59.9681 25.8312ZM59.9616 52.7303C55.4772 52.7303 51.7863 49.2691 51.415 44.8761H68.513C68.1428 49.2691 64.4487 52.7303 59.9616 52.7303Z" fill="black"/>
</svg>
