<svg width="60" height="60" viewBox="0 0 60 60" fill="none" xmlns="http://www.w3.org/2000/svg">
<path d="M56.2445 22.3955L56.5875 22.0522C61.1303 17.5095 61.1303 10.1177 56.5875 5.57498C52.0445 1.0322 44.6528 1.03232 40.1099 5.57521L37.0212 8.66626C35.9457 7.84959 34.6447 7.39103 33.3415 7.3881C32.3489 7.38576 30.8468 7.3881 29.1073 7.39056C28.1582 7.39197 27.1566 7.39337 26.1664 7.39419C24.3688 7.3956 22.6786 8.0965 21.4073 9.36775L2.10094 28.6742C0.746133 30.029 0 31.8302 0 33.7463C0 35.6623 0.746133 37.4636 2.10094 38.8184L8.11512 44.8327C9.51363 46.2311 11.3504 46.9302 13.1872 46.9302C15.0241 46.9302 16.8611 46.2311 18.2595 44.8327L30.283 32.8091C30.3626 34.996 30.9357 37.1679 32.0045 39.1832L27.8149 43.3726C27.282 43.9056 27.2854 44.3425 27.2955 45.6395C27.2958 45.6624 27.2959 45.6856 27.2961 45.7092C27.2467 45.7085 27.1991 45.7078 27.1533 45.7071C25.7305 45.6859 25.4358 45.7096 24.5872 46.5924C24.4944 46.6889 24.3871 46.8006 24.2576 46.93C23.7246 47.4631 23.728 47.9002 23.7382 49.1977C23.7384 49.2212 23.7387 49.2452 23.7388 49.2696C23.7137 49.2694 23.689 49.2693 23.6648 49.269C22.3689 49.2586 21.9322 49.2554 21.399 49.7884L21.1597 50.027C19.6377 51.5418 19.5483 51.7793 19.566 54.2617C19.568 54.537 19.5701 54.846 19.5701 55.1953C19.5701 55.8996 19.8444 56.5617 20.3423 57.0598C20.8404 57.5578 21.5025 57.8322 22.2068 57.832H24.4501C25.3109 57.832 26.1202 57.4969 26.7288 56.8881L26.7284 56.8876C26.844 56.7729 27.4052 56.2116 30.3629 53.2541C33.2201 50.397 36.9263 46.6908 38.2188 45.3982C42.7291 47.7906 48.025 47.7065 52.5182 45.1379C57.2032 42.46 60 37.6443 60 32.256C60 28.4751 58.5792 25.0202 56.2445 22.3955ZM30.4245 30.1815L17.0164 43.5897C14.905 45.7009 11.4694 45.7009 9.35813 43.5897L3.34395 37.5754C2.32113 36.5526 1.75781 35.1927 1.75781 33.7463C1.75781 32.2998 2.32113 30.9399 3.34395 29.917L22.6504 10.6108C23.59 9.67115 24.8392 9.15306 26.1679 9.15201C27.1582 9.15119 28.1604 9.14978 29.1097 9.14837C30.8476 9.14591 32.3489 9.1438 33.3373 9.14591C34.2173 9.1479 35.0577 9.43748 35.7666 9.92169L34.4748 11.2144C34.1307 11.0496 33.7458 10.9572 33.3396 10.9572C31.8858 10.9572 30.7029 12.1399 30.7029 13.5939C30.7029 15.0478 31.8858 16.2306 33.3396 16.2306C34.7934 16.2306 35.9763 15.0478 35.9763 13.5939C35.9763 13.187 35.8835 12.8015 35.7183 12.4569L37.01 11.1642C37.4953 11.8737 37.7856 12.715 37.7876 13.5962C37.7906 14.9504 37.7825 16.0955 37.7824 16.1069C37.779 16.5922 38.1696 16.9886 38.655 16.9921C38.6572 16.9921 38.6592 16.9921 38.6614 16.9921C39.1439 16.9921 39.5367 16.6028 39.5402 16.1195C39.5404 16.108 39.5484 14.9551 39.5454 13.5921C39.5423 12.2899 39.0821 10.987 38.2637 9.90951L41.3531 6.81798C45.2105 2.96052 51.4871 2.96052 55.3445 6.81798C57.2132 8.68666 58.2422 11.171 58.2422 13.8136C58.2422 16.4562 57.2132 18.9407 55.3443 20.8096L55.0013 21.1528C52.3772 18.8213 48.9246 17.4025 45.1465 17.4025C39.7583 17.4025 34.9426 20.1993 32.2643 24.884C31.3032 26.565 30.6901 28.3587 30.4245 30.1815ZM34.2186 13.5939C34.2186 14.0786 33.8244 14.4728 33.3397 14.4728C32.855 14.4728 32.4608 14.0786 32.4608 13.5939C32.4608 13.1092 32.855 12.715 33.3397 12.715C33.5804 12.715 33.7987 12.8124 33.9575 12.9696C33.9586 12.9707 33.9594 12.9717 33.9604 12.9728C33.9614 12.9738 33.9626 12.9747 33.9636 12.9757C34.1211 13.1347 34.2186 13.3531 34.2186 13.5939ZM51.6461 43.6119C47.5072 45.9779 42.598 45.9545 38.5137 43.5495C38.2079 43.3695 37.8241 43.391 37.5403 43.6037C37.4899 43.6416 37.4899 43.6416 29.1202 52.0112C27.1279 54.0035 25.5484 55.5829 25.4882 55.6432C25.4875 55.6439 25.4868 55.6446 25.4859 55.6453C25.2094 55.922 24.8415 56.0744 24.4502 56.0744H22.571L35.8864 42.759C36.2297 42.4158 36.2297 41.8593 35.8864 41.5161C35.5431 41.1729 34.9867 41.1729 34.6434 41.5161L21.3273 54.832C21.3265 54.6231 21.3252 54.4282 21.3239 54.2492C21.3169 53.2594 21.313 52.7141 21.424 52.4141C21.5198 52.1551 21.7766 51.8931 22.3998 51.2729L22.6335 51.04C22.79 51.0201 23.1926 51.0232 23.6511 51.0267C23.9191 51.0288 24.2386 51.0313 24.6218 51.0313C25.1073 51.0313 25.5007 50.6378 25.5007 50.1524C25.5007 49.7701 25.4982 49.4514 25.4961 49.1837C25.4925 48.7238 25.4893 48.3203 25.5095 48.1638C25.6444 48.0287 25.757 47.9117 25.8545 47.8102C25.989 47.6701 26.1417 47.5113 26.1867 47.4849C26.2822 47.4517 26.6923 47.458 27.1268 47.4645C27.4061 47.4687 27.7535 47.474 28.179 47.474C28.6645 47.474 29.0579 47.0804 29.0579 46.5951C29.0579 46.2123 29.0555 45.8933 29.0534 45.6254C29.0497 45.1661 29.0464 44.7631 29.0667 44.6066L33.7174 39.956C34.0007 39.6728 34.0566 39.2338 33.8532 38.8887C31.4482 34.8033 31.4245 29.894 33.7902 25.7563C36.1515 21.626 40.3969 19.1602 45.1464 19.1602C48.44 19.1602 51.4533 20.3829 53.7571 22.3976L49.7092 26.4485C49.3652 26.2838 48.9803 26.1913 48.5741 26.1913C47.1203 26.1913 45.9374 27.3741 45.9374 28.828C45.9374 30.282 47.1203 31.4647 48.5741 31.4647C50.0279 31.4647 51.2108 30.282 51.2108 28.828C51.2108 28.4211 51.118 28.0355 50.9528 27.6911L55.0004 23.6404C57.0178 25.9449 58.2422 28.96 58.2422 32.256C58.2422 37.0056 55.7763 41.2508 51.6461 43.6119ZM49.4531 28.8283C49.4531 29.3129 49.0589 29.7072 48.5742 29.7072C48.0895 29.7072 47.6953 29.3129 47.6953 28.8283C47.6953 28.3436 48.0895 27.9494 48.5742 27.9494C48.8149 27.9494 49.0332 28.0467 49.192 28.204C49.193 28.2051 49.1938 28.2061 49.1948 28.207C49.1959 28.2081 49.1971 28.209 49.1982 28.2101C49.3556 28.369 49.4531 28.5874 49.4531 28.8283Z" fill="black"/>
<path d="M45.1465 22.6758C39.864 22.6758 35.5664 26.9734 35.5664 32.2559C35.5664 34.1728 36.1331 36.0241 37.2053 37.6097C37.3751 37.8609 37.6521 37.9964 37.9342 37.9964C38.1035 37.9964 38.2748 37.9475 38.4257 37.8455C38.8279 37.5736 38.9333 37.0271 38.6614 36.6251C37.7866 35.3313 37.3242 33.8204 37.3242 32.2559C37.3242 27.9427 40.8333 24.4336 45.1465 24.4336C45.632 24.4336 46.0254 24.0401 46.0254 23.5547C46.0254 23.0693 45.632 22.6758 45.1465 22.6758Z" fill="black"/>
<path d="M53.8474 31.377C53.3619 31.377 52.9685 31.7705 52.9685 32.2559C52.9685 36.5691 49.4595 40.0781 45.1463 40.0781C43.6126 40.0781 42.1268 39.6325 40.8496 38.7894C40.4445 38.522 39.8993 38.6336 39.6318 39.0387C39.3645 39.4438 39.476 39.9889 39.8811 40.2564C41.4465 41.2897 43.2673 41.8359 45.1463 41.8359C50.4287 41.8359 54.7263 37.5383 54.7263 32.2559C54.7263 31.7705 54.3329 31.377 53.8474 31.377Z" fill="black"/>
</svg>
