<svg width="70" height="70" viewBox="0 0 70 70" fill="none" xmlns="http://www.w3.org/2000/svg">
<path d="M34.4239 69.9999C43.5337 69.9999 52.7125 64.2834 53.8347 52.5918C54.7332 43.2446 46.7794 38.6404 48.2828 31.1143C48.4195 30.4346 47.6156 29.9676 47.0906 30.416C45.6141 31.6787 44.6658 33.4074 44.2551 35.5758C43.14 29.8598 47.5298 22.8374 42.1638 17.5693C41.6897 17.0996 40.8781 17.4698 40.9224 18.1392C41.1521 21.619 41.145 24.1663 39.2326 25.7101C40.3854 16.4204 28.5838 9.81247 34.6552 1.15653C35.1299 0.48005 34.2861 -0.338622 33.6238 0.14755C22.6048 8.25497 30.8419 21.2837 30.2944 31.9855C28.994 28.5517 27.5683 25.0714 24.5878 22.6148C23.9447 22.0843 22.9986 22.9457 23.3119 23.6287C27.7755 33.4003 16.4454 41.1626 16.1714 51.2678C15.1827 62.8243 24.0212 69.9999 34.4239 69.9999ZM38.6687 68.0765C37.6286 68.3035 36.5698 68.4446 35.5062 68.5025C32.5771 68.4692 29.6809 67.3164 27.833 65.3022C26.603 63.9613 25.413 61.788 25.9282 58.6178C26.7655 60.1436 28.1436 61.5124 29.4829 61.6901C30.2097 61.7858 31.5337 61.6218 32.2391 59.4304C32.3726 56.5615 31.3149 54.2811 30.3508 52.4365C29.2729 50.3736 28.3082 48.5285 29.0191 45.8029C29.7202 48.2671 31.4746 50.2659 33.1289 52.2144C33.3799 52.5108 33.8202 52.56 34.1291 52.3243C34.1887 52.2511 34.7498 52.0006 34.5573 51.3908C32.7674 45.7159 33.5916 40.158 36.928 35.1197C36.2428 39.814 38.7191 43.8708 41.1308 47.8214C43.7388 52.0936 46.2025 56.1284 45.0059 60.9874C44.2901 64.5858 42.0391 67.0954 38.6687 68.0765ZM17.6299 51.3498C17.8727 42.4883 27.5579 35.059 25.541 25.7068C27.6 28.3936 28.6227 31.8532 29.9565 35.1968C30.2206 35.8585 31.188 35.789 31.3488 35.0879C33.7053 24.7017 25.4404 12.3265 31.7037 4.03146C29.6349 12.3325 39.856 18.8009 37.4853 26.9586C37.3136 27.5476 37.9042 28.077 38.4735 27.8353C41.9571 26.3527 42.522 23.323 42.4914 20.3836C45.3521 25.6358 40.4269 32.7582 43.9062 38.7936C44.272 39.4279 45.4888 39.1895 45.4823 38.385C45.4637 36.3108 45.8492 34.5848 46.6323 33.2291C46.7669 40.1115 53.1423 44.5018 52.3789 52.4529C51.7773 58.7124 48.6694 63.1136 44.5236 65.7118C45.4423 64.4611 46.0997 62.9797 46.4322 61.3068C47.7671 55.8883 45.0278 51.4012 42.3787 47.0612C39.3775 42.1448 36.5425 37.5002 39.5946 31.7307C39.9927 30.9793 38.9914 30.2678 38.4117 30.8923C33.3225 36.3922 31.3056 42.6594 32.4973 49.1612C31.0273 47.2707 29.9357 45.3194 30.213 42.8612C30.2512 42.5145 30.0401 42.1886 29.7077 42.0825C29.3735 41.9775 29.0137 42.1213 28.8458 42.4275C26.0901 47.4413 27.5973 50.3255 29.0547 53.1146C30.0046 54.9335 30.9037 56.6529 30.8167 59.0744C30.5307 59.9111 30.1435 60.3022 29.6754 60.2415C28.4548 60.0796 26.6687 57.6531 26.5927 56.054C26.5549 55.2611 25.4546 55.0954 25.1779 55.8315C23.6773 59.8313 24.2367 63.5457 26.7556 66.2904C27.1647 66.7361 27.6317 67.1299 28.1223 67.4985C21.9929 65.3897 16.8873 60.0386 17.6299 51.3498Z" fill="black"/>
</svg>
