<svg width="65" height="65" viewBox="0 0 65 65" fill="none" xmlns="http://www.w3.org/2000/svg">
<path d="M28.2602 15.6728L27.5239 19.9017C27.4996 20.0417 27.5149 20.1857 27.5681 20.3175C27.6214 20.4492 27.7104 20.5635 27.8252 20.6473C27.94 20.7311 28.0759 20.7811 28.2176 20.7917C28.3593 20.8023 28.5012 20.773 28.6271 20.7072L32.4313 18.719L36.2258 20.7256C36.3514 20.792 36.493 20.822 36.6348 20.8121C36.7765 20.8022 36.9127 20.7529 37.0278 20.6697C37.143 20.5865 37.2326 20.4727 37.2865 20.3413C37.3404 20.2098 37.3565 20.0659 37.3329 19.9258L36.6176 15.6934L39.6985 12.7047C39.8005 12.6058 39.8728 12.4802 39.9071 12.3423C39.9415 12.2044 39.9367 12.0597 39.8931 11.9244C39.8495 11.7891 39.7689 11.6687 39.6605 11.5768C39.5521 11.485 39.4201 11.4253 39.2795 11.4045L35.0337 10.7766L33.1434 6.92276C33.0808 6.79518 32.9837 6.68765 32.8632 6.61234C32.7427 6.53702 32.6035 6.49693 32.4614 6.49658H32.4595C32.3176 6.49659 32.1786 6.53619 32.0581 6.61092C31.9376 6.68566 31.8403 6.79256 31.7772 6.91959L29.8683 10.764L25.6188 11.3709C25.4781 11.391 25.3459 11.4501 25.237 11.5415C25.1281 11.6328 25.0469 11.7528 25.0027 11.8879C24.9584 12.0229 24.9529 12.1677 24.9866 12.3058C25.0203 12.4438 25.092 12.5697 25.1935 12.6692L28.2602 15.6728ZM30.4801 12.2156C30.6024 12.1981 30.7186 12.1512 30.8187 12.0788C30.9188 12.0064 30.9998 11.9108 31.0547 11.8002L32.4554 8.9794L33.8424 11.8065C33.8967 11.9174 33.9773 12.0134 34.077 12.0862C34.1767 12.159 34.2926 12.2065 34.4148 12.2246L37.5305 12.6849L35.2698 14.8788C35.1812 14.9648 35.1148 15.0711 35.0763 15.1884C35.0379 15.3058 35.0286 15.4308 35.0492 15.5525L35.5741 18.6579L32.7899 17.1853C32.6807 17.1276 32.5592 17.0972 32.4357 17.097C32.3122 17.0967 32.1905 17.1264 32.081 17.1836L29.2898 18.6423L29.8297 15.5395C29.8509 15.4178 29.8421 15.2928 29.8043 15.1753C29.7664 15.0578 29.7005 14.9512 29.6123 14.8648L27.3624 12.6609L30.4801 12.2156Z" fill="black"/>
<path d="M48.0504 18.4651L47.4039 22.1804C47.3795 22.3204 47.3948 22.4644 47.4481 22.5962C47.5013 22.728 47.5903 22.8422 47.7051 22.926C47.8199 23.0099 47.9558 23.0599 48.0975 23.0705C48.2393 23.0811 48.3811 23.0518 48.5071 22.986L51.8493 21.2392L55.1828 23.0021C55.3084 23.0685 55.4501 23.0985 55.5918 23.0886C55.7335 23.0787 55.8697 23.0294 55.9848 22.9462C56.1 22.863 56.1896 22.7492 56.2435 22.6178C56.2975 22.4863 56.3135 22.3424 56.29 22.2023L55.6615 18.4841L58.3682 15.8583C58.4702 15.7594 58.5425 15.6339 58.5769 15.496C58.6113 15.3581 58.6064 15.2133 58.5628 15.078C58.5192 14.9427 58.4387 14.8223 58.3302 14.7305C58.2218 14.6386 58.0898 14.5789 57.9492 14.5581L54.2188 14.0069L52.5582 10.6208C52.4956 10.4932 52.3985 10.3856 52.2779 10.3103C52.1574 10.235 52.0182 10.1949 51.8761 10.1946H51.8743C51.7325 10.1946 51.5934 10.2342 51.4729 10.3089C51.3524 10.3837 51.2551 10.4906 51.192 10.6176L49.515 13.9945L45.7819 14.5277C45.6412 14.5478 45.509 14.6069 45.4001 14.6982C45.2912 14.7896 45.2101 14.9095 45.1658 15.0446C45.1216 15.1796 45.116 15.3244 45.1497 15.4624C45.1834 15.6005 45.255 15.7264 45.3565 15.8258L48.0504 18.4651ZM50.1266 15.4465C50.2489 15.429 50.3651 15.3821 50.4652 15.3097C50.5653 15.2374 50.6463 15.1418 50.7012 15.0311L51.87 12.6774L53.0274 15.0368C53.0818 15.1477 53.1623 15.2437 53.262 15.3165C53.3617 15.3893 53.4777 15.4368 53.5998 15.4549L56.1996 15.839L54.3133 17.6689C54.2247 17.7549 54.1583 17.8612 54.1198 17.9785C54.0814 18.0959 54.0721 18.2208 54.0927 18.3426L54.5306 20.9339L52.2074 19.7054C52.0983 19.6476 51.9767 19.6172 51.8532 19.6169C51.7297 19.6166 51.6079 19.6464 51.4985 19.7036L49.1694 20.9209L49.62 18.331C49.6411 18.2094 49.6324 18.0844 49.5945 17.9669C49.5566 17.8493 49.4907 17.7428 49.4025 17.6564L47.5251 15.8183L50.1266 15.4465Z" fill="black"/>
<path d="M9.21843 18.4651L8.57199 22.1804C8.54762 22.3204 8.56291 22.4645 8.61615 22.5962C8.66938 22.728 8.75844 22.8423 8.87323 22.9261C8.98803 23.01 9.12399 23.06 9.26574 23.0706C9.40749 23.0811 9.54937 23.0519 9.67534 22.986L13.0174 21.2392L16.3513 23.0021C16.4769 23.0686 16.6186 23.0985 16.7603 23.0887C16.9021 23.0788 17.0383 23.0295 17.1534 22.9463C17.2686 22.8631 17.3583 22.7493 17.4122 22.6178C17.4661 22.4864 17.4822 22.3424 17.4586 22.2023L16.83 18.4841L19.5367 15.8583C19.6387 15.7594 19.711 15.6339 19.7454 15.496C19.7798 15.3581 19.7749 15.2133 19.7313 15.078C19.6877 14.9427 19.6072 14.8223 19.4987 14.7305C19.3903 14.6386 19.2583 14.5789 19.1177 14.5581L15.3865 14.0063L13.726 10.6208C13.6634 10.4932 13.5664 10.3856 13.4459 10.3103C13.3253 10.235 13.1862 10.1949 13.044 10.1946H13.0421C12.9003 10.1946 12.7613 10.2342 12.6408 10.3089C12.5202 10.3837 12.423 10.4906 12.3599 10.6176L10.6828 13.9945L6.94978 14.5277C6.80911 14.5479 6.67686 14.6069 6.568 14.6983C6.45914 14.7896 6.378 14.9096 6.33376 15.0446C6.28951 15.1797 6.28393 15.3244 6.31763 15.4625C6.35134 15.6005 6.42299 15.7264 6.52449 15.8258L9.21843 18.4651ZM11.2948 15.4465C11.4171 15.4291 11.5334 15.3822 11.6336 15.3099C11.7338 15.2376 11.8149 15.1419 11.8698 15.0312L13.0387 12.6775L14.196 15.037C14.2504 15.1478 14.3309 15.2438 14.4307 15.3167C14.5304 15.3895 14.6464 15.437 14.7686 15.455L17.3683 15.8392L15.482 17.6691C15.3934 17.755 15.327 17.8613 15.2885 17.9786C15.2501 18.096 15.2407 18.2209 15.2613 18.3427L15.6993 20.9341L13.376 19.7055C13.2669 19.6477 13.1453 19.6174 13.0218 19.617C12.8983 19.6167 12.7766 19.6465 12.6671 19.7037L10.3375 20.9209L10.788 18.331C10.8091 18.2094 10.8004 18.0844 10.7625 17.9669C10.7247 17.8493 10.6588 17.7428 10.5706 17.6564L8.69323 15.8183L11.2948 15.4465Z" fill="black"/>
<path d="M32.5 23.7588C30.8808 23.7606 29.3283 24.4047 28.1833 25.5497C27.0383 26.6948 26.3943 28.2472 26.3925 29.8665V33.4305C26.3925 35.0503 27.0359 36.6038 28.1813 37.7492C29.3267 38.8946 30.8802 39.538 32.5 39.538C34.1199 39.538 35.6734 38.8946 36.8188 37.7492C37.9642 36.6038 38.6076 35.0503 38.6076 33.4305V29.8665C38.6058 28.2472 37.9618 26.6948 36.8168 25.5497C35.6718 24.4047 34.1193 23.7606 32.5 23.7588ZM37.0842 33.4305C37.0842 34.6463 36.6012 35.8122 35.7415 36.6719C34.8818 37.5316 33.7158 38.0146 32.5 38.0146C31.2843 38.0146 30.1183 37.5316 29.2586 36.6719C28.3989 35.8122 27.9159 34.6463 27.9159 33.4305V29.8665C27.9159 28.6507 28.3989 27.4847 29.2586 26.625C30.1183 25.7653 31.2843 25.2824 32.5 25.2824C33.7158 25.2824 34.8818 25.7653 35.7415 26.625C36.6012 27.4847 37.0842 28.6507 37.0842 29.8665V33.4305Z" fill="black"/>
<path d="M51.4536 26.7791C49.9632 26.7807 48.5343 27.3735 47.4804 28.4274C46.4265 29.4813 45.8337 30.9102 45.832 32.4007V35.6405C45.832 37.1315 46.4243 38.5613 47.4786 39.6156C48.5328 40.6698 49.9627 41.2621 51.4536 41.2621C52.9446 41.2621 54.3745 40.6698 55.4287 39.6156C56.483 38.5613 57.0753 37.1315 57.0753 35.6405V32.4007C57.0736 30.9102 56.4808 29.4813 55.4269 28.4274C54.373 27.3735 52.9441 26.7807 51.4536 26.7791ZM55.5518 35.6404C55.5518 36.7273 55.12 37.7697 54.3515 38.5382C53.5829 39.3068 52.5405 39.7386 51.4536 39.7386C50.3667 39.7386 49.3243 39.3068 48.5558 38.5382C47.7872 37.7697 47.3555 36.7273 47.3555 35.6404V32.4005C47.3555 31.3136 47.7872 30.2712 48.5558 29.5027C49.3243 28.7341 50.3667 28.3024 51.4536 28.3024C52.5405 28.3024 53.5829 28.7341 54.3515 29.5027C55.12 30.2712 55.5518 31.3136 55.5518 32.4005V35.6404Z" fill="black"/>
<path d="M57.9337 42.4H55.8855C55.702 42.3998 55.5261 42.3268 55.3964 42.1971C55.2666 42.0674 55.1936 41.8915 55.1934 41.708C55.1933 41.5286 55.13 41.3551 55.0145 41.2178C54.8991 41.0806 54.7389 40.9885 54.5622 40.9578C54.3855 40.927 54.2036 40.9596 54.0486 41.0498C53.8936 41.14 53.7754 41.282 53.7148 41.4508L52.9002 43.7202C52.7935 44.0175 52.5972 44.2743 52.3383 44.4552C52.0794 44.6361 51.7707 44.7322 51.4548 44.7302C51.139 44.7281 50.8316 44.6281 50.575 44.4439C50.3185 44.2596 50.1254 44.0003 50.0226 43.7017L49.2437 41.4419C49.2016 41.3198 49.1291 41.2104 49.0331 41.124C48.9371 41.0375 48.8207 40.977 48.6948 40.9479C48.5689 40.9189 48.4377 40.9224 48.3136 40.958C48.1894 40.9936 48.0763 41.0602 47.985 41.1516L47.9666 41.1698C47.8238 41.3127 47.7435 41.5064 47.7435 41.7084C47.7433 41.8919 47.6703 42.0678 47.5405 42.1975C47.4108 42.3272 47.2349 42.4002 47.0514 42.4004H44.9738C44.6449 42.4005 44.3166 42.4255 43.9915 42.4753C42.7541 41.4821 41.2146 40.9413 39.6279 40.9423H37.375C37.1528 40.9423 36.9397 40.8541 36.7825 40.6969C36.6254 40.5398 36.5371 40.3267 36.5371 40.1045C36.5371 39.9251 36.4737 39.7515 36.3583 39.6143C36.2428 39.477 36.0826 39.3849 35.9059 39.3542C35.7292 39.3235 35.5474 39.3561 35.3923 39.4463C35.2373 39.5364 35.1191 39.6784 35.0585 39.8472L34.1631 42.3438C34.0404 42.6856 33.8146 42.9809 33.5169 43.189C33.2191 43.397 32.8642 43.5075 32.501 43.5051C32.1378 43.5028 31.7843 43.3878 31.4893 43.176C31.1942 42.9642 30.9722 42.666 30.8539 42.3226L29.9971 39.8362C29.955 39.714 29.8825 39.6045 29.7864 39.5181C29.6902 39.4317 29.5737 39.3711 29.4478 39.3421C29.3218 39.3132 29.1905 39.3167 29.0663 39.3525C28.9421 39.3882 28.829 39.455 28.7377 39.5465L28.7176 39.5667C28.5751 39.7095 28.4951 39.9029 28.4951 40.1046C28.4951 40.3268 28.4069 40.5399 28.2497 40.6971C28.0926 40.8542 27.8795 40.9425 27.6572 40.9425H25.3721C23.7851 40.9413 22.2452 41.4824 21.0077 42.4759C20.6829 42.4259 20.3548 42.4007 20.0262 42.4004H17.9781C17.7946 42.4002 17.6187 42.3272 17.4889 42.1975C17.3592 42.0678 17.2862 41.8919 17.2859 41.7084C17.2859 41.529 17.2226 41.3555 17.1071 41.2182C16.9916 41.081 16.8315 40.9889 16.6548 40.9581C16.4781 40.9274 16.2962 40.96 16.1412 41.0502C15.9861 41.1404 15.8679 41.2824 15.8073 41.4512L14.9932 43.7202C14.8864 44.0175 14.6901 44.2743 14.4312 44.4552C14.1722 44.6361 13.8636 44.7321 13.5477 44.7301C13.2319 44.7281 12.9244 44.628 12.6679 44.4438C12.4113 44.2596 12.2183 44.0003 12.1154 43.7017L11.3365 41.4419C11.2944 41.3197 11.2219 41.2103 11.1259 41.1239C11.0298 41.0374 10.9134 40.9769 10.7875 40.9478C10.6616 40.9188 10.5303 40.9223 10.4061 40.9579C10.282 40.9936 10.1689 41.0603 10.0775 41.1517L10.0593 41.17C9.91652 41.3128 9.83634 41.5065 9.83633 41.7084C9.83613 41.8919 9.76315 42.0678 9.63342 42.1975C9.50368 42.3272 9.32778 42.4002 9.14431 42.4004H7.06646C5.36134 42.4023 3.7266 43.0805 2.52085 44.2862C1.31511 45.4919 0.636815 47.1266 0.634766 48.8317V57.7415C0.634766 57.9436 0.715018 58.1373 0.857868 58.2802C1.00072 58.423 1.19446 58.5033 1.39648 58.5033H63.6035C63.8055 58.5033 63.9993 58.423 64.1421 58.2802C64.285 58.1373 64.3652 57.9436 64.3652 57.7415V48.8317C64.3633 47.1265 63.6851 45.4917 62.4794 44.286C61.2736 43.0802 59.6388 42.402 57.9337 42.4ZM18.3735 47.9408V56.9798H2.1582V48.8317C2.15968 47.5304 2.67728 46.2828 3.59743 45.3627C4.51759 44.4425 5.76517 43.9249 7.06646 43.9235H9.14405C9.60801 43.9241 10.0603 43.7783 10.4366 43.5068L10.6749 44.1986C10.8806 44.7954 11.2665 45.3136 11.7793 45.6818C12.2921 46.0499 12.9066 46.2498 13.5378 46.2538C14.1691 46.2578 14.786 46.0658 15.3035 45.7042C15.821 45.3426 16.2134 44.8293 16.4267 44.2351L16.6876 43.5083C17.0436 43.7647 17.4679 43.909 17.9064 43.9228C17.9202 43.9228 17.9343 43.9238 17.9484 43.9238H19.6462C18.817 45.0991 18.3724 46.5024 18.3735 47.9408ZM45.103 56.9798H19.897V47.9408C19.8987 46.4892 20.476 45.0976 21.5025 44.0712C22.5289 43.0448 23.9205 42.4674 25.3721 42.4658H27.6572C28.1871 42.4664 28.7016 42.2879 29.1172 41.9594L29.4134 42.8192C29.6345 43.4609 30.0493 44.018 30.6006 44.4138C31.1519 44.8096 31.8125 45.0245 32.4911 45.0288C33.1698 45.0331 33.833 44.8267 34.3893 44.4379C34.9456 44.0492 35.3675 43.4973 35.5968 42.8586L35.9186 41.9618C36.3133 42.2728 36.7973 42.449 37.2996 42.4645C37.3138 42.4654 37.3282 42.4658 37.3425 42.4658H39.6277C41.0793 42.4674 42.4709 43.0448 43.4974 44.0713C44.5238 45.0977 45.1012 46.4894 45.1028 47.941L45.103 56.9798ZM62.8418 56.9798H46.6265V47.9408C46.6276 46.5023 46.1829 45.0988 45.3535 43.9235H47.0514C47.5153 43.9241 47.9676 43.7783 48.3438 43.5068L48.582 44.1986C48.7878 44.7954 49.1737 45.3136 49.6865 45.6818C50.1993 46.0499 50.8138 46.2498 51.445 46.2538C52.0763 46.2578 52.6932 46.0658 53.2107 45.7042C53.7282 45.3426 54.1206 44.8293 54.3339 44.2351L54.5948 43.5083C54.9508 43.7647 55.3751 43.909 55.8135 43.9228C55.8274 43.9228 55.8415 43.9238 55.8554 43.9238H57.9332C59.2345 43.9252 60.4821 44.4427 61.4023 45.3628C62.3225 46.2829 62.8402 47.5304 62.8418 48.8317V56.9798Z" fill="black"/>
<path d="M7.92468 32.4005V35.6404C7.92468 36.3786 8.07009 37.1096 8.3526 37.7917C8.63511 38.4737 9.0492 39.0935 9.57121 39.6155C10.0932 40.1375 10.713 40.5516 11.395 40.8341C12.077 41.1166 12.8081 41.262 13.5463 41.262C14.2845 41.262 15.0155 41.1166 15.6976 40.8341C16.3796 40.5516 16.9994 40.1375 17.5214 39.6155C18.0434 39.0935 18.4575 38.4737 18.74 37.7917C19.0225 37.1096 19.1679 36.3786 19.1679 35.6404V32.4005C19.1679 30.9096 18.5756 29.4797 17.5214 28.4255C16.4671 27.3712 15.0372 26.7789 13.5463 26.7789C12.0554 26.7789 10.6255 27.3712 9.57121 28.4255C8.51696 29.4797 7.92468 30.9096 7.92468 32.4005ZM17.6445 32.4005V35.6404C17.6445 36.7273 17.2127 37.7697 16.4441 38.5382C15.6756 39.3068 14.6332 39.7386 13.5463 39.7386C12.4594 39.7386 11.417 39.3068 10.6484 38.5382C9.87989 37.7697 9.44812 36.7273 9.44812 35.6404V32.4005C9.44812 31.3136 9.87989 30.2713 10.6484 29.5027C11.417 28.7341 12.4594 28.3024 13.5463 28.3024C14.6332 28.3024 15.6756 28.7341 16.4441 29.5027C17.2127 30.2713 17.6445 31.3136 17.6445 32.4005Z" fill="black"/>
</svg>
